OxygenSans-Thin-condensed.ufo
<glyph name="exclam" format="1">
  <advance width="519"/>
  <unicode hex="0021"/>
  <outline>
    <contour>
      <point x="252.8" y="-15" type="curve" smooth="yes"/>
      <point x="329.8" y="-15"/>
      <point x="352.8" y="36"/>
      <point x="352.8" y="83" type="curve" smooth="yes"/>
      <point x="352.8" y="128"/>
      <point x="329.8" y="180"/>
      <point x="252.8" y="180" type="curve" smooth="yes"/>
      <point x="176.8" y="180"/>
      <point x="154.8" y="128"/>
      <point x="154.8" y="83" type="curve" smooth="yes"/>
      <point x="154.8" y="38"/>
      <point x="176.8" y="-15"/>
    </contour>
    <contour>
      <point x="226.8" y="409" type="line"/>
      <point x="270.8" y="409" type="line"/>
      <point x="319.8" y="1392" type="line"/>
      <point x="319.8" y="1474" type="line"/>
      <point x="172.8" y="1474" type="line"/>
      <point x="172.8" y="1392" type="line"/>
    </contour>
  </outline>
</glyph>
<glyph name="quotedbl" format="1">
  <advance width="577"/>
  <unicode hex="0022"/>
  <outline>
    <contour>
      <point x="375.8" y="1044" type="line"/>
      <point x="427.8" y="1044" type="line"/>
      <point x="456.8" y="1489" type="line"/>
      <point x="342.8" y="1489" type="line"/>
    </contour>
    <contour>
      <point x="142.8" y="1044" type="line"/>
      <point x="194.8" y="1044" type="line"/>
      <point x="222.8" y="1489" type="line"/>
      <point x="109.8" y="1489" type="line"/>
    </contour>
  </outline>
</glyph>
<glyph name="numbersign" format="1">
  <advance width="1133"/>
  <unicode hex="0023"/>
  <outline>
    <contour>
      <point x="648.276" y="482" type="line"/>
      <point x="422.5" y="482" type="line"/>
      <point x="504.276" y="932" type="line"/>
      <point x="729.276" y="932" type="line"/>
    </contour>
    <contour>
      <point x="557.376" y="-28" type="line"/>
      <point x="645.576" y="-28" type="line"/>
      <point x="723.876" y="408" type="line"/>
      <point x="879.652" y="408" type="line"/>
      <point x="892.652" y="482" type="line"/>
      <point x="737.652" y="482" type="line"/>
      <point x="827.652" y="932" type="line"/>
      <point x="967.652" y="932" type="line"/>
      <point x="980.652" y="1006" type="line"/>
      <point x="842.652" y="1006" type="line"/>
      <point x="924.652" y="1419" type="line"/>
      <point x="826.652" y="1419" type="line"/>
      <point x="743.652" y="1006" type="line"/>
      <point x="517.776" y="1006" type="line"/>
      <point x="591.576" y="1419" type="line"/>
      <point x="503.376" y="1419" type="line"/>
      <point x="428.5" y="1006" type="line"/>
      <point x="282.5" y="1006" type="line"/>
      <point x="272.5" y="932" type="line"/>
      <point x="413.5" y="932" type="line"/>
      <point x="324.5" y="482" type="line"/>
      <point x="194.5" y="482" type="line"/>
      <point x="184.5" y="408" type="line"/>
      <point x="309.5" y="408" type="line"/>
      <point x="222.5" y="-28" type="line"/>
      <point x="320.5" y="-28" type="line"/>
      <point x="407.5" y="408" type="line"/>
      <point x="634.776" y="408" type="line"/>
    </contour>
  </outline>
</glyph>
<glyph name="dollar" format="1">
  <advance width="1176"/>
  <unicode hex="0024"/>
  <outline>
    <contour>
      <point x="550.176" y="-19" type="line"/>
      <point x="308.4" y="-14"/>
      <point x="189.4" y="91"/>
      <point x="140.4" y="134" type="curve"/>
      <point x="188.4" y="219" type="line"/>
      <point x="285.4" y="145"/>
      <point x="395.376" y="77"/>
      <point x="574.476" y="77" type="curve" smooth="yes"/>
      <point x="777.876" y="77"/>
      <point x="907.673" y="156"/>
      <point x="917.673" y="363" type="curve"/>
      <point x="924.673" y="532"/>
      <point x="865.673" y="589"/>
      <point x="662.676" y="674" type="curve" smooth="yes"/>
      <point x="449.376" y="767" type="line" smooth="yes"/>
      <point x="269.4" y="841"/>
      <point x="145.4" y="925"/>
      <point x="155.4" y="1117" type="curve" smooth="yes"/>
      <point x="169.4" y="1376"/>
      <point x="366.4" y="1454"/>
      <point x="550.176" y="1466" type="curve"/>
      <point x="550.176" y="1716" type="line"/>
      <point x="620.376" y="1716" type="line"/>
      <point x="622.176" y="1468" type="line"/>
      <point x="762.576" y="1463"/>
      <point x="899.673" y="1396"/>
      <point x="961.673" y="1343" type="curve"/>
      <point x="905.673" y="1267" type="line"/>
      <point x="876.673" y="1287"/>
      <point x="755.376" y="1372"/>
      <point x="594.276" y="1372" type="curve" smooth="yes"/>
      <point x="445.776" y="1372"/>
      <point x="278.4" y="1319"/>
      <point x="269.4" y="1122" type="curve" smooth="yes"/>
      <point x="263.4" y="980"/>
      <point x="318.4" y="930"/>
      <point x="478.176" y="862" type="curve" smooth="yes"/>
      <point x="683.376" y="770" type="line" smooth="yes"/>
      <point x="865.673" y="692"/>
      <point x="1038.67" y="624"/>
      <point x="1024.67" y="367" type="curve" smooth="yes"/>
      <point x="1009.67" y="98"/>
      <point x="833.673" y="-4"/>
      <point x="621.276" y="-18" type="curve"/>
      <point x="622.176" y="-276" type="line"/>
      <point x="550.176" y="-276" type="line"/>
    </contour>
  </outline>
</glyph>
<glyph name="percent" format="1">
  <advance width="1755"/>
  <unicode hex="0025"/>
  <outline>
    <contour>
      <point x="1386.46" y="-13" type="curve" smooth="yes"/>
      <point x="1207.92" y="-13"/>
      <point x="1101.4" y="151"/>
      <point x="1101.4" y="362" type="curve" smooth="yes"/>
      <point x="1050.7" y="574"/>
      <point x="1162.1" y="736"/>
      <point x="1361" y="736" type="curve" smooth="yes"/>
      <point x="1564.4" y="736"/>
      <point x="1672.1" y="577"/>
      <point x="1672.1" y="362" type="curve" smooth="yes"/>
      <point x="1672.1" y="151"/>
      <point x="1563.4" y="-13"/>
    </contour>
    <contour>
      <point x="1388.04" y="64" type="curve" smooth="yes"/>
      <point x="1519.76" y="64"/>
      <point x="1576.1" y="195"/>
      <point x="1576.1" y="363" type="curve" smooth="yes"/>
      <point x="1576.1" y="537"/>
      <point x="1511.3" y="659"/>
      <point x="1362.8" y="659" type="curve" smooth="yes"/>
      <point x="1212.5" y="659"/>
      <point x="1147.7" y="531"/>
      <point x="1198.4" y="363" type="curve" smooth="yes"/>
      <point x="1198.4" y="190"/>
      <point x="1256.32" y="64"/>
    </contour>
    <contour>
      <point x="410.7" y="786" type="curve" smooth="yes"/>
      <point x="576.7" y="786"/>
      <point x="647.7" y="917"/>
      <point x="647.7" y="1085" type="curve" smooth="yes"/>
      <point x="647.7" y="1259"/>
      <point x="575.7" y="1381"/>
      <point x="410.7" y="1381" type="curve" smooth="yes"/>
      <point x="243.7" y="1381"/>
      <point x="171.7" y="1253"/>
      <point x="171.7" y="1085" type="curve" smooth="yes"/>
      <point x="171.7" y="912"/>
      <point x="244.7" y="786"/>
    </contour>
    <contour>
      <point x="408.7" y="709" type="curve" smooth="yes"/>
      <point x="183.7" y="709"/>
      <point x="74.7002" y="873"/>
      <point x="74.7002" y="1084" type="curve" smooth="yes"/>
      <point x="74.7002" y="1296"/>
      <point x="187.7" y="1458"/>
      <point x="408.7" y="1458" type="curve" smooth="yes"/>
      <point x="634.7" y="1458"/>
      <point x="743.7" y="1299"/>
      <point x="743.7" y="1084" type="curve" smooth="yes"/>
      <point x="743.7" y="873"/>
      <point x="631.7" y="709"/>
    </contour>
    <contour>
      <point x="433.7" y="0" type="line"/>
      <point x="1253" y="1449" type="line"/>
      <point x="1343.9" y="1449" type="line"/>
      <point x="543.7" y="0" type="line"/>
    </contour>
  </outline>
</glyph>
<glyph name="ampersand" format="1">
  <advance width="1394"/>
  <unicode hex="0026"/>
  <outline>
    <contour>
      <point x="647.376" y="-19" type="curve" smooth="yes"/>
      <point x="848.976" y="-19"/>
      <point x="904.776" y="18"/>
      <point x="1019.98" y="114" type="curve"/>
      <point x="1141.15" y="-20" type="line"/>
      <point x="1242.15" y="26" type="line"/>
      <point x="1086.15" y="187" type="line"/>
      <point x="1156.15" y="257"/>
      <point x="1247.15" y="399"/>
      <point x="1282.15" y="485" type="curve"/>
      <point x="1195.15" y="544" type="line"/>
      <point x="1160.15" y="457"/>
      <point x="1080.15" y="320"/>
      <point x="1023.58" y="263" type="curve"/>
      <point x="606.876" y="780" type="line"/>
      <point x="797.676" y="872"/>
      <point x="940.776" y="999"/>
      <point x="940.776" y="1163" type="curve" smooth="yes"/>
      <point x="940.776" y="1351"/>
      <point x="837.276" y="1468"/>
      <point x="645.576" y="1468" type="curve" smooth="yes"/>
      <point x="434.076" y="1468"/>
      <point x="291.8" y="1338"/>
      <point x="291.8" y="1164" type="curve" smooth="yes"/>
      <point x="291.8" y="1035"/>
      <point x="353.8" y="929"/>
      <point x="470.076" y="802" type="curve"/>
      <point x="321.8" y="709"/>
      <point x="172.8" y="575"/>
      <point x="172.8" y="363" type="curve" smooth="yes"/>
      <point x="172.8" y="144"/>
      <point x="321.8" y="-19"/>
    </contour>
    <contour>
      <point x="658.176" y="77" type="curve" smooth="yes"/>
      <point x="425.076" y="77"/>
      <point x="292.8" y="194"/>
      <point x="292.8" y="371" type="curve" smooth="yes"/>
      <point x="292.8" y="527"/>
      <point x="394.8" y="648"/>
      <point x="528.576" y="733" type="curve"/>
      <point x="960.576" y="195" type="line"/>
      <point x="864.276" y="110"/>
      <point x="808.476" y="77"/>
    </contour>
    <contour>
      <point x="552.876" y="849" type="curve"/>
      <point x="430.476" y="974"/>
      <point x="396.8" y="1065"/>
      <point x="396.8" y="1170" type="curve" smooth="yes"/>
      <point x="396.8" y="1294"/>
      <point x="518.676" y="1372"/>
      <point x="645.576" y="1372" type="curve" smooth="yes"/>
      <point x="779.676" y="1372"/>
      <point x="840.876" y="1299"/>
      <point x="840.876" y="1170" type="curve" smooth="yes"/>
      <point x="840.876" y="1034"/>
      <point x="699.576" y="924"/>
    </contour>
  </outline>
</glyph>
<glyph name="quotesingle" format="1">
  <advance width="259"/>
  <unicode hex="0027"/>
  <outline>
    <contour>
      <point x="85.7002" y="982" type="line"/>
      <point x="158.7" y="982" type="line"/>
      <point x="172.7" y="1449" type="line"/>
      <point x="74.7002" y="1449" type="line"/>
    </contour>
  </outline>
</glyph>
<glyph name="parenleft" format="1">
  <advance width="682"/>
  <unicode hex="0028"/>
  <outline>
    <contour>
      <point x="436.9" y="-264" type="curve"/>
      <point x="551.9" y="-264" type="line"/>
      <point x="351.9" y="43"/>
      <point x="303.9" y="381"/>
      <point x="303.9" y="701" type="curve" smooth="yes"/>
      <point x="303.9" y="990"/>
      <point x="346.9" y="1244"/>
      <point x="553.9" y="1566" type="curve"/>
      <point x="434.9" y="1566" type="line"/>
      <point x="263.9" y="1310"/>
      <point x="180.9" y="1012"/>
      <point x="180.9" y="696" type="curve" smooth="yes"/>
      <point x="180.9" y="335"/>
      <point x="271.9" y="-35"/>
    </contour>
  </outline>
</glyph>
<glyph name="parenright" format="1">
  <advance width="674"/>
  <unicode hex="0029"/>
  <outline>
    <contour>
      <point x="110.8" y="-264" type="curve"/>
      <point x="226.8" y="-264" type="line"/>
      <point x="391.8" y="-35"/>
      <point x="481.8" y="335"/>
      <point x="481.8" y="696" type="curve" smooth="yes"/>
      <point x="481.8" y="1012"/>
      <point x="399.8" y="1310"/>
      <point x="228.8" y="1566" type="curve"/>
      <point x="109.8" y="1566" type="line"/>
      <point x="316.8" y="1244"/>
      <point x="358.8" y="990"/>
      <point x="358.8" y="701" type="curve" smooth="yes"/>
      <point x="358.8" y="381"/>
      <point x="310.8" y="43"/>
    </contour>
  </outline>
</glyph>
<glyph name="asterisk" format="1">
  <advance width="1147"/>
  <unicode hex="002A"/>
  <outline>
    <contour>
      <point x="374.4" y="586" type="line"/>
      <point x="270.4" y="660" type="line"/>
      <point x="508.776" y="1009" type="line"/>
      <point x="149.4" y="1096" type="line"/>
      <point x="182.4" y="1221" type="line"/>
      <point x="535.776" y="1065" type="line"/>
      <point x="502.476" y="1487" type="line"/>
      <point x="627.576" y="1487" type="line"/>
      <point x="592.476" y="1065" type="line"/>
      <point x="947.452" y="1221" type="line"/>
      <point x="982.452" y="1096" type="line"/>
      <point x="615.876" y="1009" type="line"/>
      <point x="651.876" y="953"/>
      <point x="723.876" y="839"/>
      <point x="862.452" y="660" type="curve"/>
      <point x="776.452" y="606"/>
      <point x="842.452" y="641"/>
      <point x="756.452" y="587" type="curve"/>
      <point x="559.176" y="970" type="line"/>
    </contour>
  </outline>
</glyph>
<glyph name="plus" format="1">
  <advance width="1083"/>
  <unicode hex="002B"/>
  <outline>
    <contour>
      <point x="497.076" y="187" type="line"/>
      <point x="579.876" y="187" type="line"/>
      <point x="579.876" y="591" type="line"/>
      <point x="938.352" y="591" type="line"/>
      <point x="938.352" y="667" type="line"/>
      <point x="579.876" y="667" type="line"/>
      <point x="579.876" y="1061" type="line"/>
      <point x="497.076" y="1061" type="line"/>
      <point x="497.076" y="667" type="line"/>
      <point x="131.4" y="667" type="line"/>
      <point x="131.4" y="591" type="line"/>
      <point x="497.076" y="591" type="line"/>
    </contour>
  </outline>
</glyph>
<glyph name="comma" format="1">
  <advance width="444"/>
  <unicode hex="002C"/>
  <outline>
    <contour>
      <point x="133.2" y="-285" type="curve"/>
      <point x="192.2" y="-285" type="line"/>
      <point x="192.2" y="-285"/>
      <point x="281.2" y="132"/>
      <point x="281.2" y="173" type="curve" smooth="yes"/>
      <point x="281.2" y="205" type="line"/>
      <point x="151.2" y="205" type="line"/>
      <point x="151.2" y="101"/>
      <point x="133.2" y="-285"/>
    </contour>
  </outline>
</glyph>
<glyph name="hyphen" format="1">
  <advance width="754"/>
  <unicode hex="002D"/>
  <outline>
    <contour>
      <point x="133.2" y="516" type="line"/>
      <point x="586.2" y="516" type="line"/>
      <point x="586.2" y="608" type="line"/>
      <point x="133.2" y="608" type="line"/>
    </contour>
  </outline>
</glyph>
<glyph name="period" format="1">
  <advance width="449"/>
  <unicode hex="002E"/>
  <outline>
    <contour>
      <point x="224" y="-17" type="curve" smooth="yes"/>
      <point x="292" y="-17"/>
      <point x="312" y="31"/>
      <point x="312" y="73" type="curve" smooth="yes"/>
      <point x="312" y="115"/>
      <point x="292" y="163"/>
      <point x="224" y="163" type="curve" smooth="yes"/>
      <point x="154" y="163"/>
      <point x="135" y="115"/>
      <point x="135" y="73" type="curve" smooth="yes"/>
      <point x="135" y="32"/>
      <point x="156" y="-17"/>
    </contour>
  </outline>
</glyph>
<glyph name="slash" format="1">
  <advance width="959"/>
  <unicode hex="002F"/>
  <outline>
    <contour>
      <point x="105.3" y="-233" type="line"/>
      <point x="180.3" y="-233" type="line"/>
      <point x="860.052" y="1406" type="line"/>
      <point x="783.052" y="1406" type="line"/>
    </contour>
  </outline>
</glyph>
<glyph name="zero" format="1">
  <advance width="1144"/>
  <unicode hex="0030"/>
  <outline>
    <contour>
      <point x="571.7" y="67" type="curve" smooth="yes"/>
      <point x="387.2" y="67"/>
      <point x="245.9" y="238"/>
      <point x="245.9" y="720" type="curve"/>
      <point x="243.9" y="1175"/>
      <point x="385.4" y="1362"/>
      <point x="571.7" y="1362" type="curve" smooth="yes"/>
      <point x="756.2" y="1362"/>
      <point x="886.7" y="1216"/>
      <point x="886.7" y="722" type="curve" smooth="yes"/>
      <point x="886.7" y="239"/>
      <point x="756.2" y="67"/>
    </contour>
    <contour>
      <point x="571.7" y="-33" type="curve" smooth="yes"/>
      <point x="863.3" y="-33"/>
      <point x="1003.7" y="258"/>
      <point x="1003.7" y="717" type="curve" smooth="yes"/>
      <point x="1003.7" y="1207"/>
      <point x="843.5" y="1464"/>
      <point x="571.7" y="1464" type="curve" smooth="yes"/>
      <point x="299" y="1464"/>
      <point x="126.9" y="1205"/>
      <point x="126.9" y="717" type="curve" smooth="yes"/>
      <point x="126.9" y="258"/>
      <point x="280.1" y="-33"/>
    </contour>
  </outline>
</glyph>
<glyph name="one" format="1">
  <advance width="1151"/>
  <unicode hex="0031"/>
  <outline>
    <contour>
      <point x="214.2" y="0" type="line"/>
      <point x="1000.45" y="0" type="line"/>
      <point x="1000.45" y="94" type="line"/>
      <point x="638.376" y="94" type="line"/>
      <point x="680.676" y="47" type="line"/>
      <point x="680.676" y="1449" type="line"/>
      <point x="572.676" y="1449" type="line"/>
      <point x="506.976" y="1398"/>
      <point x="320.2" y="1343"/>
      <point x="254.2" y="1333" type="curve"/>
      <point x="254.2" y="1234" type="line"/>
      <point x="331.2" y="1243"/>
      <point x="531.276" y="1300"/>
      <point x="605.076" y="1363" type="curve"/>
      <point x="570.876" y="1380" type="line"/>
      <point x="570.876" y="49" type="line"/>
      <point x="611.376" y="94" type="line"/>
      <point x="214.2" y="94" type="line"/>
    </contour>
  </outline>
</glyph>
<glyph name="two" format="1">
  <advance width="1139"/>
  <unicode hex="0032"/>
  <outline>
    <contour>
      <point x="138.3" y="0" type="line"/>
      <point x="958.552" y="0" type="line"/>
      <point x="963.552" y="94" type="line"/>
      <point x="193.3" y="94" type="line"/>
      <point x="203.3" y="49" type="line"/>
      <point x="699.576" y="595" type="line" smooth="yes"/>
      <point x="887.552" y="790"/>
      <point x="951.552" y="863"/>
      <point x="951.552" y="1083" type="curve" smooth="yes"/>
      <point x="951.552" y="1390"/>
      <point x="651.876" y="1468"/>
      <point x="517.776" y="1468" type="curve" smooth="yes"/>
      <point x="375.576" y="1468"/>
      <point x="220.3" y="1413"/>
      <point x="134.3" y="1358" type="curve"/>
      <point x="171.3" y="1271" type="line"/>
      <point x="279.3" y="1334"/>
      <point x="404.376" y="1372"/>
      <point x="517.776" y="1372" type="curve" smooth="yes"/>
      <point x="632.976" y="1372"/>
      <point x="835.552" y="1324"/>
      <point x="835.552" y="1065" type="curve" smooth="yes"/>
      <point x="835.552" y="869"/>
      <point x="753.552" y="804"/>
      <point x="624.876" y="661" type="curve" smooth="yes"/>
      <point x="105.3" y="94" type="line"/>
    </contour>
  </outline>
</glyph>
<glyph name="three" format="1">
  <advance width="1129"/>
  <unicode hex="0033"/>
  <outline>
    <contour>
      <point x="532.176" y="-19" type="curve" smooth="yes"/>
      <point x="812.076" y="-19"/>
      <point x="985.176" y="138"/>
      <point x="985.176" y="392" type="curve" smooth="yes"/>
      <point x="985.176" y="622"/>
      <point x="844.476" y="738"/>
      <point x="668.976" y="771" type="curve"/>
      <point x="834.576" y="807"/>
      <point x="948.176" y="901"/>
      <point x="948.176" y="1115" type="curve" smooth="yes"/>
      <point x="948.176" y="1346"/>
      <point x="752.676" y="1468"/>
      <point x="531.276" y="1468" type="curve" smooth="yes"/>
      <point x="402.576" y="1468"/>
      <point x="263.1" y="1429"/>
      <point x="143.1" y="1355" type="curve"/>
      <point x="185.1" y="1269" type="line"/>
      <point x="288.1" y="1334"/>
      <point x="422.376" y="1372"/>
      <point x="532.176" y="1372" type="curve" smooth="yes"/>
      <point x="695.976" y="1372"/>
      <point x="839.976" y="1296"/>
      <point x="839.976" y="1109" type="curve" smooth="yes"/>
      <point x="839.976" y="860"/>
      <point x="623.976" y="829"/>
      <point x="436.776" y="820" type="curve"/>
      <point x="404.376" y="820" type="line"/>
      <point x="404.376" y="719" type="line"/>
      <point x="434.976" y="719" type="line"/>
      <point x="669.876" y="714"/>
      <point x="874.176" y="671"/>
      <point x="874.176" y="387" type="curve" smooth="yes"/>
      <point x="874.176" y="171"/>
      <point x="740.076" y="77"/>
      <point x="533.076" y="77" type="curve" smooth="yes"/>
      <point x="394.476" y="77"/>
      <point x="264.1" y="128"/>
      <point x="198.1" y="169" type="curve"/>
      <point x="154.1" y="87" type="line"/>
      <point x="212.1" y="51"/>
      <point x="350.1" y="-19"/>
    </contour>
  </outline>
</glyph>
<glyph name="four" format="1">
  <advance width="1139"/>
  <unicode hex="0034"/>
  <outline>
    <contour>
      <point x="753.576" y="0" type="line"/>
      <point x="864.576" y="0" type="line"/>
      <point x="864.576" y="392" type="line"/>
      <point x="1037.58" y="392" type="line"/>
      <point x="1042.75" y="484" type="line"/>
      <point x="859.752" y="484" type="line"/>
      <point x="859.752" y="1449" type="line"/>
      <point x="763.476" y="1449" type="line"/>
      <point x="111.6" y="514" type="line"/>
      <point x="111.6" y="392" type="line"/>
      <point x="753.576" y="392" type="line"/>
    </contour>
    <contour>
      <point x="230.6" y="486" type="line"/>
      <point x="752.676" y="1281" type="line"/>
      <point x="752.676" y="486" type="line"/>
    </contour>
  </outline>
</glyph>
<glyph name="five" format="1">
  <advance width="1130"/>
  <unicode hex="0035"/>
  <outline>
    <contour>
      <point x="523.176" y="-20" type="curve" smooth="yes"/>
      <point x="767.976" y="-20"/>
      <point x="997.076" y="139"/>
      <point x="997.076" y="463" type="curve" smooth="yes"/>
      <point x="997.076" y="696"/>
      <point x="851.676" y="899"/>
      <point x="579.876" y="899" type="curve" smooth="yes"/>
      <point x="487.176" y="899"/>
      <point x="409.776" y="877"/>
      <point x="314.1" y="812" type="curve"/>
      <point x="353.1" y="1354" type="line"/>
      <point x="921.076" y="1354" type="line"/>
      <point x="932.076" y="1449" type="line"/>
      <point x="258.1" y="1449" type="line"/>
      <point x="208.1" y="702" type="line"/>
      <point x="317.1" y="692" type="line"/>
      <point x="378.1" y="758"/>
      <point x="479.076" y="802"/>
      <point x="578.076" y="802" type="curve" smooth="yes"/>
      <point x="800.376" y="802"/>
      <point x="875.076" y="639"/>
      <point x="875.076" y="458" type="curve" smooth="yes"/>
      <point x="875.076" y="205"/>
      <point x="708.576" y="77"/>
      <point x="512.376" y="77" type="curve" smooth="yes"/>
      <point x="412.476" y="77"/>
      <point x="294.1" y="112"/>
      <point x="184.1" y="180" type="curve"/>
      <point x="143.1" y="92" type="line"/>
      <point x="266.1" y="17"/>
      <point x="404.376" y="-20"/>
    </contour>
  </outline>
</glyph>
<glyph name="six" format="1">
  <advance width="1118"/>
  <unicode hex="0036"/>
  <outline>
    <contour>
      <point x="573.5" y="-19" type="curve" smooth="yes"/>
      <point x="830" y="-19"/>
      <point x="988.7" y="185"/>
      <point x="988.7" y="425" type="curve" smooth="yes"/>
      <point x="988.7" y="683"/>
      <point x="791.3" y="850"/>
      <point x="596.9" y="850" type="curve" smooth="yes"/>
      <point x="327.8" y="850"/>
      <point x="199.1" y="596"/>
      <point x="190.1" y="571" type="curve"/>
      <point x="207.1" y="561" type="line"/>
      <point x="207.1" y="561"/>
      <point x="350.3" y="756"/>
      <point x="461" y="937" type="curve" smooth="yes"/>
      <point x="775.1" y="1449" type="line"/>
      <point x="656.3" y="1449" type="line"/>
      <point x="380" y="996" type="line" smooth="yes"/>
      <point x="249.1" y="785"/>
      <point x="161.1" y="653"/>
      <point x="161.1" y="428" type="curve" smooth="yes"/>
      <point x="161.1" y="208"/>
      <point x="301.7" y="-19"/>
    </contour>
    <contour>
      <point x="571.7" y="77" type="curve" smooth="yes"/>
      <point x="370.1" y="77"/>
      <point x="271.1" y="240"/>
      <point x="271.1" y="417" type="curve" smooth="yes"/>
      <point x="271.1" y="692"/>
      <point x="478.1" y="751"/>
      <point x="578.9" y="751" type="curve" smooth="yes"/>
      <point x="766.1" y="751"/>
      <point x="877.7" y="612"/>
      <point x="877.7" y="425" type="curve" smooth="yes"/>
      <point x="877.7" y="245"/>
      <point x="770.6" y="77"/>
    </contour>
  </outline>
</glyph>
<glyph name="seven" format="1">
  <advance width="1151"/>
  <unicode hex="0037"/>
  <outline>
    <contour>
      <point x="357.9" y="1" type="line"/>
      <point x="467.9" y="1" type="line"/>
      <point x="980.276" y="1359" type="line"/>
      <point x="980.276" y="1449" type="line"/>
      <point x="180.9" y="1449" type="line"/>
      <point x="208.9" y="1355" type="line"/>
      <point x="866.276" y="1355" type="line"/>
    </contour>
  </outline>
</glyph>
<glyph name="eight" format="1">
  <advance width="1113"/>
  <unicode hex="0038"/>
  <outline>
    <contour>
      <point x="549.6" y="-19" type="curve" smooth="yes"/>
      <point x="780.9" y="-19"/>
      <point x="972.7" y="102"/>
      <point x="972.7" y="352" type="curve" smooth="yes"/>
      <point x="972.7" y="544"/>
      <point x="847.5" y="701"/>
      <point x="661.2" y="756" type="curve"/>
      <point x="824.1" y="811"/>
      <point x="938.7" y="927"/>
      <point x="938.7" y="1113" type="curve" smooth="yes"/>
      <point x="938.7" y="1333"/>
      <point x="781.8" y="1468"/>
      <point x="550.5" y="1468" type="curve" smooth="yes"/>
      <point x="317.4" y="1468"/>
      <point x="158.9" y="1333"/>
      <point x="158.9" y="1113" type="curve" smooth="yes"/>
      <point x="158.9" y="929"/>
      <point x="283.2" y="799"/>
      <point x="437.1" y="753" type="curve"/>
      <point x="242.7" y="687"/>
      <point x="126.9" y="564"/>
      <point x="126.9" y="352" type="curve" smooth="yes"/>
      <point x="126.9" y="101"/>
      <point x="321" y="-19"/>
    </contour>
    <contour>
      <point x="549.6" y="77" type="curve" smooth="yes"/>
      <point x="340.8" y="77"/>
      <point x="231.9" y="177"/>
      <point x="231.9" y="365" type="curve" smooth="yes"/>
      <point x="231.9" y="555"/>
      <point x="370.5" y="660"/>
      <point x="549.6" y="700" type="curve"/>
      <point x="730.5" y="660"/>
      <point x="863.7" y="546"/>
      <point x="863.7" y="365" type="curve" smooth="yes"/>
      <point x="863.7" y="167"/>
      <point x="765.6" y="77"/>
    </contour>
    <contour>
      <point x="549.6" y="798" type="curve"/>
      <point x="366" y="842"/>
      <point x="273.3" y="953"/>
      <point x="273.3" y="1119" type="curve" smooth="yes"/>
      <point x="273.3" y="1276"/>
      <point x="384" y="1372"/>
      <point x="549.6" y="1372" type="curve" smooth="yes"/>
      <point x="717" y="1372"/>
      <point x="823.2" y="1276"/>
      <point x="823.2" y="1119" type="curve" smooth="yes"/>
      <point x="823.2" y="953"/>
      <point x="735.9" y="842"/>
    </contour>
  </outline>
</glyph>
<glyph name="nine" format="1">
  <advance width="1150"/>
  <unicode hex="0039"/>
  <outline>
    <contour>
      <point x="317.8" y="0" type="line"/>
      <point x="456.8" y="0" type="line"/>
      <point x="761.771" y="453" type="line"/>
      <point x="911.976" y="658"/>
      <point x="1015.98" y="796"/>
      <point x="1015.98" y="1021" type="curve" smooth="yes"/>
      <point x="1015.98" y="1241"/>
      <point x="871.976" y="1468"/>
      <point x="587.216" y="1468" type="curve" smooth="yes"/>
      <point x="319.8" y="1468"/>
      <point x="154.8" y="1264"/>
      <point x="154.8" y="1024" type="curve" smooth="yes"/>
      <point x="154.8" y="766"/>
      <point x="362.8" y="599"/>
      <point x="563.454" y="599" type="curve" smooth="yes"/>
      <point x="842.976" y="599"/>
      <point x="977.976" y="852"/>
      <point x="986.976" y="877" type="curve"/>
      <point x="969.976" y="888" type="line"/>
      <point x="969.976" y="888"/>
      <point x="799.976" y="686"/>
      <point x="677.692" y="511" type="curve" smooth="yes"/>
    </contour>
    <contour>
      <point x="580.818" y="698" type="curve" smooth="yes"/>
      <point x="389.8" y="698"/>
      <point x="266.8" y="837"/>
      <point x="266.8" y="1024" type="curve" smooth="yes"/>
      <point x="266.8" y="1204"/>
      <point x="385.8" y="1372"/>
      <point x="589.044" y="1372" type="curve" smooth="yes"/>
      <point x="795.976" y="1372"/>
      <point x="905.976" y="1208"/>
      <point x="905.976" y="1031" type="curve" smooth="yes"/>
      <point x="905.976" y="756"/>
      <point x="683.176" y="698"/>
    </contour>
  </outline>
</glyph>
<glyph name="colon" format="1">
  <advance width="474"/>
  <unicode hex="003A"/>
  <outline>
    <contour>
      <point x="151.2" y="0" type="line"/>
      <point x="295.2" y="0" type="line"/>
      <point x="295.2" y="172" type="line"/>
      <point x="151.2" y="172" type="line"/>
    </contour>
    <contour>
      <point x="151.2" y="878" type="line"/>
      <point x="295.2" y="878" type="line"/>
      <point x="295.2" y="1055" type="line"/>
      <point x="151.2" y="1055" type="line"/>
    </contour>
  </outline>
</glyph>
<glyph name="semicolon" format="1">
  <advance width="463"/>
  <unicode hex="003B"/>
  <outline>
    <contour>
      <point x="154.9" y="878" type="line"/>
      <point x="298.9" y="878" type="line"/>
      <point x="298.9" y="1055" type="line"/>
      <point x="154.9" y="1055" type="line"/>
    </contour>
    <contour>
      <point x="117.9" y="-299" type="line"/>
      <point x="182.9" y="-299" type="line"/>
      <point x="303.9" y="143" type="line"/>
      <point x="172.9" y="143" type="line"/>
    </contour>
  </outline>
</glyph>
<glyph name="less" format="1">
  <advance width="1147"/>
  <unicode hex="003C"/>
  <outline>
    <contour>
      <point x="990.152" y="117" type="line"/>
      <point x="992.152" y="221" type="line"/>
      <point x="217.6" y="602" type="line"/>
      <point x="994.152" y="1005" type="line"/>
      <point x="994.152" y="1114" type="line"/>
      <point x="102.6" y="633" type="line"/>
      <point x="102.6" y="564" type="line"/>
    </contour>
  </outline>
</glyph>
<glyph name="equal" format="1">
  <advance width="1183"/>
  <unicode hex="003D"/>
  <outline>
    <contour>
      <point x="151.4" y="379" type="line"/>
      <point x="151.4" y="473" type="line"/>
      <point x="1017.55" y="473" type="line"/>
      <point x="1017.55" y="379" type="line"/>
    </contour>
    <contour>
      <point x="149.4" y="811" type="line"/>
      <point x="149.4" y="902" type="line"/>
      <point x="1017.55" y="902" type="line"/>
      <point x="1017.55" y="811" type="line"/>
    </contour>
  </outline>
</glyph>
<glyph name="greater" format="1">
  <advance width="1162"/>
  <unicode hex="003E"/>
  <outline>
    <contour>
      <point x="132.3" y="124" type="line"/>
      <point x="1023.85" y="562" type="line"/>
      <point x="1023.85" y="632" type="line"/>
      <point x="135.3" y="1122" type="line"/>
      <point x="135.3" y="1014" type="line"/>
      <point x="897.852" y="602" type="line"/>
      <point x="132.3" y="230" type="line"/>
    </contour>
  </outline>
</glyph>
<glyph name="question" format="1">
  <advance width="896"/>
  <unicode hex="003F"/>
  <outline>
    <contour>
      <point x="393.7" y="400" type="line"/>
      <point x="500.7" y="764"/>
      <point x="738.7" y="915"/>
      <point x="738.7" y="1201" type="curve" smooth="yes"/>
      <point x="738.7" y="1385"/>
      <point x="595.7" y="1501"/>
      <point x="410.7" y="1501" type="curve" smooth="yes"/>
      <point x="285.7" y="1501"/>
      <point x="183.7" y="1462"/>
      <point x="110.7" y="1412" type="curve"/>
      <point x="129.7" y="1310" type="line"/>
      <point x="170.7" y="1336"/>
      <point x="283.7" y="1398"/>
      <point x="394.7" y="1398" type="curve" smooth="yes"/>
      <point x="535.7" y="1398"/>
      <point x="622.7" y="1335"/>
      <point x="622.7" y="1189" type="curve" smooth="yes"/>
      <point x="622.7" y="934"/>
      <point x="335.7" y="636"/>
      <point x="335.7" y="400" type="curve"/>
    </contour>
    <contour>
      <point x="369.7" y="-15" type="curve" smooth="yes"/>
      <point x="446.7" y="-15"/>
      <point x="470.7" y="36"/>
      <point x="470.7" y="83" type="curve" smooth="yes"/>
      <point x="470.7" y="128"/>
      <point x="446.7" y="180"/>
      <point x="369.7" y="180" type="curve" smooth="yes"/>
      <point x="293.7" y="180"/>
      <point x="272.7" y="128"/>
      <point x="272.7" y="83" type="curve" smooth="yes"/>
      <point x="272.7" y="38"/>
      <point x="293.7" y="-15"/>
    </contour>
  </outline>
</glyph>
<glyph name="at" format="1">
  <advance width="1939"/>
  <unicode hex="0040"/>
  <outline>
    <contour>
      <point x="937.4" y="-231" type="curve" smooth="yes"/>
      <point x="1120.1" y="-231"/>
      <point x="1301.1" y="-183"/>
      <point x="1438.1" y="-91" type="curve"/>
      <point x="1399.1" y="-7" type="line"/>
      <point x="1258.1" y="-88"/>
      <point x="1099.4" y="-133"/>
      <point x="941.9" y="-133" type="curve" smooth="yes"/>
      <point x="556.7" y="-133"/>
      <point x="287.6" y="120"/>
      <point x="287.6" y="598" type="curve" smooth="yes"/>
      <point x="287.6" y="1072"/>
      <point x="590.9" y="1398"/>
      <point x="1000.4" y="1398" type="curve" smooth="yes"/>
      <point x="1361.5" y="1398"/>
      <point x="1630.6" y="1142"/>
      <point x="1630.6" y="753" type="curve" smooth="yes"/>
      <point x="1630.6" y="502"/>
      <point x="1565.1" y="292"/>
      <point x="1394.1" y="292" type="curve" smooth="yes"/>
      <point x="1289.1" y="292"/>
      <point x="1241.1" y="381"/>
      <point x="1236.4" y="486" type="curve" smooth="yes"/>
      <point x="1236.4" y="617"/>
      <point x="1271.5" y="813"/>
      <point x="1298.5" y="1026" type="curve"/>
      <point x="1216.6" y="1057"/>
      <point x="1109.3" y="1086"/>
      <point x="1016.6" y="1086" type="curve" smooth="yes"/>
      <point x="753.8" y="1086"/>
      <point x="595.4" y="851"/>
      <point x="595.4" y="565" type="curve" smooth="yes"/>
      <point x="595.4" y="333"/>
      <point x="709.4" y="197"/>
      <point x="878" y="197" type="curve" smooth="yes"/>
      <point x="1040" y="197"/>
      <point x="1143.1" y="376"/>
      <point x="1194.1" y="568" type="curve"/>
      <point x="1138.1" y="568" type="line"/>
      <point x="1149.1" y="315"/>
      <point x="1226.1" y="212"/>
      <point x="1397.1" y="212" type="curve" smooth="yes"/>
      <point x="1577.1" y="212"/>
      <point x="1783.1" y="395"/>
      <point x="1734.6" y="746" type="curve" smooth="yes"/>
      <point x="1734.6" y="1213"/>
      <point x="1411.9" y="1500"/>
      <point x="1002.2" y="1500" type="curve" smooth="yes"/>
      <point x="518.9" y="1500"/>
      <point x="174.6" y="1117"/>
      <point x="174.6" y="597" type="curve" smooth="yes"/>
      <point x="174.6" y="76"/>
      <point x="474.8" y="-231"/>
    </contour>
    <contour>
      <point x="890.6" y="294" type="curve" smooth="yes"/>
      <point x="781.7" y="294"/>
      <point x="712.4" y="368"/>
      <point x="712.4" y="567" type="curve" smooth="yes"/>
      <point x="712.4" y="784"/>
      <point x="825.8" y="993"/>
      <point x="1010.3" y="993" type="curve" smooth="yes"/>
      <point x="1057.1" y="993"/>
      <point x="1199.5" y="966"/>
      <point x="1236.4" y="952" type="curve"/>
      <point x="1177.1" y="1036" type="line"/>
      <point x="1171.1" y="973"/>
      <point x="1133.6" y="749"/>
      <point x="1125.5" y="687" type="curve"/>
      <point x="1101.2" y="477"/>
      <point x="1036.4" y="294"/>
    </contour>
  </outline>
</glyph>
<glyph name="A" format="1">
  <advance width="1200"/>
  <unicode hex="0041"/>
  <outline>
    <contour>
      <point x="21" y="0" type="line"/>
      <point x="143" y="0" type="line"/>
      <point x="334" y="534" type="line"/>
      <point x="283" y="493" type="line"/>
      <point x="930" y="493" type="line"/>
      <point x="877" y="532" type="line"/>
      <point x="1062" y="0" type="line"/>
      <point x="1179" y="0" type="line"/>
      <point x="658" y="1449" type="line"/>
      <point x="540" y="1449" type="line"/>
    </contour>
    <contour>
      <point x="337" y="544" type="line"/>
      <point x="624" y="1378" type="line"/>
      <point x="576.5" y="1380" type="line"/>
      <point x="875" y="544" type="line"/>
      <point x="907" y="582" type="line"/>
      <point x="309" y="582" type="line"/>
    </contour>
  </outline>
</glyph>
<glyph name="B" format="1">
  <advance width="1318"/>
  <unicode hex="0042"/>
  <outline>
    <contour>
      <point x="194.4" y="0" type="line"/>
      <point x="724.4" y="0" type="line" smooth="yes"/>
      <point x="1048.4" y="0"/>
      <point x="1191.1" y="163"/>
      <point x="1191.1" y="402" type="curve" smooth="yes"/>
      <point x="1191.1" y="622"/>
      <point x="1050.2" y="743"/>
      <point x="818" y="776" type="curve"/>
      <point x="818" y="738" type="line"/>
      <point x="1070.1" y="797"/>
      <point x="1130.1" y="919"/>
      <point x="1130.1" y="1097" type="curve" smooth="yes"/>
      <point x="1130.1" y="1333"/>
      <point x="979.1" y="1449"/>
      <point x="633.4" y="1449" type="curve" smooth="yes"/>
      <point x="194.4" y="1449" type="line"/>
    </contour>
    <contour>
      <point x="270.4" y="94" type="line"/>
      <point x="316.4" y="47" type="line"/>
      <point x="316.4" y="752" type="line"/>
      <point x="269.4" y="715" type="line"/>
      <point x="633.4" y="715" type="line" smooth="yes"/>
      <point x="930.5" y="715"/>
      <point x="1069.1" y="641"/>
      <point x="1069.1" y="400" type="curve" smooth="yes"/>
      <point x="1069.1" y="181"/>
      <point x="962" y="94"/>
      <point x="707.4" y="94" type="curve" smooth="yes"/>
    </contour>
    <contour>
      <point x="268.4" y="809" type="line"/>
      <point x="316.4" y="773" type="line"/>
      <point x="316.4" y="1400" type="line"/>
      <point x="271.4" y="1355" type="line"/>
      <point x="646.4" y="1355" type="line" smooth="yes"/>
      <point x="902.6" y="1355"/>
      <point x="1021.4" y="1302"/>
      <point x="1021.4" y="1085" type="curve" smooth="yes"/>
      <point x="1021.4" y="857"/>
      <point x="892.7" y="809"/>
      <point x="707.4" y="809" type="curve" smooth="yes"/>
    </contour>
  </outline>
</glyph>
<glyph name="C" format="1">
  <advance width="1229"/>
  <unicode hex="0043"/>
  <outline>
    <contour>
      <point x="765.5" y="-19" type="curve" smooth="yes"/>
      <point x="975.476" y="-19"/>
      <point x="1102.48" y="52"/>
      <point x="1126.48" y="67" type="curve"/>
      <point x="1091.48" y="157" type="line"/>
      <point x="1057.48" y="141"/>
      <point x="947.476" y="77"/>
      <point x="778.1" y="77" type="curve" smooth="yes"/>
      <point x="430.7" y="77"/>
      <point x="250.7" y="364"/>
      <point x="250.7" y="722" type="curve" smooth="yes"/>
      <point x="250.7" y="1080"/>
      <point x="421.7" y="1372"/>
      <point x="764.6" y="1372" type="curve" smooth="yes"/>
      <point x="878" y="1372"/>
      <point x="1001.48" y="1336"/>
      <point x="1088.48" y="1279" type="curve"/>
      <point x="1137.48" y="1356" type="line"/>
      <point x="1054.48" y="1420"/>
      <point x="916.476" y="1468"/>
      <point x="752" y="1468" type="curve" smooth="yes"/>
      <point x="354.2" y="1468"/>
      <point x="128.7" y="1139"/>
      <point x="128.7" y="729" type="curve" smooth="yes"/>
      <point x="128.7" y="284"/>
      <point x="392.9" y="-19"/>
    </contour>
  </outline>
</glyph>
<glyph name="D" format="1">
  <advance width="1449"/>
  <unicode hex="0044"/>
  <outline>
    <contour>
      <point x="316.4" y="44" type="line"/>
      <point x="316.4" y="1405" type="line"/>
      <point x="265.4" y="1355" type="line"/>
      <point x="568.176" y="1355" type="line" smooth="yes"/>
      <point x="943.476" y="1355"/>
      <point x="1177.25" y="1184"/>
      <point x="1177.25" y="722" type="curve" smooth="yes"/>
      <point x="1177.25" y="301"/>
      <point x="977.676" y="94"/>
      <point x="592.476" y="94" type="curve" smooth="yes"/>
      <point x="265.4" y="94" type="line"/>
    </contour>
    <contour>
      <point x="194.4" y="0" type="line"/>
      <point x="610.476" y="0" type="line" smooth="yes"/>
      <point x="1024.48" y="0"/>
      <point x="1299.25" y="245"/>
      <point x="1299.25" y="727" type="curve" smooth="yes"/>
      <point x="1299.25" y="1237"/>
      <point x="995.676" y="1449"/>
      <point x="582.576" y="1449" type="curve" smooth="yes"/>
      <point x="194.4" y="1449" type="line"/>
    </contour>
  </outline>
</glyph>
<glyph name="E" format="1">
  <advance width="1099"/>
  <unicode hex="0045"/>
  <outline>
    <contour>
      <point x="194.4" y="0" type="line"/>
      <point x="1010.35" y="0" type="line"/>
      <point x="1019.35" y="94" type="line"/>
      <point x="272.4" y="94" type="line"/>
      <point x="316.4" y="49" type="line"/>
      <point x="316.4" y="733" type="line"/>
      <point x="272.4" y="698" type="line"/>
      <point x="939.352" y="698" type="line"/>
      <point x="939.352" y="792" type="line"/>
      <point x="272.4" y="792" type="line"/>
      <point x="316.4" y="751" type="line"/>
      <point x="316.4" y="1393" type="line"/>
      <point x="274.4" y="1355" type="line"/>
      <point x="1015.35" y="1355" type="line"/>
      <point x="1019.35" y="1449" type="line"/>
      <point x="194.4" y="1449" type="line"/>
    </contour>
  </outline>
</glyph>
<glyph name="F" format="1">
  <advance width="1031"/>
  <unicode hex="0046"/>
  <outline>
    <contour>
      <point x="194.4" y="0" type="line"/>
      <point x="316" y="0" type="line"/>
      <point x="316" y="717" type="line"/>
      <point x="269.4" y="684" type="line"/>
      <point x="897.852" y="684" type="line"/>
      <point x="897.852" y="773" type="line"/>
      <point x="262.4" y="773" type="line"/>
      <point x="316" y="733" type="line"/>
      <point x="316" y="1407" type="line"/>
      <point x="262.4" y="1355" type="line"/>
      <point x="942.852" y="1355" type="line"/>
      <point x="951.852" y="1449" type="line"/>
      <point x="194.4" y="1449" type="line"/>
    </contour>
  </outline>
</glyph>
<glyph name="G" format="1">
  <advance width="1385"/>
  <unicode hex="0047"/>
  <outline>
    <contour>
      <point x="758.3" y="-19" type="curve" smooth="yes"/>
      <point x="936.5" y="-19"/>
      <point x="1085.38" y="12"/>
      <point x="1228.38" y="64" type="curve"/>
      <point x="1228.38" y="723" type="line"/>
      <point x="801.5" y="723" type="line"/>
      <point x="792.5" y="617" type="line"/>
      <point x="1158.38" y="617" type="line"/>
      <point x="1106.38" y="669" type="line"/>
      <point x="1106.38" y="75" type="line"/>
      <point x="1147.38" y="133" type="line"/>
      <point x="1091.38" y="113"/>
      <point x="939.2" y="77"/>
      <point x="793.4" y="77" type="curve" smooth="yes"/>
      <point x="401.9" y="77"/>
      <point x="249.8" y="335"/>
      <point x="249.8" y="720" type="curve" smooth="yes"/>
      <point x="249.8" y="1080"/>
      <point x="439.7" y="1372"/>
      <point x="779.9" y="1372" type="curve" smooth="yes"/>
      <point x="1014.38" y="1372"/>
      <point x="1102.38" y="1291"/>
      <point x="1153.38" y="1259" type="curve"/>
      <point x="1184.38" y="1354" type="line"/>
      <point x="1079.38" y="1439"/>
      <point x="932" y="1468"/>
      <point x="783.5" y="1468" type="curve" smooth="yes"/>
      <point x="369.5" y="1468"/>
      <point x="127.8" y="1134"/>
      <point x="127.8" y="719" type="curve" smooth="yes"/>
      <point x="127.8" y="306"/>
      <point x="342.5" y="-19"/>
    </contour>
  </outline>
</glyph>
<glyph name="H" format="1">
  <advance width="1395"/>
  <unicode hex="0048"/>
  <outline>
    <contour>
      <point x="191.7" y="0" type="line"/>
      <point x="313.7" y="0" type="line"/>
      <point x="313.7" y="736" type="line"/>
      <point x="258.7" y="701" type="line"/>
      <point x="1120.7" y="701" type="line"/>
      <point x="1060.7" y="736" type="line"/>
      <point x="1060.7" y="0" type="line"/>
      <point x="1182.7" y="0" type="line"/>
      <point x="1182.7" y="1449" type="line"/>
      <point x="1060.7" y="1449" type="line"/>
      <point x="1060.7" y="752" type="line"/>
      <point x="1118.7" y="788" type="line"/>
      <point x="258.7" y="788" type="line"/>
      <point x="313.7" y="752" type="line"/>
      <point x="313.7" y="1449" type="line"/>
      <point x="191.7" y="1449" type="line"/>
    </contour>
  </outline>
</glyph>
<glyph name="I" format="1">
  <advance width="744"/>
  <unicode hex="0049"/>
  <outline>
    <contour>
      <point x="102.6" y="1449" type="line"/>
      <point x="102.6" y="1372" type="line"/>
      <point x="343.6" y="1372" type="line"/>
      <point x="306.6" y="1412" type="line"/>
      <point x="306.6" y="31" type="line"/>
      <point x="348.6" y="77" type="line"/>
      <point x="102.6" y="77" type="line"/>
      <point x="102.6" y="0" type="line"/>
      <point x="631.6" y="0" type="line"/>
      <point x="631.6" y="77" type="line"/>
      <point x="386.6" y="77" type="line"/>
      <point x="428.6" y="33" type="line"/>
      <point x="428.6" y="1410" type="line"/>
      <point x="390.6" y="1372" type="line"/>
      <point x="631.6" y="1372" type="line"/>
      <point x="631.6" y="1449" type="line"/>
    </contour>
  </outline>
</glyph>
<glyph name="J" format="1">
  <advance width="682"/>
  <unicode hex="004A"/>
  <outline>
    <contour>
      <point x="78.2998" y="-140" type="line" smooth="yes"/>
      <point x="406.3" y="-140"/>
      <point x="487.3" y="0"/>
      <point x="487.3" y="287" type="curve" smooth="yes"/>
      <point x="487.3" y="1449" type="line"/>
      <point x="365.3" y="1449" type="line"/>
      <point x="365.3" y="255" type="line" smooth="yes"/>
      <point x="365.3" y="26"/>
      <point x="294.3" y="-40"/>
      <point x="78.2998" y="-40" type="curve" smooth="yes"/>
      <point x="6.2998" y="-40" type="line"/>
      <point x="6.2998" y="-140" type="line"/>
    </contour>
  </outline>
</glyph>
<glyph name="K" format="1">
  <advance width="1189"/>
  <unicode hex="004B"/>
  <outline>
    <contour>
      <point x="194.4" y="0" type="line"/>
      <point x="316.4" y="0" type="line"/>
      <point x="316.4" y="655" type="line"/>
      <point x="270.4" y="559" type="line"/>
      <point x="472.1" y="768" type="line"/>
      <point x="410.9" y="770" type="line"/>
      <point x="973.4" y="0" type="line"/>
      <point x="1119.4" y="0" type="line"/>
      <point x="486.5" y="845" type="line"/>
      <point x="486.5" y="780" type="line"/>
      <point x="1089.4" y="1449" type="line"/>
      <point x="948.2" y="1449" type="line"/>
      <point x="274.4" y="690" type="line"/>
      <point x="316.4" y="680" type="line"/>
      <point x="316.4" y="1449" type="line"/>
      <point x="194.4" y="1449" type="line"/>
    </contour>
  </outline>
</glyph>
<glyph name="L" format="1">
  <advance width="1056"/>
  <unicode hex="004C"/>
  <outline>
    <contour>
      <point x="194.4" y="0" type="line"/>
      <point x="975.252" y="0" type="line"/>
      <point x="975.252" y="94" type="line"/>
      <point x="259.4" y="94" type="line"/>
      <point x="316.4" y="35" type="line"/>
      <point x="316.4" y="1449" type="line"/>
      <point x="194.4" y="1449" type="line"/>
    </contour>
  </outline>
</glyph>
<glyph name="M" format="1">
  <advance width="1652"/>
  <unicode hex="004D"/>
  <outline>
    <contour>
      <point x="174.6" y="0" type="line"/>
      <point x="288.6" y="0" type="line"/>
      <point x="303" y="1070" type="line"/>
      <point x="303" y="1417" type="line"/>
      <point x="279.6" y="1417" type="line"/>
      <point x="762" y="145" type="line"/>
      <point x="872.7" y="145" type="line"/>
      <point x="1363.8" y="1417" type="line"/>
      <point x="1330.8" y="1417" type="line"/>
      <point x="1330.8" y="1074" type="line"/>
      <point x="1346.8" y="0" type="line"/>
      <point x="1458.8" y="0" type="line"/>
      <point x="1432.8" y="1449" type="line"/>
      <point x="1266.9" y="1449" type="line"/>
      <point x="791.7" y="193" type="line"/>
      <point x="844.8" y="193" type="line"/>
      <point x="370.5" y="1449" type="line"/>
      <point x="198.6" y="1449" type="line"/>
    </contour>
  </outline>
</glyph>
<glyph name="N" format="1">
  <advance width="1443"/>
  <unicode hex="004E"/>
  <outline>
    <contour>
      <point x="194.4" y="0" type="line"/>
      <point x="299.4" y="0" type="line"/>
      <point x="299.4" y="903" type="line"/>
      <point x="286.4" y="1372" type="line"/>
      <point x="251.4" y="1350" type="line"/>
      <point x="1112.1" y="0" type="line"/>
      <point x="1227.1" y="0" type="line"/>
      <point x="1227.1" y="1449" type="line"/>
      <point x="1123.1" y="1449" type="line"/>
      <point x="1123.1" y="532" type="line"/>
      <point x="1131.1" y="86" type="line"/>
      <point x="1171.1" y="91" type="line"/>
      <point x="304.8" y="1449" type="line"/>
      <point x="194.4" y="1449" type="line"/>
    </contour>
  </outline>
</glyph>
<glyph name="O" format="1">
  <advance width="1546"/>
  <unicode hex="004F"/>
  <outline>
    <contour>
      <point x="767.076" y="77" type="curve" smooth="yes"/>
      <point x="409.776" y="77"/>
      <point x="250.7" y="342"/>
      <point x="250.7" y="713" type="curve" smooth="yes"/>
      <point x="250.7" y="1104"/>
      <point x="423.276" y="1372"/>
      <point x="768.876" y="1372" type="curve" smooth="yes"/>
      <point x="1115.38" y="1372"/>
      <point x="1281.65" y="1101"/>
      <point x="1281.65" y="713" type="curve" smooth="yes"/>
      <point x="1281.65" y="342"/>
      <point x="1124.38" y="77"/>
    </contour>
    <contour>
      <point x="768.876" y="-19" type="curve" smooth="yes"/>
      <point x="1179.65" y="-19"/>
      <point x="1403.65" y="286"/>
      <point x="1403.65" y="710" type="curve" smooth="yes"/>
      <point x="1403.65" y="1158"/>
      <point x="1163.65" y="1468"/>
      <point x="769.776" y="1468" type="curve" smooth="yes"/>
      <point x="363.7" y="1468"/>
      <point x="128.7" y="1163"/>
      <point x="128.7" y="713" type="curve" smooth="yes"/>
      <point x="128.7" y="278"/>
      <point x="350.7" y="-19"/>
    </contour>
  </outline>
</glyph>
<glyph name="P" format="1">
  <advance width="1158"/>
  <unicode hex="0050"/>
  <outline>
    <contour>
      <point x="194.4" y="0" type="line"/>
      <point x="316.4" y="0" type="line"/>
      <point x="316.4" y="756" type="line"/>
      <point x="259.4" y="715" type="line"/>
      <point x="639.276" y="715" type="line" smooth="yes"/>
      <point x="916.476" y="715"/>
      <point x="1049.28" y="847"/>
      <point x="1049.28" y="1101" type="curve" smooth="yes"/>
      <point x="1049.28" y="1349"/>
      <point x="871.476" y="1449"/>
      <point x="643.776" y="1449" type="curve" smooth="yes"/>
      <point x="194.4" y="1449" type="line"/>
    </contour>
    <contour>
      <point x="645.576" y="809" type="curve" smooth="yes"/>
      <point x="258.4" y="809" type="line"/>
      <point x="316.4" y="771" type="line"/>
      <point x="316.4" y="1409" type="line"/>
      <point x="258.4" y="1355" type="line"/>
      <point x="641.976" y="1355" type="line" smooth="yes"/>
      <point x="808.476" y="1355"/>
      <point x="927.276" y="1296"/>
      <point x="927.276" y="1102" type="curve" smooth="yes"/>
      <point x="927.276" y="877"/>
      <point x="839.076" y="809"/>
    </contour>
  </outline>
</glyph>
<glyph name="Q" format="1">
  <advance width="1513"/>
  <unicode hex="0051"/>
  <outline>
    <component base="O"/>
    <contour>
      <point x="1141.2" y="-409" type="curve"/>
      <point x="1206.83" y="-343" type="line"/>
      <point x="1129.5" y="-260"/>
      <point x="1006.2" y="-91"/>
      <point x="959.4" y="21" type="curve"/>
      <point x="872.1" y="9" type="line"/>
      <point x="954" y="-170"/>
      <point x="1095.3" y="-351"/>
    </contour>
  </outline>
</glyph>
<glyph name="R" format="1">
  <advance width="1313"/>
  <unicode hex="0052"/>
  <outline>
    <contour>
      <point x="194.4" y="0" type="line"/>
      <point x="316.4" y="0" type="line"/>
      <point x="316.4" y="765" type="line"/>
      <point x="259.4" y="722" type="line"/>
      <point x="827.6" y="722" type="line"/>
      <point x="754.7" y="778" type="line"/>
      <point x="867.2" y="505" type="line"/>
      <point x="1058.9" y="0" type="line"/>
      <point x="1182.9" y="0" type="line"/>
      <point x="948.2" y="556" type="line"/>
      <point x="856.4" y="805" type="line"/>
      <point x="851.9" y="734" type="line"/>
      <point x="1031" y="767"/>
      <point x="1121.9" y="879"/>
      <point x="1121.9" y="1094" type="curve" smooth="yes"/>
      <point x="1121.9" y="1319"/>
      <point x="1013" y="1449"/>
      <point x="746.6" y="1449" type="curve" smooth="yes"/>
      <point x="194.4" y="1449" type="line"/>
    </contour>
    <contour>
      <point x="316.4" y="776" type="line"/>
      <point x="316.4" y="1407" type="line"/>
      <point x="257.4" y="1355" type="line"/>
      <point x="744.8" y="1355" type="line" smooth="yes"/>
      <point x="950.9" y="1355"/>
      <point x="1010.3" y="1259"/>
      <point x="1010.3" y="1092" type="curve" smooth="yes"/>
      <point x="1010.3" y="892"/>
      <point x="960.8" y="819"/>
      <point x="709.7" y="819" type="curve" smooth="yes"/>
      <point x="259.4" y="819" type="line"/>
    </contour>
  </outline>
</glyph>
<glyph name="S" format="1">
  <advance width="1129"/>
  <unicode hex="0053"/>
  <outline>
    <contour>
      <point x="554.3" y="-19" type="curve" smooth="yes"/>
      <point x="788.996" y="-19"/>
      <point x="994" y="73"/>
      <point x="1010" y="364" type="curve" smooth="yes"/>
      <point x="1024" y="621"/>
      <point x="851" y="694"/>
      <point x="669" y="771" type="curve" smooth="yes"/>
      <point x="460" y="864" type="line" smooth="yes"/>
      <point x="307" y="932"/>
      <point x="261.8" y="970"/>
      <point x="261.8" y="1118" type="curve" smooth="yes"/>
      <point x="261.8" y="1315"/>
      <point x="430.1" y="1372"/>
      <point x="578.6" y="1372" type="curve" smooth="yes"/>
      <point x="739.7" y="1372"/>
      <point x="860.996" y="1287"/>
      <point x="889.996" y="1267" type="curve"/>
      <point x="945.996" y="1343" type="line"/>
      <point x="881.996" y="1398"/>
      <point x="737" y="1468"/>
      <point x="590.3" y="1468" type="curve" smooth="yes"/>
      <point x="391.4" y="1468"/>
      <point x="151.8" y="1393"/>
      <point x="151.8" y="1107" type="curve" smooth="yes"/>
      <point x="151.8" y="908"/>
      <point x="263" y="840"/>
      <point x="432" y="766" type="curve" smooth="yes"/>
      <point x="645" y="673" type="line" smooth="yes"/>
      <point x="848" y="588"/>
      <point x="908.996" y="532"/>
      <point x="901.996" y="363" type="curve"/>
      <point x="891.996" y="156"/>
      <point x="762.2" y="77"/>
      <point x="558.8" y="77" type="curve" smooth="yes"/>
      <point x="379.7" y="77"/>
      <point x="279.8" y="145"/>
      <point x="184.8" y="219" type="curve"/>
      <point x="136.8" y="134" type="line"/>
      <point x="186.8" y="90"/>
      <point x="306.8" y="-19"/>
    </contour>
  </outline>
</glyph>
<glyph name="T" format="1">
  <advance width="1077"/>
  <unicode hex="0054"/>
  <outline>
    <contour>
      <point x="478" y="0" type="line"/>
      <point x="600" y="0" type="line"/>
      <point x="600" y="1407" type="line"/>
      <point x="549.276" y="1361" type="line"/>
      <point x="1021.15" y="1361" type="line"/>
      <point x="1021.15" y="1449" type="line"/>
      <point x="50.4004" y="1449" type="line"/>
      <point x="50.4004" y="1361" type="line"/>
      <point x="516.876" y="1361" type="line"/>
      <point x="478" y="1405" type="line"/>
    </contour>
  </outline>
</glyph>
<glyph name="U" format="1">
  <advance width="1360"/>
  <unicode hex="0055"/>
  <outline>
    <contour>
      <point x="672.8" y="-19" type="curve" smooth="yes"/>
      <point x="1026.5" y="-19"/>
      <point x="1189.9" y="225"/>
      <point x="1189.9" y="534" type="curve" smooth="yes"/>
      <point x="1189.9" y="1449" type="line"/>
      <point x="1067.9" y="1449" type="line"/>
      <point x="1067.9" y="533" type="line" smooth="yes"/>
      <point x="1067.9" y="238"/>
      <point x="937.4" y="77"/>
      <point x="672.8" y="77" type="curve" smooth="yes"/>
      <point x="393.8" y="77"/>
      <point x="275.9" y="239"/>
      <point x="275.9" y="534" type="curve" smooth="yes"/>
      <point x="275.9" y="1449" type="line"/>
      <point x="153.9" y="1449" type="line"/>
      <point x="153.9" y="537" type="line" smooth="yes"/>
      <point x="153.9" y="216"/>
      <point x="314.6" y="-19"/>
    </contour>
  </outline>
</glyph>
<glyph name="V" format="1">
  <advance width="1270"/>
  <unicode hex="0056"/>
  <outline>
    <contour>
      <point x="598.776" y="0" type="line"/>
      <point x="672.776" y="0" type="line"/>
      <point x="1198.45" y="1449" type="line"/>
      <point x="1077.45" y="1449" type="line"/>
      <point x="747.476" y="487" type="line"/>
      <point x="605.776" y="96" type="line"/>
      <point x="663.776" y="96" type="line"/>
      <point x="523.176" y="482" type="line"/>
      <point x="186.8" y="1449" type="line"/>
      <point x="64.7998" y="1449" type="line"/>
    </contour>
  </outline>
</glyph>
<glyph name="W" format="1">
  <advance width="1994"/>
  <unicode hex="0057"/>
  <outline>
    <contour>
      <point x="518.8" y="0" type="line"/>
      <point x="636.8" y="0" type="line"/>
      <point x="1019.3" y="1361" type="line"/>
      <point x="974.3" y="1361" type="line"/>
      <point x="1355" y="0" type="line"/>
      <point x="1477" y="0" type="line"/>
      <point x="1932" y="1448" type="line"/>
      <point x="1816" y="1448" type="line"/>
      <point x="1396" y="81" type="line"/>
      <point x="1439" y="81" type="line"/>
      <point x="1051.7" y="1407" type="line"/>
      <point x="938.3" y="1407" type="line"/>
      <point x="557.8" y="79" type="line"/>
      <point x="599.8" y="79" type="line"/>
      <point x="168.8" y="1448" type="line"/>
      <point x="55.7998" y="1448" type="line"/>
    </contour>
  </outline>
</glyph>
<glyph name="X" format="1">
  <advance width="1233"/>
  <unicode hex="0058"/>
  <outline>
    <contour>
      <point x="134.9" y="0" type="line"/>
      <point x="247.9" y="0" type="line"/>
      <point x="622.3" y="666" type="line"/>
      <point x="667.3" y="696" type="line"/>
      <point x="1102.8" y="1449" type="line"/>
      <point x="984.1" y="1449" type="line"/>
      <point x="616.9" y="780" type="line"/>
      <point x="565.6" y="737" type="line"/>
    </contour>
    <contour>
      <point x="995.8" y="0" type="line"/>
      <point x="1102.8" y="0" type="line"/>
      <point x="228.9" y="1449" type="line"/>
      <point x="117.9" y="1449" type="line"/>
    </contour>
  </outline>
</glyph>
<glyph name="Y" format="1">
  <advance width="1208"/>
  <unicode hex="0059"/>
  <outline>
    <contour>
      <point x="560" y="0" type="line"/>
      <point x="682" y="0" type="line"/>
      <point x="682" y="668" type="line"/>
      <point x="638.4" y="536" type="line"/>
      <point x="1146.4" y="1449" type="line"/>
      <point x="1032.4" y="1449" type="line"/>
      <point x="598.8" y="662" type="line"/>
      <point x="643.4" y="662" type="line"/>
      <point x="168.8" y="1449" type="line"/>
      <point x="55.7998" y="1449" type="line"/>
      <point x="607.8" y="530" type="line"/>
      <point x="560" y="669" type="line"/>
    </contour>
  </outline>
</glyph>
<glyph name="Z" format="1">
  <advance width="1154"/>
  <unicode hex="005A"/>
  <outline>
    <contour>
      <point x="133.2" y="0" type="line"/>
      <point x="1020.95" y="0" type="line"/>
      <point x="1031.95" y="94" type="line"/>
      <point x="203.2" y="94" type="line"/>
      <point x="223.2" y="47" type="line"/>
      <point x="1025.95" y="1360" type="line"/>
      <point x="1015.95" y="1449" type="line"/>
      <point x="177.2" y="1449" type="line"/>
      <point x="177.2" y="1355" type="line"/>
      <point x="948.952" y="1355" type="line"/>
      <point x="919.952" y="1388" type="line"/>
      <point x="133.2" y="100" type="line"/>
    </contour>
  </outline>
</glyph>
<glyph name="bracketleft" format="1">
  <advance width="637"/>
  <unicode hex="005B"/>
  <outline>
    <contour>
      <point x="165.6" y="-307" type="line"/>
      <point x="165.6" y="1449" type="line"/>
      <point x="592.6" y="1449" type="line"/>
      <point x="592.6" y="1361" type="line"/>
      <point x="265.6" y="1361" type="line"/>
      <point x="265.6" y="-221" type="line"/>
      <point x="592.6" y="-221" type="line"/>
      <point x="592.6" y="-307" type="line"/>
    </contour>
  </outline>
</glyph>
<glyph name="backslash" format="1">
  <advance width="925"/>
  <unicode hex="005C"/>
  <outline>
    <contour>
      <point x="683.352" y="-60" type="line"/>
      <point x="122.4" y="1449" type="line"/>
      <point x="205.4" y="1449" type="line"/>
      <point x="767.352" y="-60" type="line"/>
    </contour>
  </outline>
</glyph>
<glyph name="bracketright" format="1">
  <advance width="625"/>
  <unicode hex="005D"/>
  <outline>
    <contour>
      <point x="33.2998" y="-307" type="line"/>
      <point x="33.2998" y="-221" type="line"/>
      <point x="361.3" y="-221" type="line"/>
      <point x="361.3" y="1361" type="line"/>
      <point x="33.2998" y="1361" type="line"/>
      <point x="33.2998" y="1449" type="line"/>
      <point x="459.3" y="1449" type="line"/>
      <point x="459.3" y="-307" type="line"/>
    </contour>
  </outline>
</glyph>
<glyph name="asciicircum" format="1">
  <advance width="1263"/>
  <unicode hex="005E"/>
  <outline>
    <contour>
      <point x="175.5" y="606" type="line"/>
      <point x="578.976" y="1500" type="line"/>
      <point x="645.576" y="1500" type="line"/>
      <point x="1069.75" y="606" type="line"/>
      <point x="981.752" y="606" type="line"/>
      <point x="614.076" y="1398" type="line"/>
      <point x="260.5" y="606" type="line"/>
    </contour>
  </outline>
</glyph>
<glyph name="underscore" format="1">
  <advance width="1028"/>
  <unicode hex="005F"/>
  <outline>
    <contour>
      <point x="88.2002" y="-292" type="line"/>
      <point x="918.552" y="-292" type="line"/>
      <point x="918.552" y="-202" type="line"/>
      <point x="88.2002" y="-202" type="line"/>
    </contour>
  </outline>
</glyph>
<glyph name="grave" format="1">
  <advance width="715"/>
  <unicode hex="0060"/>
  <outline>
    <contour>
      <point x="439.5" y="1258" type="line"/>
      <point x="498.5" y="1258" type="line"/>
      <point x="326.5" y="1630" type="line"/>
      <point x="193.5" y="1630" type="line"/>
    </contour>
  </outline>
</glyph>
<glyph name="a" format="1">
  <advance width="1081"/>
  <unicode hex="0061"/>
  <outline>
    <contour>
      <point x="430.476" y="-15" type="curve" smooth="yes"/>
      <point x="546.576" y="-15"/>
      <point x="703.452" y="17"/>
      <point x="835.452" y="212" type="curve"/>
      <point x="800.452" y="212" type="line"/>
      <point x="824.452" y="1" type="line"/>
      <point x="910.452" y="1" type="line"/>
      <point x="910.452" y="702" type="line" smooth="yes"/>
      <point x="910.452" y="982"/>
      <point x="743.452" y="1075"/>
      <point x="520.476" y="1075" type="curve" smooth="yes"/>
      <point x="411.576" y="1075"/>
      <point x="264.8" y="1036"/>
      <point x="178.8" y="988" type="curve"/>
      <point x="217.8" y="901" type="line"/>
      <point x="312.8" y="953"/>
      <point x="443.076" y="983"/>
      <point x="540.276" y="983" type="curve" smooth="yes"/>
      <point x="709.452" y="983"/>
      <point x="791.452" y="886"/>
      <point x="791.452" y="723" type="curve" smooth="yes"/>
      <point x="791.452" y="582" type="line"/>
      <point x="823.452" y="617" type="line"/>
      <point x="595.176" y="617" type="line" smooth="yes"/>
      <point x="257.8" y="617"/>
      <point x="109.8" y="498"/>
      <point x="109.8" y="274" type="curve" smooth="yes"/>
      <point x="109.8" y="87"/>
      <point x="245.8" y="-15"/>
    </contour>
    <contour>
      <point x="420.576" y="77" type="curve" smooth="yes"/>
      <point x="331.8" y="77"/>
      <point x="229.8" y="135"/>
      <point x="229.8" y="275" type="curve" smooth="yes"/>
      <point x="229.8" y="441"/>
      <point x="297.8" y="535"/>
      <point x="614.976" y="535" type="curve" smooth="yes"/>
      <point x="823.452" y="535" type="line"/>
      <point x="791.452" y="569" type="line"/>
      <point x="791.452" y="236" type="line"/>
      <point x="823.452" y="352" type="line"/>
      <point x="714.452" y="143"/>
      <point x="576.276" y="77"/>
    </contour>
  </outline>
</glyph>
<glyph name="b" format="1">
  <advance width="1190"/>
  <unicode hex="0062"/>
  <outline>
    <contour>
      <point x="621.276" y="-19" type="curve" smooth="yes"/>
      <point x="906.252" y="-19"/>
      <point x="1065.25" y="193"/>
      <point x="1065.25" y="520" type="curve" smooth="yes"/>
      <point x="1065.25" y="856"/>
      <point x="919.252" y="1074"/>
      <point x="629.376" y="1074" type="curve" smooth="yes"/>
      <point x="465.576" y="1074"/>
      <point x="320.8" y="958"/>
      <point x="256.8" y="799" type="curve"/>
      <point x="288.8" y="799" type="line"/>
      <point x="288.8" y="1054" type="line"/>
      <point x="288.8" y="1489" type="line"/>
      <point x="163.8" y="1479" type="line"/>
      <point x="163.8" y="0" type="line"/>
      <point x="257.8" y="0" type="line"/>
      <point x="275.8" y="314" type="line"/>
      <point x="227.8" y="311" type="line"/>
      <point x="267.8" y="183"/>
      <point x="396.8" y="-19"/>
    </contour>
    <contour>
      <point x="625.776" y="73" type="curve" smooth="yes"/>
      <point x="422.376" y="73"/>
      <point x="285.8" y="238"/>
      <point x="285.8" y="541" type="curve"/>
      <point x="284.8" y="790"/>
      <point x="390.8" y="982"/>
      <point x="633.876" y="982" type="curve" smooth="yes"/>
      <point x="864.252" y="982"/>
      <point x="943.252" y="775"/>
      <point x="943.252" y="522" type="curve" smooth="yes"/>
      <point x="943.252" y="257"/>
      <point x="851.252" y="73"/>
    </contour>
  </outline>
</glyph>
<glyph name="c" format="1">
  <advance width="947"/>
  <unicode hex="0063"/>
  <outline>
    <contour>
      <point x="576.276" y="-19" type="curve" smooth="yes"/>
      <point x="692.852" y="-19"/>
      <point x="803.852" y="16"/>
      <point x="843.852" y="49" type="curve"/>
      <point x="813.852" y="127" type="line"/>
      <point x="768.852" y="101"/>
      <point x="677.852" y="73"/>
      <point x="591.576" y="73" type="curve" smooth="yes"/>
      <point x="346.9" y="73"/>
      <point x="228.9" y="284"/>
      <point x="228.9" y="517" type="curve" smooth="yes"/>
      <point x="228.9" y="791"/>
      <point x="377.376" y="982"/>
      <point x="587.076" y="982" type="curve" smooth="yes"/>
      <point x="719.852" y="982"/>
      <point x="803.852" y="926"/>
      <point x="803.852" y="926" type="curve"/>
      <point x="843.852" y="1008" type="line"/>
      <point x="843.852" y="1008"/>
      <point x="745.852" y="1074"/>
      <point x="576.276" y="1074" type="curve" smooth="yes"/>
      <point x="313.9" y="1074"/>
      <point x="108.9" y="839"/>
      <point x="108.9" y="517" type="curve" smooth="yes"/>
      <point x="108.9" y="218"/>
      <point x="299.9" y="-19"/>
    </contour>
  </outline>
</glyph>
<glyph name="d" format="1">
  <advance width="1153"/>
  <unicode hex="0064"/>
  <outline>
    <contour>
      <point x="536.9" y="-19" type="curve" smooth="yes"/>
      <point x="748.4" y="-19"/>
      <point x="849.2" y="143"/>
      <point x="900.4" y="312" type="curve"/>
      <point x="864.4" y="317" type="line"/>
      <point x="880.4" y="0" type="line"/>
      <point x="978.4" y="0" type="line"/>
      <point x="978.4" y="1489" type="line"/>
      <point x="856.4" y="1479" type="line"/>
      <point x="856.4" y="1142" type="line"/>
      <point x="868.4" y="761" type="line"/>
      <point x="899.4" y="766" type="line"/>
      <point x="836.6" y="920"/>
      <point x="762.8" y="1074"/>
      <point x="533.3" y="1074" type="curve" smooth="yes"/>
      <point x="275" y="1074"/>
      <point x="108.9" y="853"/>
      <point x="108.9" y="534" type="curve" smooth="yes"/>
      <point x="108.9" y="198"/>
      <point x="260.6" y="-19"/>
    </contour>
    <contour>
      <point x="532.4" y="73" type="curve" smooth="yes"/>
      <point x="309.2" y="73"/>
      <point x="230.9" y="279"/>
      <point x="230.9" y="532" type="curve" smooth="yes"/>
      <point x="230.9" y="797"/>
      <point x="320" y="982"/>
      <point x="539.6" y="982" type="curve" smooth="yes"/>
      <point x="740.3" y="982"/>
      <point x="859.4" y="806"/>
      <point x="859.4" y="516" type="curve" smooth="yes"/>
      <point x="859.4" y="267"/>
      <point x="770" y="73"/>
    </contour>
  </outline>
</glyph>
<glyph name="e" format="1">
  <advance width="1081"/>
  <unicode hex="0065"/>
  <outline>
    <contour>
      <point x="578.076" y="-19" type="curve" smooth="yes"/>
      <point x="716.952" y="-19"/>
      <point x="834.952" y="18"/>
      <point x="935.952" y="74" type="curve"/>
      <point x="899.952" y="153" type="line"/>
      <point x="775.952" y="92"/>
      <point x="686.076" y="75"/>
      <point x="592.476" y="75" type="curve" smooth="yes"/>
      <point x="397.176" y="75"/>
      <point x="224.9" y="208"/>
      <point x="224.9" y="547" type="curve"/>
      <point x="183.9" y="517" type="line"/>
      <point x="953.952" y="517" type="line"/>
      <point x="953.952" y="517"/>
      <point x="959.952" y="557"/>
      <point x="959.952" y="588" type="curve" smooth="yes"/>
      <point x="959.952" y="884"/>
      <point x="813.952" y="1074"/>
      <point x="572.676" y="1074" type="curve" smooth="yes"/>
      <point x="336.9" y="1074"/>
      <point x="108.9" y="869"/>
      <point x="108.9" y="519" type="curve" smooth="yes"/>
      <point x="108.9" y="183"/>
      <point x="314.9" y="-19"/>
    </contour>
    <contour>
      <point x="227.9" y="564" type="line"/>
      <point x="239.9" y="807"/>
      <point x="380.076" y="982"/>
      <point x="578.076" y="982" type="curve" smooth="yes"/>
      <point x="770.952" y="982"/>
      <point x="857.952" y="832"/>
      <point x="857.952" y="554" type="curve"/>
      <point x="908.952" y="597" type="line"/>
      <point x="183.9" y="597" type="line"/>
    </contour>
  </outline>
</glyph>
<glyph name="f" format="1">
  <advance width="736"/>
  <unicode hex="0066"/>
  <outline>
    <contour>
      <point x="278.3" y="0" type="line"/>
      <point x="400.3" y="0" type="line"/>
      <point x="400.3" y="1013" type="line"/>
      <point x="357.3" y="983" type="line"/>
      <point x="652.3" y="983" type="line"/>
      <point x="652.3" y="1055" type="line"/>
      <point x="359.3" y="1055" type="line"/>
      <point x="400.3" y="1030" type="line"/>
      <point x="400.3" y="1140" type="line" smooth="yes"/>
      <point x="400.3" y="1369"/>
      <point x="467.3" y="1395"/>
      <point x="574.3" y="1395" type="curve" smooth="yes"/>
      <point x="621.3" y="1395"/>
      <point x="688.3" y="1385"/>
      <point x="688.3" y="1385" type="curve"/>
      <point x="695.3" y="1467" type="line"/>
      <point x="695.3" y="1467"/>
      <point x="630.3" y="1482"/>
      <point x="551.3" y="1482" type="curve" smooth="yes"/>
      <point x="374.3" y="1482"/>
      <point x="278.3" y="1388"/>
      <point x="278.3" y="1135" type="curve" smooth="yes"/>
      <point x="278.3" y="1030" type="line"/>
      <point x="320.3" y="1058" type="line"/>
      <point x="74.2998" y="1038" type="line"/>
      <point x="69.2998" y="983" type="line"/>
      <point x="310.3" y="983" type="line"/>
      <point x="278.3" y="1015" type="line"/>
    </contour>
  </outline>
</glyph>
<glyph name="g" format="1">
  <advance width="1196"/>
  <unicode hex="0067"/>
  <outline>
    <contour>
      <point x="563.676" y="93" type="curve" smooth="yes"/>
      <point x="318.3" y="93"/>
      <point x="227.3" y="349"/>
      <point x="227.3" y="524" type="curve" smooth="yes"/>
      <point x="227.3" y="724"/>
      <point x="317.3" y="982"/>
      <point x="566.376" y="982" type="curve" smooth="yes"/>
      <point x="814.052" y="982"/>
      <point x="909.052" y="800"/>
      <point x="909.052" y="586" type="curve" smooth="yes"/>
      <point x="909.052" y="471" type="line" smooth="yes"/>
      <point x="909.052" y="286"/>
      <point x="803.052" y="93"/>
    </contour>
    <contour>
      <point x="491.676" y="-444" type="curve" smooth="yes"/>
      <point x="893.052" y="-444"/>
      <point x="1031.05" y="-198"/>
      <point x="1031.05" y="95" type="curve" smooth="yes"/>
      <point x="1031.05" y="1055" type="line"/>
      <point x="917.052" y="1055" type="line"/>
      <point x="903.052" y="816" type="line"/>
      <point x="936.052" y="816" type="line"/>
      <point x="886.052" y="962"/>
      <point x="761.676" y="1074"/>
      <point x="573.576" y="1074" type="curve" smooth="yes"/>
      <point x="226.3" y="1074"/>
      <point x="105.3" y="783"/>
      <point x="105.3" y="515" type="curve" smooth="yes"/>
      <point x="105.3" y="292"/>
      <point x="237.3" y="0"/>
      <point x="560.076" y="0" type="curve" smooth="yes"/>
      <point x="775.176" y="0"/>
      <point x="909.052" y="152"/>
      <point x="945.052" y="288" type="curve"/>
      <point x="909.052" y="286" type="line"/>
      <point x="909.052" y="95" type="line" smooth="yes"/>
      <point x="909.052" y="-202"/>
      <point x="792.052" y="-350"/>
      <point x="479.976" y="-350" type="curve" smooth="yes"/>
      <point x="407.976" y="-350"/>
      <point x="285.3" y="-338"/>
      <point x="285.3" y="-337" type="curve" smooth="yes"/>
      <point x="285.3" y="-431" type="line"/>
      <point x="285.3" y="-431"/>
      <point x="392.676" y="-444"/>
    </contour>
  </outline>
</glyph>
<glyph name="h" format="1">
  <advance width="1113"/>
  <unicode hex="0068"/>
  <outline>
    <contour>
      <point x="163.8" y="0" type="line"/>
      <point x="285.8" y="0" type="line"/>
      <point x="285.8" y="607" type="line" smooth="yes"/>
      <point x="285.8" y="776"/>
      <point x="349.7" y="982"/>
      <point x="599.9" y="982" type="curve" smooth="yes"/>
      <point x="761.9" y="982"/>
      <point x="821.3" y="868"/>
      <point x="821.3" y="648" type="curve" smooth="yes"/>
      <point x="821.3" y="0" type="line"/>
      <point x="942.3" y="0" type="line"/>
      <point x="942.3" y="647" type="line" smooth="yes"/>
      <point x="942.3" y="910"/>
      <point x="828.3" y="1074"/>
      <point x="616.1" y="1074" type="curve" smooth="yes"/>
      <point x="439.7" y="1074"/>
      <point x="305.6" y="984"/>
      <point x="243.8" y="806" type="curve"/>
      <point x="278.8" y="795" type="line"/>
      <point x="285.8" y="1101" type="line"/>
      <point x="285.8" y="1489" type="line"/>
      <point x="163.8" y="1479" type="line"/>
    </contour>
  </outline>
</glyph>
<glyph name="i" format="1">
  <advance width="464"/>
  <unicode hex="0069"/>
  <outline>
    <contour>
      <point x="164.7" y="0" type="line"/>
      <point x="286.7" y="0" type="line"/>
      <point x="286.7" y="1055" type="line"/>
      <point x="164.7" y="1055" type="line"/>
    </contour>
    <contour>
      <point x="164.7" y="1294" type="line"/>
      <point x="286.7" y="1294" type="line"/>
      <point x="286.7" y="1449" type="line"/>
      <point x="164.7" y="1449" type="line"/>
    </contour>
  </outline>
</glyph>
<glyph name="j" format="1">
  <advance width="493"/>
  <unicode hex="006A"/>
  <outline>
    <contour>
      <point x="19.7998" y="-323" type="line"/>
      <point x="75.7998" y="-323" type="line" smooth="yes"/>
      <point x="247.8" y="-323"/>
      <point x="337.8" y="-245"/>
      <point x="337.8" y="-10" type="curve" smooth="yes"/>
      <point x="337.8" y="1055" type="line"/>
      <point x="213.8" y="1055" type="line"/>
      <point x="213.8" y="49" type="line" smooth="yes"/>
      <point x="213.8" y="-150"/>
      <point x="212.8" y="-217"/>
      <point x="59.7998" y="-217" type="curve" smooth="yes"/>
      <point x="19.7998" y="-217" type="line"/>
    </contour>
    <contour>
      <point x="213.8" y="1294" type="line"/>
      <point x="337.8" y="1294" type="line"/>
      <point x="337.8" y="1449" type="line"/>
      <point x="213.8" y="1449" type="line"/>
    </contour>
  </outline>
</glyph>
<glyph name="k" format="1">
  <advance width="1012"/>
  <unicode hex="006B"/>
  <outline>
    <contour>
      <point x="163.8" y="0" type="line"/>
      <point x="285.8" y="0" type="line"/>
      <point x="285.8" y="421" type="line"/>
      <point x="250.8" y="351" type="line"/>
      <point x="434.3" y="531" type="line"/>
      <point x="379.4" y="531" type="line"/>
      <point x="819.5" y="0" type="line"/>
      <point x="963.5" y="0" type="line"/>
      <point x="452.3" y="594" type="line"/>
      <point x="452.3" y="538" type="line"/>
      <point x="956.5" y="1055" type="line"/>
      <point x="815" y="1055" type="line"/>
      <point x="245.8" y="465" type="line"/>
      <point x="278.8" y="465" type="line"/>
      <point x="285.8" y="703" type="line"/>
      <point x="285.8" y="1489" type="line"/>
      <point x="163.8" y="1479" type="line"/>
    </contour>
  </outline>
</glyph>
<glyph name="l" format="1">
  <advance width="613"/>
  <unicode hex="006C"/>
  <outline>
    <contour>
      <point x="432.8" y="-11" type="curve" smooth="yes"/>
      <point x="500.8" y="-11"/>
      <point x="555.8" y="-3"/>
      <point x="576.8" y="0" type="curve"/>
      <point x="576.8" y="83" type="line"/>
      <point x="566.8" y="82"/>
      <point x="511.8" y="76"/>
      <point x="454.8" y="76" type="curve" smooth="yes"/>
      <point x="321.8" y="76"/>
      <point x="285.8" y="128"/>
      <point x="285.8" y="251" type="curve" smooth="yes"/>
      <point x="285.8" y="1489" type="line"/>
      <point x="163.8" y="1479" type="line"/>
      <point x="163.8" y="259" type="line" smooth="yes"/>
      <point x="163.8" y="30"/>
      <point x="301.8" y="-11"/>
    </contour>
  </outline>
</glyph>
<glyph name="m" format="1">
  <advance width="1642"/>
  <unicode hex="006D"/>
  <outline>
    <contour>
      <point x="163.8" y="0" type="line"/>
      <point x="285.8" y="0" type="line"/>
      <point x="285.8" y="699" type="line"/>
      <point x="319.1" y="858"/>
      <point x="425.3" y="982"/>
      <point x="569.3" y="982" type="curve" smooth="yes"/>
      <point x="717.8" y="982"/>
      <point x="762.8" y="865"/>
      <point x="762.8" y="583" type="curve" smooth="yes"/>
      <point x="762.8" y="0" type="line"/>
      <point x="884.8" y="0" type="line"/>
      <point x="884.8" y="508" type="line" smooth="yes"/>
      <point x="884.8" y="605"/>
      <point x="882.8" y="662"/>
      <point x="887.5" y="686" type="curve" smooth="yes"/>
      <point x="926.2" y="888"/>
      <point x="1050.4" y="982"/>
      <point x="1169.2" y="982" type="curve" smooth="yes"/>
      <point x="1369.2" y="982"/>
      <point x="1349.2" y="742"/>
      <point x="1349.2" y="600" type="curve" smooth="yes"/>
      <point x="1349.2" y="0" type="line"/>
      <point x="1471.2" y="0" type="line"/>
      <point x="1471.2" y="684" type="line" smooth="yes"/>
      <point x="1471.2" y="941"/>
      <point x="1369.2" y="1074"/>
      <point x="1179.1" y="1074" type="curve" smooth="yes"/>
      <point x="996.4" y="1074"/>
      <point x="888.4" y="949"/>
      <point x="825.8" y="785" type="curve"/>
      <point x="858.8" y="785" type="line"/>
      <point x="826.8" y="925"/>
      <point x="764.8" y="1074"/>
      <point x="573.8" y="1074" type="curve" smooth="yes"/>
      <point x="423.5" y="1074"/>
      <point x="314.6" y="969"/>
      <point x="242.8" y="815" type="curve"/>
      <point x="284.8" y="804" type="line"/>
      <point x="261.8" y="1055" type="line"/>
      <point x="163.8" y="1055" type="line"/>
    </contour>
  </outline>
</glyph>
<glyph name="n" format="1">
  <advance width="1108"/>
  <unicode hex="006E"/>
  <outline>
    <contour>
      <point x="163.8" y="0" type="line"/>
      <point x="285.8" y="0" type="line"/>
      <point x="285.8" y="620" type="line" smooth="yes"/>
      <point x="285.8" y="798"/>
      <point x="349.7" y="982"/>
      <point x="599.9" y="982" type="curve" smooth="yes"/>
      <point x="767.3" y="982"/>
      <point x="816" y="862"/>
      <point x="815" y="674" type="curve"/>
      <point x="815" y="0" type="line"/>
      <point x="937" y="0" type="line"/>
      <point x="937" y="636" type="line" smooth="yes"/>
      <point x="937" y="935"/>
      <point x="830" y="1074"/>
      <point x="610.7" y="1074" type="curve" smooth="yes"/>
      <point x="422.6" y="1074"/>
      <point x="314.6" y="978"/>
      <point x="259.8" y="841" type="curve"/>
      <point x="294.8" y="841" type="line"/>
      <point x="275.8" y="1055" type="line"/>
      <point x="163.8" y="1055" type="line"/>
    </contour>
  </outline>
</glyph>
<glyph name="o" format="1">
  <advance width="1155"/>
  <unicode hex="006F"/>
  <outline>
    <contour>
      <point x="571.776" y="73" type="curve" smooth="yes"/>
      <point x="348.9" y="73"/>
      <point x="228.9" y="277"/>
      <point x="228.9" y="522" type="curve" smooth="yes"/>
      <point x="228.9" y="777"/>
      <point x="348.9" y="982"/>
      <point x="571.776" y="982" type="curve" smooth="yes"/>
      <point x="801.652" y="982"/>
      <point x="914.652" y="776"/>
      <point x="914.652" y="521" type="curve" smooth="yes"/>
      <point x="914.652" y="277"/>
      <point x="804.652" y="73"/>
    </contour>
    <contour>
      <point x="571.776" y="-19" type="curve" smooth="yes"/>
      <point x="834.652" y="-19"/>
      <point x="1034.65" y="217"/>
      <point x="1034.65" y="524" type="curve" smooth="yes"/>
      <point x="1034.65" y="845"/>
      <point x="861.652" y="1074"/>
      <point x="571.776" y="1074" type="curve" smooth="yes"/>
      <point x="290.9" y="1074"/>
      <point x="108.9" y="840"/>
      <point x="108.9" y="524" type="curve" smooth="yes"/>
      <point x="108.9" y="214"/>
      <point x="290.9" y="-19"/>
    </contour>
  </outline>
</glyph>
<glyph name="p" format="1">
  <advance width="1184"/>
  <unicode hex="0070"/>
  <outline>
    <contour>
      <point x="163.8" y="-480" type="line"/>
      <point x="285.8" y="-472" type="line"/>
      <point x="285.8" y="-87" type="line"/>
      <point x="272.8" y="347" type="line"/>
      <point x="236.8" y="315" type="line"/>
      <point x="290.8" y="149"/>
      <point x="420.576" y="-19"/>
      <point x="628.476" y="-19" type="curve" smooth="yes"/>
      <point x="895.152" y="-19"/>
      <point x="1057.15" y="201"/>
      <point x="1057.15" y="520" type="curve" smooth="yes"/>
      <point x="1057.15" y="856"/>
      <point x="906.152" y="1074"/>
      <point x="620.376" y="1074" type="curve" smooth="yes"/>
      <point x="440.376" y="1074"/>
      <point x="310.8" y="948"/>
      <point x="254.8" y="779" type="curve"/>
      <point x="277.8" y="774" type="line"/>
      <point x="260.8" y="1055" type="line"/>
      <point x="163.8" y="1055" type="line"/>
    </contour>
    <contour>
      <point x="614.976" y="73" type="curve" smooth="yes"/>
      <point x="414.276" y="73"/>
      <point x="281.8" y="259"/>
      <point x="281.8" y="540" type="curve" smooth="yes"/>
      <point x="281.8" y="787"/>
      <point x="386.8" y="982"/>
      <point x="625.776" y="982" type="curve" smooth="yes"/>
      <point x="853.152" y="982"/>
      <point x="935.152" y="775"/>
      <point x="935.152" y="522" type="curve" smooth="yes"/>
      <point x="935.152" y="257"/>
      <point x="837.152" y="73"/>
    </contour>
  </outline>
</glyph>
<glyph name="q" format="1">
  <advance width="1194"/>
  <unicode hex="0071"/>
  <outline>
    <contour>
      <point x="899.4" y="-480" type="line"/>
      <point x="1019.4" y="-474" type="line"/>
      <point x="1019.4" y="1055" type="line"/>
      <point x="905.4" y="1055" type="line"/>
      <point x="884.1" y="797" type="line"/>
      <point x="909.4" y="800" type="line"/>
      <point x="850.8" y="963"/>
      <point x="737.4" y="1074"/>
      <point x="551.1" y="1074" type="curve" smooth="yes"/>
      <point x="277.5" y="1074"/>
      <point x="108.9" y="845"/>
      <point x="108.9" y="515" type="curve" smooth="yes"/>
      <point x="108.9" y="206"/>
      <point x="294.6" y="-19"/>
      <point x="545.7" y="-19" type="curve" smooth="yes"/>
      <point x="789.6" y="-19"/>
      <point x="893.4" y="149"/>
      <point x="937.4" y="308" type="curve"/>
      <point x="906.4" y="326" type="line"/>
      <point x="899.4" y="-109" type="line"/>
    </contour>
    <contour>
      <point x="560.1" y="73" type="curve" smooth="yes"/>
      <point x="334.2" y="73"/>
      <point x="228.9" y="265"/>
      <point x="228.9" y="528" type="curve" smooth="yes"/>
      <point x="228.9" y="778"/>
      <point x="326.1" y="982"/>
      <point x="561.9" y="982" type="curve" smooth="yes"/>
      <point x="804.9" y="982"/>
      <point x="890.4" y="798"/>
      <point x="890.4" y="567" type="curve"/>
      <point x="893.4" y="271"/>
      <point x="822" y="73"/>
    </contour>
  </outline>
</glyph>
<glyph name="r" format="1">
  <advance width="779"/>
  <unicode hex="0072"/>
  <outline>
    <contour>
      <point x="163.8" y="0" type="line"/>
      <point x="285.8" y="0" type="line"/>
      <point x="285.8" y="608" type="line" smooth="yes"/>
      <point x="285.8" y="801"/>
      <point x="430.8" y="974"/>
      <point x="617.8" y="974" type="curve" smooth="yes"/>
      <point x="637.8" y="974"/>
      <point x="664.8" y="971"/>
      <point x="685.8" y="966" type="curve"/>
      <point x="693.8" y="1063" type="line"/>
      <point x="672.8" y="1066"/>
      <point x="642.8" y="1068"/>
      <point x="610.8" y="1068" type="curve" smooth="yes"/>
      <point x="472.8" y="1068"/>
      <point x="318.8" y="990"/>
      <point x="244.8" y="750" type="curve"/>
      <point x="272.8" y="746" type="line"/>
      <point x="255.8" y="1055" type="line"/>
      <point x="163.8" y="1055" type="line"/>
    </contour>
  </outline>
</glyph>
<glyph name="s" format="1">
  <advance width="910"/>
  <unicode hex="0073"/>
  <outline>
    <contour>
      <point x="449.376" y="-19" type="curve" smooth="yes"/>
      <point x="661.952" y="-19"/>
      <point x="797.952" y="76"/>
      <point x="797.952" y="261" type="curve" smooth="yes"/>
      <point x="797.952" y="416"/>
      <point x="743.952" y="503"/>
      <point x="499.776" y="580" type="curve" smooth="yes"/>
      <point x="399.876" y="614" type="line"/>
      <point x="261.8" y="659"/>
      <point x="225.8" y="703"/>
      <point x="225.8" y="810" type="curve" smooth="yes"/>
      <point x="225.8" y="907"/>
      <point x="317.8" y="982"/>
      <point x="478.176" y="982" type="curve" smooth="yes"/>
      <point x="581.952" y="982"/>
      <point x="646.952" y="959"/>
      <point x="709.952" y="931" type="curve"/>
      <point x="741.952" y="1022" type="line"/>
      <point x="654.952" y="1059"/>
      <point x="582.952" y="1074"/>
      <point x="466.476" y="1074" type="curve" smooth="yes"/>
      <point x="244.8" y="1074"/>
      <point x="118.8" y="949"/>
      <point x="118.8" y="795" type="curve" smooth="yes"/>
      <point x="118.8" y="683"/>
      <point x="167.8" y="587"/>
      <point x="368.376" y="526" type="curve" smooth="yes"/>
      <point x="466.476" y="493" type="line" smooth="yes"/>
      <point x="659.952" y="431"/>
      <point x="693.952" y="373"/>
      <point x="693.952" y="262" type="curve" smooth="yes"/>
      <point x="693.952" y="139"/>
      <point x="618.952" y="73"/>
      <point x="455.676" y="73" type="curve" smooth="yes"/>
      <point x="315.8" y="73"/>
      <point x="228.8" y="105"/>
      <point x="173.8" y="124" type="curve"/>
      <point x="141.8" y="39" type="line"/>
      <point x="183.8" y="19"/>
      <point x="315.8" y="-19"/>
    </contour>
  </outline>
</glyph>
<glyph name="t" format="1">
  <advance width="769"/>
  <unicode hex="0074"/>
  <outline>
    <contour>
      <point x="502.3" y="-11" type="curve" smooth="yes"/>
      <point x="606.3" y="-11"/>
      <point x="669.3" y="5"/>
      <point x="669.3" y="5" type="curve"/>
      <point x="669.3" y="83" type="line"/>
      <point x="669.3" y="83"/>
      <point x="593.3" y="73"/>
      <point x="522.3" y="73" type="curve" smooth="yes"/>
      <point x="417.3" y="73"/>
      <point x="348.3" y="114"/>
      <point x="348.3" y="284" type="curve" smooth="yes"/>
      <point x="348.3" y="1012" type="line"/>
      <point x="316.3" y="983" type="line"/>
      <point x="672.3" y="983" type="line"/>
      <point x="672.3" y="1055" type="line"/>
      <point x="316.3" y="1055" type="line"/>
      <point x="348.3" y="1024" type="line"/>
      <point x="348.3" y="1327" type="line"/>
      <point x="268.3" y="1321" type="line"/>
      <point x="227.3" y="1036" type="line"/>
      <point x="256.3" y="1058" type="line"/>
      <point x="78.2998" y="1045" type="line"/>
      <point x="78.2998" y="983" type="line"/>
      <point x="258.3" y="983" type="line"/>
      <point x="226.3" y="1013" type="line"/>
      <point x="226.3" y="279" type="line" smooth="yes"/>
      <point x="226.3" y="72"/>
      <point x="342.3" y="-11"/>
    </contour>
  </outline>
</glyph>
<glyph name="u" format="1">
  <advance width="1106"/>
  <unicode hex="0075"/>
  <outline>
    <contour>
      <point x="927.1" y="1055" type="line"/>
      <point x="805.1" y="1055" type="line"/>
      <point x="805.1" y="435" type="line" smooth="yes"/>
      <point x="805.1" y="257"/>
      <point x="740.3" y="73"/>
      <point x="490.1" y="73" type="curve" smooth="yes"/>
      <point x="322.7" y="73"/>
      <point x="274.9" y="193"/>
      <point x="275.9" y="381" type="curve"/>
      <point x="275.9" y="1055" type="line"/>
      <point x="153.9" y="1055" type="line"/>
      <point x="153.9" y="419" type="line" smooth="yes"/>
      <point x="153.9" y="120"/>
      <point x="260.9" y="-19"/>
      <point x="480.2" y="-19" type="curve" smooth="yes"/>
      <point x="668.3" y="-19"/>
      <point x="777.2" y="63"/>
      <point x="842.1" y="246" type="curve"/>
      <point x="805.1" y="246" type="line"/>
      <point x="826.1" y="0" type="line"/>
      <point x="927.1" y="0" type="line"/>
    </contour>
  </outline>
</glyph>
<glyph name="v" format="1">
  <advance width="1002"/>
  <unicode hex="0076"/>
  <outline>
    <contour>
      <point x="441.276" y="0" type="line"/>
      <point x="570.276" y="0" type="line"/>
      <point x="944.652" y="1055" type="line"/>
      <point x="823.652" y="1055" type="line"/>
      <point x="607.776" y="438" type="line"/>
      <point x="485.276" y="54" type="line"/>
      <point x="525.276" y="54" type="line"/>
      <point x="390.876" y="434" type="line"/>
      <point x="173.2" y="1055" type="line"/>
      <point x="52.2002" y="1055" type="line"/>
    </contour>
  </outline>
</glyph>
<glyph name="w" format="1">
  <advance width="1463"/>
  <unicode hex="0077"/>
  <outline>
    <contour>
      <point x="347.8" y="0" type="line"/>
      <point x="464.8" y="0" type="line"/>
      <point x="745.6" y="1015" type="line"/>
      <point x="721.3" y="1015" type="line"/>
      <point x="1030.9" y="0" type="line"/>
      <point x="1129.9" y="0" type="line"/>
      <point x="1401.9" y="1055" type="line"/>
      <point x="1294.9" y="1055" type="line"/>
      <point x="1062.9" y="65" type="line"/>
      <point x="1097.9" y="65" type="line"/>
      <point x="794.2" y="1055" type="line"/>
      <point x="669.1" y="1055" type="line"/>
      <point x="387.8" y="65" type="line"/>
      <point x="421.8" y="65" type="line"/>
      <point x="166.8" y="1055" type="line"/>
      <point x="55.7998" y="1055" type="line"/>
    </contour>
  </outline>
</glyph>
<glyph name="x" format="1">
  <advance width="961"/>
  <unicode hex="0078"/>
  <outline>
    <contour>
      <point x="39.5996" y="0" type="line"/>
      <point x="174.6" y="0" type="line"/>
      <point x="498.6" y="471" type="line"/>
      <point x="537.3" y="500" type="line"/>
      <point x="917.9" y="1055" type="line"/>
      <point x="783" y="1055" type="line"/>
      <point x="474.3" y="577" type="line"/>
      <point x="440.1" y="559" type="line"/>
    </contour>
    <contour>
      <point x="783.9" y="0" type="line"/>
      <point x="916.9" y="0" type="line"/>
      <point x="202.5" y="1055" type="line"/>
      <point x="70.5996" y="1055" type="line"/>
    </contour>
  </outline>
</glyph>
<glyph name="y" format="1">
  <advance width="1024"/>
  <unicode hex="0079"/>
  <outline>
    <contour>
      <point x="434.076" y="-400" type="line"/>
      <point x="968.952" y="1055" type="line"/>
      <point x="848.952" y="1055" type="line"/>
      <point x="517.776" y="118" type="line"/>
      <point x="549.276" y="118" type="line"/>
      <point x="195.9" y="1055" type="line"/>
      <point x="72.9004" y="1055" type="line"/>
      <point x="504.276" y="-32" type="line"/>
      <point x="504.276" y="80" type="line"/>
      <point x="344.976" y="-368" type="line"/>
    </contour>
  </outline>
</glyph>
<glyph name="z" format="1">
  <advance width="878"/>
  <unicode hex="007A"/>
  <outline>
    <contour>
      <point x="108" y="0" type="line"/>
      <point x="771.852" y="0" type="line"/>
      <point x="771.852" y="83" type="line"/>
      <point x="164" y="83" type="line"/>
      <point x="188" y="29" type="line"/>
      <point x="765.852" y="972" type="line"/>
      <point x="765.852" y="1055" type="line"/>
      <point x="129" y="1055" type="line"/>
      <point x="129" y="972" type="line"/>
      <point x="705.852" y="972" type="line"/>
      <point x="683.852" y="1022" type="line"/>
      <point x="108" y="82" type="line"/>
    </contour>
  </outline>
</glyph>
<glyph name="braceleft" format="1">
  <advance width="786"/>
  <unicode hex="007B"/>
  <outline>
    <contour>
      <point x="612.5" y="-281" type="line"/>
      <point x="393.5" y="-281"/>
      <point x="325.5" y="-139"/>
      <point x="325.5" y="77" type="curve" smooth="yes"/>
      <point x="325.5" y="232" type="line" smooth="yes"/>
      <point x="325.5" y="415"/>
      <point x="312.5" y="566"/>
      <point x="112.5" y="569" type="curve"/>
      <point x="112.5" y="653" type="line"/>
      <point x="306.5" y="653"/>
      <point x="325.5" y="810"/>
      <point x="325.5" y="989" type="curve" smooth="yes"/>
      <point x="325.5" y="1199" type="line" smooth="yes"/>
      <point x="325.5" y="1382"/>
      <point x="422.5" y="1509"/>
      <point x="612.5" y="1510" type="curve"/>
      <point x="612.5" y="1426" type="line"/>
      <point x="466.5" y="1424"/>
      <point x="410.5" y="1355"/>
      <point x="410.5" y="1162" type="curve" smooth="yes"/>
      <point x="410.5" y="903" type="line" smooth="yes"/>
      <point x="410.5" y="743"/>
      <point x="367.5" y="657"/>
      <point x="230.5" y="606" type="curve"/>
      <point x="369.5" y="567"/>
      <point x="410.5" y="490"/>
      <point x="410.5" y="323" type="curve" smooth="yes"/>
      <point x="410.5" y="65" type="line" smooth="yes"/>
      <point x="410.5" y="-120"/>
      <point x="463.5" y="-199"/>
      <point x="612.5" y="-201" type="curve"/>
    </contour>
  </outline>
</glyph>
<glyph name="bar" format="1">
  <advance width="215"/>
  <unicode hex="007C"/>
  <outline>
    <contour>
      <point x="56.7002" y="-408" type="line"/>
      <point x="56.7002" y="1559" type="line"/>
      <point x="142.7" y="1559" type="line"/>
      <point x="142.7" y="-408" type="line"/>
    </contour>
  </outline>
</glyph>
<glyph name="braceright" format="1">
  <advance width="786"/>
  <unicode hex="007D"/>
  <outline>
    <contour>
      <point x="112.5" y="-281" type="curve"/>
      <point x="112.5" y="-198" type="line"/>
      <point x="258.5" y="-196"/>
      <point x="314.5" y="-127"/>
      <point x="314.5" y="66" type="curve" smooth="yes"/>
      <point x="314.5" y="325" type="line" smooth="yes"/>
      <point x="314.5" y="445"/>
      <point x="346.5" y="553"/>
      <point x="494.5" y="623" type="curve"/>
      <point x="355.5" y="662"/>
      <point x="314.5" y="798"/>
      <point x="314.5" y="905" type="curve" smooth="yes"/>
      <point x="314.5" y="1163" type="line" smooth="yes"/>
      <point x="314.5" y="1348"/>
      <point x="261.5" y="1428"/>
      <point x="112.5" y="1430" type="curve"/>
      <point x="112.5" y="1510" type="line"/>
      <point x="331.5" y="1510"/>
      <point x="399.5" y="1367"/>
      <point x="399.5" y="1151" type="curve" smooth="yes"/>
      <point x="399.5" y="996" type="line" smooth="yes"/>
      <point x="399.5" y="813"/>
      <point x="412.5" y="662"/>
      <point x="612.5" y="659" type="curve"/>
      <point x="612.5" y="576" type="line"/>
      <point x="418.5" y="576"/>
      <point x="399.5" y="419"/>
      <point x="399.5" y="240" type="curve" smooth="yes"/>
      <point x="399.5" y="29" type="line" smooth="yes"/>
      <point x="399.5" y="-154"/>
      <point x="302.5" y="-280"/>
    </contour>
  </outline>
</glyph>
<glyph name="asciitilde" format="1">
  <advance width="1143"/>
  <unicode hex="007E"/>
  <outline>
    <contour>
      <point x="108.3" y="507" type="curve"/>
      <point x="87.2998" y="579" type="line"/>
      <point x="130.3" y="690"/>
      <point x="219.3" y="773"/>
      <point x="338.676" y="773" type="curve" smooth="yes"/>
      <point x="408.876" y="773"/>
      <point x="449.376" y="753"/>
      <point x="546.576" y="705" type="curve"/>
      <point x="636.576" y="663"/>
      <point x="714.876" y="617"/>
      <point x="773.452" y="617" type="curve" smooth="yes"/>
      <point x="860.452" y="617"/>
      <point x="946.452" y="704"/>
      <point x="967.452" y="786" type="curve"/>
      <point x="1000.45" y="723" type="line"/>
      <point x="952.452" y="590"/>
      <point x="893.452" y="522"/>
      <point x="777.452" y="522" type="curve" smooth="yes"/>
      <point x="722.076" y="522"/>
      <point x="655.476" y="549"/>
      <point x="585.276" y="584" type="curve"/>
      <point x="477.276" y="636"/>
      <point x="401.676" y="675"/>
      <point x="337.776" y="675" type="curve" smooth="yes"/>
      <point x="247.3" y="675"/>
      <point x="158.3" y="600"/>
    </contour>
  </outline>
</glyph>
<glyph name="cent" format="1">
  <advance width="964"/>
  <unicode hex="00A2"/>
  <outline>
    <component base="c"/>
    <contour>
      <point x="496.8" y="-156" type="line"/>
      <point x="575.8" y="-156" type="line"/>
      <point x="575.8" y="1237" type="line"/>
      <point x="496.8" y="1237" type="line"/>
    </contour>
  </outline>
</glyph>
<glyph name="sterling" format="1">
  <advance width="1146"/>
  <unicode hex="00A3"/>
  <outline>
    <contour>
      <point x="132.6" y="-14" type="line"/>
      <point x="120.6" y="77" type="line"/>
      <point x="309.6" y="91" type="line"/>
      <point x="309.6" y="674" type="line"/>
      <point x="123.6" y="674" type="line"/>
      <point x="123.6" y="764" type="line"/>
      <point x="309.6" y="764" type="line"/>
      <point x="309.6" y="873" type="line" smooth="yes"/>
      <point x="309.6" y="1167"/>
      <point x="338.6" y="1469"/>
      <point x="680.6" y="1469" type="curve" smooth="yes"/>
      <point x="812.976" y="1469"/>
      <point x="920.976" y="1415"/>
      <point x="1000.98" y="1347" type="curve"/>
      <point x="951.976" y="1270" type="line"/>
      <point x="863.976" y="1341"/>
      <point x="771.976" y="1378"/>
      <point x="676.1" y="1378" type="curve" smooth="yes"/>
      <point x="468.2" y="1378"/>
      <point x="410.6" y="1202"/>
      <point x="410.6" y="946" type="curve" smooth="yes"/>
      <point x="410.6" y="764" type="line"/>
      <point x="792.976" y="764" type="line"/>
      <point x="792.976" y="673" type="line"/>
      <point x="410.6" y="673" type="line"/>
      <point x="410.6" y="93" type="line"/>
      <point x="1012.98" y="93" type="line"/>
      <point x="996.976" y="-14" type="line"/>
    </contour>
  </outline>
</glyph>
<glyph name="currency" format="1">
  <advance width="1307"/>
  <unicode hex="00A4"/>
  <outline>
    <contour>
      <point x="1059.3" y="227" type="line"/>
      <point x="1102.3" y="276" type="line"/>
      <point x="923.6" y="453" type="line"/>
      <point x="979.3" y="523"/>
      <point x="1007.3" y="609"/>
      <point x="1007.3" y="706" type="curve" smooth="yes"/>
      <point x="1007.3" y="795"/>
      <point x="980.3" y="882"/>
      <point x="922.7" y="960" type="curve"/>
      <point x="1103.3" y="1134" type="line"/>
      <point x="1059.3" y="1184" type="line"/>
      <point x="881.3" y="1011" type="line"/>
      <point x="815.6" y="1074"/>
      <point x="731" y="1110"/>
      <point x="638.3" y="1110" type="curve" smooth="yes"/>
      <point x="545.6" y="1110"/>
      <point x="461" y="1077"/>
      <point x="393.5" y="1012" type="curve"/>
      <point x="216.3" y="1184" type="line"/>
      <point x="168.3" y="1137" type="line"/>
      <point x="353" y="960" type="line"/>
      <point x="296.3" y="888"/>
      <point x="267.3" y="799"/>
      <point x="267.3" y="706" type="curve" smooth="yes"/>
      <point x="267.3" y="612"/>
      <point x="295.3" y="527"/>
      <point x="353" y="453" type="curve"/>
      <point x="169.3" y="278" type="line"/>
      <point x="216.3" y="228" type="line"/>
      <point x="394.4" y="401" type="line"/>
      <point x="461" y="337"/>
      <point x="544.7" y="304"/>
      <point x="638.3" y="304" type="curve" smooth="yes"/>
      <point x="731.9" y="304"/>
      <point x="814.7" y="337"/>
      <point x="881.3" y="400" type="curve"/>
    </contour>
    <contour>
      <point x="638.3" y="367" type="curve" smooth="yes"/>
      <point x="450.2" y="367"/>
      <point x="341.3" y="524"/>
      <point x="341.3" y="706" type="curve" smooth="yes"/>
      <point x="341.3" y="888"/>
      <point x="450.2" y="1046"/>
      <point x="638.3" y="1046" type="curve" smooth="yes"/>
      <point x="826.4" y="1046"/>
      <point x="935.3" y="887"/>
      <point x="935.3" y="706" type="curve" smooth="yes"/>
      <point x="935.3" y="525"/>
      <point x="827.3" y="367"/>
    </contour>
  </outline>
</glyph>
<glyph name="yen" format="1">
  <advance width="1159"/>
  <unicode hex="00A5"/>
  <outline>
    <contour>
      <point x="538.476" y="0" type="line"/>
      <point x="660.476" y="0" type="line"/>
      <point x="660.476" y="312" type="line"/>
      <point x="953.352" y="312" type="line"/>
      <point x="953.352" y="386" type="line"/>
      <point x="660.476" y="386" type="line"/>
      <point x="648.276" y="607" type="line"/>
      <point x="939.152" y="607" type="line"/>
      <point x="939.152" y="685" type="line"/>
      <point x="685.176" y="685" type="line"/>
      <point x="1093.15" y="1449" type="line"/>
      <point x="979.152" y="1449" type="line"/>
      <point x="593.376" y="688" type="line"/>
      <point x="172.4" y="1449" type="line"/>
      <point x="59.4004" y="1449" type="line"/>
      <point x="497.076" y="685" type="line"/>
      <point x="237.4" y="685" type="line"/>
      <point x="237.4" y="607" type="line"/>
      <point x="538.476" y="607" type="line"/>
      <point x="538.476" y="386" type="line"/>
      <point x="235.4" y="386" type="line"/>
      <point x="235.4" y="312" type="line"/>
      <point x="538.476" y="312" type="line"/>
    </contour>
  </outline>
</glyph>
<glyph name="brokenbar" format="1">
  <advance width="165"/>
  <unicode hex="00A6"/>
  <outline>
    <contour>
      <point x="33.2998" y="-165" type="line"/>
      <point x="33.2998" y="509" type="line"/>
      <point x="120.3" y="509" type="line"/>
      <point x="120.3" y="-165" type="line"/>
    </contour>
    <contour>
      <point x="33.2998" y="778" type="line"/>
      <point x="33.2998" y="1449" type="line"/>
      <point x="120.3" y="1449" type="line"/>
      <point x="120.3" y="778" type="line"/>
    </contour>
  </outline>
</glyph>
<glyph name="section" format="1">
  <advance width="1027"/>
  <unicode hex="00A7"/>
  <outline>
    <contour>
      <point x="888.2" y="271" type="curve" smooth="yes"/>
      <point x="888.2" y="69"/>
      <point x="698.2" y="-18"/>
      <point x="476" y="-18" type="curve" smooth="yes"/>
      <point x="359.4" y="-18"/>
      <point x="236.7" y="5"/>
      <point x="143.7" y="48" type="curve"/>
      <point x="177.7" y="135" type="line"/>
      <point x="258.2" y="93"/>
      <point x="374.8" y="67"/>
      <point x="481.5" y="67" type="curve" smooth="yes"/>
      <point x="644.3" y="67"/>
      <point x="786.2" y="126"/>
      <point x="786.2" y="278" type="curve" smooth="yes"/>
      <point x="786.2" y="389"/>
      <point x="707" y="435"/>
      <point x="489.2" y="503" type="curve" smooth="yes"/>
      <point x="268.1" y="573"/>
      <point x="137.7" y="632"/>
      <point x="137.7" y="792" type="curve" smooth="yes"/>
      <point x="137.7" y="908"/>
      <point x="207.7" y="986"/>
      <point x="308.8" y="1035" type="curve"/>
      <point x="199.7" y="1093"/>
      <point x="148.7" y="1158"/>
      <point x="148.7" y="1274" type="curve" smooth="yes"/>
      <point x="148.7" y="1462"/>
      <point x="334.1" y="1545"/>
      <point x="550.8" y="1545" type="curve" smooth="yes"/>
      <point x="656.4" y="1545"/>
      <point x="768.6" y="1524"/>
      <point x="857.2" y="1487" type="curve"/>
      <point x="826.2" y="1405" type="line"/>
      <point x="753.2" y="1438"/>
      <point x="650.9" y="1458"/>
      <point x="553" y="1458" type="curve" smooth="yes"/>
      <point x="397.9" y="1458"/>
      <point x="256" y="1408"/>
      <point x="256" y="1282" type="curve" smooth="yes"/>
      <point x="256" y="1139"/>
      <point x="373.7" y="1109"/>
      <point x="579.4" y="1034" type="curve"/>
      <point x="808.2" y="951"/>
      <point x="896.2" y="904"/>
      <point x="896.2" y="746" type="curve" smooth="yes"/>
      <point x="896.2" y="630"/>
      <point x="854.2" y="554"/>
      <point x="737.8" y="507" type="curve"/>
      <point x="833.2" y="456"/>
      <point x="888.2" y="380"/>
    </contour>
    <contour>
      <point x="649.8" y="547" type="line"/>
      <point x="720.2" y="581"/>
      <point x="793.2" y="616"/>
      <point x="793.2" y="758" type="curve" smooth="yes"/>
      <point x="793.2" y="859"/>
      <point x="687.2" y="898"/>
      <point x="537.6" y="952" type="curve"/>
      <point x="392.4" y="1003" type="line"/>
      <point x="320.9" y="979"/>
      <point x="241.7" y="902"/>
      <point x="241.7" y="797" type="curve" smooth="yes"/>
      <point x="241.7" y="683"/>
      <point x="344" y="658"/>
      <point x="520" y="594" type="curve" smooth="yes"/>
    </contour>
  </outline>
</glyph>
<glyph name="dieresis" format="1">
  <advance width="751"/>
  <unicode hex="00A8"/>
  <outline>
    <contour>
      <point x="135" y="1267" type="line"/>
      <point x="243" y="1267" type="line"/>
      <point x="243" y="1406" type="line"/>
      <point x="135" y="1406" type="line"/>
    </contour>
    <contour>
      <point x="498" y="1267" type="line"/>
      <point x="607" y="1267" type="line"/>
      <point x="607" y="1406" type="line"/>
      <point x="498" y="1406" type="line"/>
    </contour>
  </outline>
</glyph>
<glyph name="copyright" format="1">
  <advance width="1755"/>
  <unicode hex="00A9"/>
  <outline>
    <contour>
      <point x="904.7" y="229" type="curve" smooth="yes"/>
      <point x="991.1" y="229"/>
      <point x="1080.2" y="257"/>
      <point x="1164.8" y="317" type="curve"/>
      <point x="1139.6" y="392" type="line"/>
      <point x="1053.2" y="333"/>
      <point x="981.2" y="315"/>
      <point x="903.8" y="315" type="curve" smooth="yes"/>
      <point x="708.5" y="315"/>
      <point x="544.7" y="482"/>
      <point x="544.7" y="763" type="curve" smooth="yes"/>
      <point x="544.7" y="1012"/>
      <point x="708.5" y="1191"/>
      <point x="895.7" y="1191" type="curve" smooth="yes"/>
      <point x="964.1" y="1191"/>
      <point x="1055.9" y="1164"/>
      <point x="1126.1" y="1100" type="curve"/>
      <point x="1161.2" y="1180" type="line"/>
      <point x="1074.8" y="1247"/>
      <point x="982.1" y="1278"/>
      <point x="893.9" y="1278" type="curve" smooth="yes"/>
      <point x="655.4" y="1278"/>
      <point x="433.7" y="1057"/>
      <point x="433.7" y="755" type="curve" smooth="yes"/>
      <point x="433.7" y="447"/>
      <point x="660.8" y="229"/>
    </contour>
    <contour>
      <point x="874.1" y="36" type="curve" smooth="yes"/>
      <point x="569" y="36"/>
      <point x="234.8" y="261"/>
      <point x="234.8" y="756" type="curve" smooth="yes"/>
      <point x="234.8" y="1251"/>
      <point x="569" y="1477"/>
      <point x="874.1" y="1477" type="curve" smooth="yes"/>
      <point x="1179.2" y="1477"/>
      <point x="1505.9" y="1250"/>
      <point x="1505.9" y="756" type="curve" smooth="yes"/>
      <point x="1505.9" y="262"/>
      <point x="1179.2" y="36"/>
    </contour>
    <contour>
      <point x="874.1" y="-40" type="curve" smooth="yes"/>
      <point x="1221.5" y="-40"/>
      <point x="1603.9" y="210"/>
      <point x="1603.9" y="756" type="curve" smooth="yes"/>
      <point x="1603.9" y="1302"/>
      <point x="1221.5" y="1554"/>
      <point x="874.1" y="1554" type="curve" smooth="yes"/>
      <point x="524.7" y="1554"/>
      <point x="136.8" y="1302"/>
      <point x="136.8" y="756" type="curve" smooth="yes"/>
      <point x="136.8" y="210"/>
      <point x="524.7" y="-40"/>
    </contour>
  </outline>
</glyph>
<glyph name="ordfeminine" format="1">
  <advance width="858"/>
  <unicode hex="00AA"/>
  <outline>
    <contour>
      <point x="170.2" y="492" type="line"/>
      <point x="170.2" y="574" type="line"/>
      <point x="683.2" y="574" type="line"/>
      <point x="683.2" y="492" type="line"/>
    </contour>
    <contour>
      <point x="357.2" y="731" type="curve" smooth="yes"/>
      <point x="446.2" y="731"/>
      <point x="563.2" y="753"/>
      <point x="653.2" y="887" type="curve"/>
      <point x="622.2" y="887" type="line"/>
      <point x="645.2" y="743" type="line"/>
      <point x="704.2" y="743" type="line"/>
      <point x="704.2" y="1222" type="line" smooth="yes"/>
      <point x="704.2" y="1414"/>
      <point x="590.2" y="1478"/>
      <point x="426.2" y="1478" type="curve" smooth="yes"/>
      <point x="344.2" y="1478"/>
      <point x="238.2" y="1451"/>
      <point x="180.2" y="1418" type="curve"/>
      <point x="206.2" y="1343" type="line"/>
      <point x="271.2" y="1379"/>
      <point x="354.2" y="1402"/>
      <point x="428.2" y="1402" type="curve" smooth="yes"/>
      <point x="553.2" y="1402"/>
      <point x="616.2" y="1348"/>
      <point x="616.2" y="1237" type="curve" smooth="yes"/>
      <point x="616.2" y="1140" type="line"/>
      <point x="644.2" y="1164" type="line"/>
      <point x="483.2" y="1164" type="line" smooth="yes"/>
      <point x="234.2" y="1164"/>
      <point x="133.2" y="1082"/>
      <point x="133.2" y="929" type="curve" smooth="yes"/>
      <point x="133.2" y="801"/>
      <point x="225.2" y="731"/>
    </contour>
    <contour>
      <point x="368.2" y="805" type="curve" smooth="yes"/>
      <point x="280.2" y="805"/>
      <point x="220.2" y="844"/>
      <point x="220.2" y="930" type="curve" smooth="yes"/>
      <point x="220.2" y="1043"/>
      <point x="294.2" y="1101"/>
      <point x="530.2" y="1101" type="curve" smooth="yes"/>
      <point x="644.2" y="1101" type="line"/>
      <point x="616.2" y="1131" type="line"/>
      <point x="616.2" y="903" type="line"/>
      <point x="644.2" y="982" type="line"/>
      <point x="569.2" y="840"/>
      <point x="455.2" y="805"/>
    </contour>
  </outline>
</glyph>
<glyph name="guillemotleft" format="1">
  <advance width="962"/>
  <unicode hex="00AB"/>
  <outline>
    <contour>
      <point x="697.652" y="157" type="line"/>
      <point x="775.652" y="177" type="line"/>
      <point x="520.476" y="541" type="line"/>
      <point x="782.652" y="900" type="line"/>
      <point x="700.652" y="920" type="line"/>
      <point x="434.076" y="538" type="line"/>
    </contour>
    <contour>
      <point x="386.376" y="157" type="line"/>
      <point x="456.576" y="177" type="line"/>
      <point x="211.3" y="541" type="line"/>
      <point x="463.776" y="900" type="line"/>
      <point x="389.976" y="920" type="line"/>
      <point x="114.3" y="538" type="line"/>
    </contour>
  </outline>
</glyph>
<glyph name="logicalnot" format="1">
  <advance width="1144"/>
  <unicode hex="00AC"/>
  <outline>
    <contour>
      <point x="915.152" y="259" type="line"/>
      <point x="1003.15" y="259" type="line"/>
      <point x="1003.15" y="783" type="line"/>
      <point x="97.2002" y="783" type="line"/>
      <point x="97.2002" y="691" type="line"/>
      <point x="915.152" y="691" type="line"/>
    </contour>
  </outline>
</glyph>
<glyph name="uni00AD" format="1">
  <advance width="1041"/>
  <unicode hex="00AD"/>
  <outline>
    <contour>
      <point x="121.5" y="136" type="line"/>
      <point x="903.252" y="136" type="line"/>
      <point x="903.252" y="234" type="line"/>
      <point x="121.5" y="234" type="line"/>
    </contour>
  </outline>
</glyph>
<glyph name="registered" format="1">
  <advance width="1744"/>
  <unicode hex="00AE"/>
  <outline>
    <contour>
      <point x="587.6" y="309" type="line"/>
      <point x="674.9" y="309" type="line"/>
      <point x="674.9" y="776" type="line"/>
      <point x="912.5" y="776" type="line"/>
      <point x="1113.2" y="309" type="line"/>
      <point x="1208.6" y="309" type="line"/>
      <point x="1000.7" y="789" type="line"/>
      <point x="1119.5" y="794"/>
      <point x="1181.6" y="890"/>
      <point x="1181.6" y="1031" type="curve" smooth="yes"/>
      <point x="1181.6" y="1193"/>
      <point x="1125.8" y="1273"/>
      <point x="891.8" y="1273" type="curve" smooth="yes"/>
      <point x="587.6" y="1273" type="line"/>
    </contour>
    <contour>
      <point x="675.8" y="860" type="line"/>
      <point x="675.8" y="1189" type="line"/>
      <point x="885.5" y="1189" type="line" smooth="yes"/>
      <point x="1044.8" y="1189"/>
      <point x="1099.7" y="1163"/>
      <point x="1099.7" y="1026" type="curve" smooth="yes"/>
      <point x="1099.7" y="917"/>
      <point x="1069.1" y="860"/>
      <point x="931.4" y="860" type="curve" smooth="yes"/>
    </contour>
    <contour>
      <point x="863" y="36" type="curve" smooth="yes"/>
      <point x="557.9" y="36"/>
      <point x="234.8" y="261"/>
      <point x="234.8" y="756" type="curve" smooth="yes"/>
      <point x="234.8" y="1251"/>
      <point x="557.9" y="1477"/>
      <point x="863" y="1477" type="curve" smooth="yes"/>
      <point x="1168.1" y="1477"/>
      <point x="1494.8" y="1250"/>
      <point x="1494.8" y="756" type="curve" smooth="yes"/>
      <point x="1494.8" y="262"/>
      <point x="1168.1" y="36"/>
    </contour>
    <contour>
      <point x="863" y="-40" type="curve" smooth="yes"/>
      <point x="1210.4" y="-40"/>
      <point x="1592.8" y="210"/>
      <point x="1592.8" y="756" type="curve" smooth="yes"/>
      <point x="1592.8" y="1302"/>
      <point x="1210.4" y="1554"/>
      <point x="863" y="1554" type="curve" smooth="yes"/>
      <point x="515.6" y="1554"/>
      <point x="136.8" y="1302"/>
      <point x="136.8" y="756" type="curve" smooth="yes"/>
      <point x="136.8" y="210"/>
      <point x="515.6" y="-40"/>
    </contour>
  </outline>
</glyph>
<glyph name="macron" format="1">
  <advance width="1133"/>
  <unicode hex="00AF"/>
  <outline>
    <contour>
      <point x="264.6" y="1280" type="line"/>
      <point x="808.6" y="1280" type="line"/>
      <point x="808.6" y="1379" type="line"/>
      <point x="264.6" y="1379" type="line"/>
    </contour>
  </outline>
</glyph>
<glyph name="degree" format="1">
  <advance width="823"/>
  <unicode hex="00B0"/>
  <outline>
    <contour>
      <point x="405" y="991" type="curve" smooth="yes"/>
      <point x="285" y="991"/>
      <point x="193" y="1079"/>
      <point x="193" y="1202" type="curve" smooth="yes"/>
      <point x="193" y="1325"/>
      <point x="287" y="1413"/>
      <point x="405" y="1413" type="curve" smooth="yes"/>
      <point x="526" y="1413"/>
      <point x="619" y="1325"/>
      <point x="619" y="1202" type="curve" smooth="yes"/>
      <point x="619" y="1081"/>
      <point x="526" y="991"/>
    </contour>
    <contour>
      <point x="404" y="916" type="curve" smooth="yes"/>
      <point x="554" y="916"/>
      <point x="704" y="1032"/>
      <point x="704" y="1202" type="curve" smooth="yes"/>
      <point x="704" y="1377"/>
      <point x="551" y="1488"/>
      <point x="404" y="1488" type="curve" smooth="yes"/>
      <point x="262" y="1488"/>
      <point x="108" y="1377"/>
      <point x="108" y="1202" type="curve" smooth="yes"/>
      <point x="108" y="1023"/>
      <point x="264" y="916"/>
    </contour>
  </outline>
</glyph>
<glyph name="plusminus" format="1">
  <advance width="1108"/>
  <unicode hex="00B1"/>
  <outline>
    <contour>
      <point x="101.7" y="0" type="line"/>
      <point x="101.7" y="85" type="line"/>
      <point x="995.952" y="85" type="line"/>
      <point x="995.952" y="0" type="line"/>
    </contour>
    <contour>
      <point x="496.176" y="187" type="line"/>
      <point x="578.976" y="187" type="line"/>
      <point x="578.976" y="591" type="line"/>
      <point x="930.952" y="591" type="line"/>
      <point x="930.952" y="667" type="line"/>
      <point x="578.976" y="667" type="line"/>
      <point x="578.976" y="1061" type="line"/>
      <point x="496.176" y="1061" type="line"/>
      <point x="496.176" y="667" type="line"/>
      <point x="132.7" y="667" type="line"/>
      <point x="132.7" y="591" type="line"/>
      <point x="496.176" y="591" type="line"/>
    </contour>
  </outline>
</glyph>
<glyph name="uni00B2" format="1">
  <advance width="720"/>
  <unicode hex="00B2"/>
  <outline>
    <contour>
      <point x="614.1" y="649" type="line"/>
      <point x="99.0996" y="649" type="line"/>
      <point x="99.0996" y="739" type="line"/>
      <point x="339.1" y="980"/>
      <point x="513.1" y="1132"/>
      <point x="513.1" y="1254" type="curve" smooth="yes"/>
      <point x="513.1" y="1360"/>
      <point x="445.1" y="1406"/>
      <point x="368.1" y="1406" type="curve" smooth="yes"/>
      <point x="286.1" y="1406"/>
      <point x="206.1" y="1370"/>
      <point x="142.1" y="1284" type="curve"/>
      <point x="71.0996" y="1343" type="line"/>
      <point x="122.1" y="1439"/>
      <point x="243.1" y="1504"/>
      <point x="356.1" y="1504" type="curve" smooth="yes"/>
      <point x="511.1" y="1504"/>
      <point x="625.1" y="1422"/>
      <point x="625.1" y="1263" type="curve" smooth="yes"/>
      <point x="625.1" y="1074"/>
      <point x="454.1" y="940"/>
      <point x="242.1" y="746" type="curve"/>
      <point x="614.1" y="746" type="line"/>
    </contour>
  </outline>
</glyph>
<glyph name="uni00B3" format="1">
  <advance width="826"/>
  <unicode hex="00B3"/>
  <outline>
    <contour>
      <point x="426.3" y="626" type="curve" smooth="yes"/>
      <point x="567.3" y="626"/>
      <point x="672.3" y="724"/>
      <point x="672.3" y="875" type="curve" smooth="yes"/>
      <point x="672.3" y="977"/>
      <point x="613.3" y="1059"/>
      <point x="489.3" y="1089" type="curve"/>
      <point x="603.3" y="1107"/>
      <point x="653.3" y="1190"/>
      <point x="653.3" y="1271" type="curve" smooth="yes"/>
      <point x="653.3" y="1423"/>
      <point x="535.3" y="1501"/>
      <point x="414.3" y="1501" type="curve" smooth="yes"/>
      <point x="332.3" y="1501"/>
      <point x="211.3" y="1466"/>
      <point x="159.3" y="1404" type="curve"/>
      <point x="206.3" y="1329" type="line"/>
      <point x="247.3" y="1374"/>
      <point x="345.3" y="1406"/>
      <point x="412.3" y="1406" type="curve" smooth="yes"/>
      <point x="483.3" y="1406"/>
      <point x="544.3" y="1365"/>
      <point x="544.3" y="1271" type="curve" smooth="yes"/>
      <point x="544.3" y="1177"/>
      <point x="447.3" y="1134"/>
      <point x="349.3" y="1134" type="curve" smooth="yes"/>
      <point x="284.3" y="1134" type="line"/>
      <point x="284.3" y="1035" type="line"/>
      <point x="353.3" y="1035" type="line" smooth="yes"/>
      <point x="466.3" y="1035"/>
      <point x="561.3" y="983"/>
      <point x="561.3" y="880" type="curve" smooth="yes"/>
      <point x="561.3" y="774"/>
      <point x="492.3" y="723"/>
      <point x="413.3" y="723" type="curve" smooth="yes"/>
      <point x="350.3" y="723"/>
      <point x="256.3" y="751"/>
      <point x="203.3" y="798" type="curve"/>
      <point x="159.3" y="716" type="line"/>
      <point x="215.3" y="650"/>
      <point x="345.3" y="626"/>
    </contour>
  </outline>
</glyph>
<glyph name="acute" format="1">
  <advance width="631"/>
  <unicode hex="00B4"/>
  <outline>
    <contour>
      <point x="78.2998" y="1258" type="line"/>
      <point x="146.3" y="1258" type="line"/>
      <point x="430.3" y="1630" type="line"/>
      <point x="267.3" y="1630" type="line"/>
    </contour>
  </outline>
</glyph>
<glyph name="paragraph" format="1">
  <advance width="1057"/>
  <unicode hex="00B6"/>
  <outline>
    <contour>
      <point x="495.276" y="-162" type="line"/>
      <point x="574.476" y="-162" type="line"/>
      <point x="574.476" y="1482" type="line"/>
      <point x="780.152" y="1482" type="line"/>
      <point x="780.152" y="-162" type="line"/>
      <point x="868.152" y="-162" type="line"/>
      <point x="868.152" y="1482" type="line"/>
      <point x="940.152" y="1482" type="line"/>
      <point x="940.152" y="1563" type="line"/>
      <point x="474.576" y="1563" type="line" smooth="yes"/>
      <point x="149.1" y="1563"/>
      <point x="107.1" y="1341"/>
      <point x="107.1" y="1227" type="curve" smooth="yes"/>
      <point x="107.1" y="1061"/>
      <point x="192.1" y="871"/>
      <point x="495.276" y="871" type="curve"/>
    </contour>
  </outline>
</glyph>
<glyph name="cedilla" format="1">
  <advance width="570"/>
  <unicode hex="00B8"/>
  <outline>
    <contour>
      <point x="142.2" y="-377" type="line"/>
      <point x="237.2" y="-377" type="line"/>
      <point x="268.2" y="4" type="line"/>
      <point x="215.2" y="4" type="line"/>
    </contour>
  </outline>
</glyph>
<glyph name="uni00B9" format="1">
  <advance width="852"/>
  <unicode hex="00B9"/>
  <outline>
    <contour>
      <point x="200.7" y="701" type="line"/>
      <point x="712.7" y="701" type="line"/>
      <point x="712.7" y="808" type="line"/>
      <point x="531.7" y="808" type="line"/>
      <point x="531.7" y="1487" type="line"/>
      <point x="410.7" y="1487" type="line"/>
      <point x="371.7" y="1448"/>
      <point x="249.7" y="1399"/>
      <point x="200.7" y="1388" type="curve"/>
      <point x="200.7" y="1271" type="line"/>
      <point x="255.7" y="1283"/>
      <point x="356.7" y="1319"/>
      <point x="393.7" y="1344" type="curve"/>
      <point x="393.7" y="808" type="line"/>
      <point x="200.7" y="808" type="line"/>
    </contour>
  </outline>
</glyph>
<glyph name="ordmasculine" format="1">
  <advance width="817"/>
  <unicode hex="00BA"/>
  <outline>
    <contour>
      <point x="180" y="1175" type="curve" smooth="yes"/>
      <point x="180" y="1338"/>
      <point x="259" y="1478"/>
      <point x="404.376" y="1478" type="curve" smooth="yes"/>
      <point x="554.752" y="1478"/>
      <point x="636.752" y="1336"/>
      <point x="636.752" y="1172" type="curve" smooth="yes"/>
      <point x="636.752" y="1013"/>
      <point x="558.752" y="874"/>
      <point x="404.376" y="874" type="curve" smooth="yes"/>
      <point x="258" y="874"/>
      <point x="180" y="1015"/>
    </contour>
    <contour>
      <point x="727.752" y="1174" type="curve" smooth="yes"/>
      <point x="727.752" y="1393"/>
      <point x="609.752" y="1549"/>
      <point x="404.376" y="1549" type="curve" smooth="yes"/>
      <point x="205" y="1549"/>
      <point x="81" y="1390"/>
      <point x="81" y="1174" type="curve" smooth="yes"/>
      <point x="81" y="962"/>
      <point x="205" y="804"/>
      <point x="404.376" y="804" type="curve" smooth="yes"/>
      <point x="591.752" y="804"/>
      <point x="727.752" y="965"/>
    </contour>
  </outline>
</glyph>
<glyph name="guillemotright" format="1">
  <advance width="941"/>
  <unicode hex="00BB"/>
  <outline>
    <contour>
      <point x="537.576" y="920" type="line"/>
      <point x="467.376" y="901" type="line"/>
      <point x="713.652" y="536" type="line"/>
      <point x="461.076" y="178" type="line"/>
      <point x="534.876" y="157" type="line"/>
      <point x="809.652" y="539" type="line"/>
    </contour>
    <contour>
      <point x="227.3" y="920" type="line"/>
      <point x="149.3" y="901" type="line"/>
      <point x="404.376" y="536" type="line"/>
      <point x="141.3" y="178" type="line"/>
      <point x="224.3" y="157" type="line"/>
      <point x="490.776" y="539" type="line"/>
    </contour>
  </outline>
</glyph>
<glyph name="onequarter" format="1">
  <advance width="1519"/>
  <unicode hex="00BC"/>
  <outline>
    <contour>
      <point x="84.2998" y="633" type="line"/>
      <point x="497.7" y="633" type="line"/>
      <point x="497.7" y="720" type="line"/>
      <point x="360.3" y="720" type="line"/>
      <point x="360.3" y="1498" type="line"/>
      <point x="266.3" y="1498" type="line"/>
      <point x="227.3" y="1459"/>
      <point x="129.3" y="1416"/>
      <point x="78.2998" y="1398" type="curve"/>
      <point x="78.2998" y="1310" type="line"/>
      <point x="127.3" y="1327"/>
      <point x="211.3" y="1357"/>
      <point x="248.3" y="1382" type="curve"/>
      <point x="248.3" y="720" type="line"/>
      <point x="84.2998" y="720" type="line"/>
    </contour>
    <contour>
      <point x="1245.6" y="1" type="line"/>
      <point x="1350.6" y="1" type="line"/>
      <point x="1350.6" y="196" type="line"/>
      <point x="1478.6" y="196" type="line"/>
      <point x="1468.6" y="281" type="line"/>
      <point x="1352.6" y="281" type="line"/>
      <point x="1352.6" y="838" type="line"/>
      <point x="1236.6" y="838" type="line"/>
      <point x="904.5" y="262" type="line"/>
      <point x="904.5" y="196" type="line"/>
      <point x="1245.6" y="196" type="line"/>
    </contour>
    <contour>
      <point x="357.3" y="0" type="line"/>
      <point x="456.3" y="0" type="line"/>
      <point x="1253.6" y="1507" type="line"/>
      <point x="1164.6" y="1507" type="line"/>
    </contour>
    <contour>
      <point x="1016.1" y="281" type="line"/>
      <point x="1245.6" y="681" type="line"/>
      <point x="1245.6" y="281" type="line"/>
    </contour>
  </outline>
</glyph>
<glyph name="onehalf" format="1">
  <advance width="1556"/>
  <unicode hex="00BD"/>
  <outline>
    <contour>
      <point x="129.1" y="633" type="line"/>
      <point x="465.576" y="633" type="line"/>
      <point x="465.576" y="727" type="line"/>
      <point x="356.1" y="727" type="line"/>
      <point x="356.1" y="1498" type="line"/>
      <point x="262.1" y="1498" type="line"/>
      <point x="223.1" y="1459"/>
      <point x="176.1" y="1428"/>
      <point x="116.1" y="1398" type="curve"/>
      <point x="116.1" y="1299" type="line"/>
      <point x="159.1" y="1321"/>
      <point x="207.1" y="1347"/>
      <point x="244.1" y="1372" type="curve"/>
      <point x="244.1" y="727" type="line"/>
      <point x="129.1" y="727" type="line"/>
    </contour>
    <contour>
      <point x="946.5" y="-1" type="line"/>
      <point x="1432.48" y="-1" type="line"/>
      <point x="1432.48" y="95" type="line"/>
      <point x="1075.2" y="95" type="line"/>
      <point x="1273.48" y="289"/>
      <point x="1426.28" y="423"/>
      <point x="1426.28" y="612" type="curve" smooth="yes"/>
      <point x="1426.28" y="772"/>
      <point x="1294.48" y="854"/>
      <point x="1172.08" y="854" type="curve" smooth="yes"/>
      <point x="1070.38" y="854"/>
      <point x="962.376" y="788"/>
      <point x="916.476" y="692" type="curve"/>
      <point x="979.476" y="633" type="line"/>
      <point x="1037.08" y="719"/>
      <point x="1108.18" y="756"/>
      <point x="1182.88" y="756" type="curve" smooth="yes"/>
      <point x="1252.18" y="756"/>
      <point x="1314.28" y="709"/>
      <point x="1314.28" y="603" type="curve" smooth="yes"/>
      <point x="1314.28" y="481"/>
      <point x="1162.5" y="330"/>
      <point x="946.5" y="89" type="curve"/>
    </contour>
    <contour>
      <point x="310.1" y="0" type="line"/>
      <point x="410.1" y="0" type="line"/>
      <point x="1201.78" y="1507" type="line"/>
      <point x="1112.68" y="1507" type="line"/>
    </contour>
  </outline>
</glyph>
<glyph name="threequarters" format="1">
  <advance width="1579"/>
  <unicode hex="00BE"/>
  <outline>
    <contour>
      <point x="360.6" y="626" type="curve" smooth="yes"/>
      <point x="501.2" y="626"/>
      <point x="595.7" y="724"/>
      <point x="595.7" y="875" type="curve" smooth="yes"/>
      <point x="595.7" y="977"/>
      <point x="542.6" y="1059"/>
      <point x="423.6" y="1089" type="curve"/>
      <point x="533.6" y="1107"/>
      <point x="578.6" y="1190"/>
      <point x="578.6" y="1271" type="curve" smooth="yes"/>
      <point x="578.6" y="1423"/>
      <point x="470.6" y="1501"/>
      <point x="349.6" y="1501" type="curve" smooth="yes"/>
      <point x="267.6" y="1501"/>
      <point x="145.6" y="1466"/>
      <point x="93.5996" y="1404" type="curve"/>
      <point x="140.6" y="1329" type="line"/>
      <point x="181.6" y="1374"/>
      <point x="280.6" y="1406"/>
      <point x="347.6" y="1406" type="curve" smooth="yes"/>
      <point x="418.6" y="1406"/>
      <point x="478.6" y="1365"/>
      <point x="478.6" y="1271" type="curve" smooth="yes"/>
      <point x="478.6" y="1177"/>
      <point x="381.6" y="1134"/>
      <point x="283.6" y="1134" type="curve" smooth="yes"/>
      <point x="218.6" y="1134" type="line"/>
      <point x="218.6" y="1035" type="line"/>
      <point x="288.6" y="1035" type="line" smooth="yes"/>
      <point x="401.6" y="1035"/>
      <point x="495.6" y="983"/>
      <point x="495.6" y="880" type="curve" smooth="yes"/>
      <point x="495.6" y="774"/>
      <point x="426.6" y="723"/>
      <point x="347.6" y="723" type="curve" smooth="yes"/>
      <point x="284.6" y="723"/>
      <point x="191.6" y="751"/>
      <point x="138.6" y="798" type="curve"/>
      <point x="93.5996" y="716" type="line"/>
      <point x="149.6" y="650"/>
      <point x="279.6" y="626"/>
    </contour>
    <contour>
      <point x="1248.2" y="1" type="line"/>
      <point x="1353.2" y="1" type="line"/>
      <point x="1353.2" y="196" type="line"/>
      <point x="1481.2" y="196" type="line"/>
      <point x="1471.2" y="281" type="line"/>
      <point x="1355.2" y="281" type="line"/>
      <point x="1355.2" y="838" type="line"/>
      <point x="1239.2" y="838" type="line"/>
      <point x="907.1" y="262" type="line"/>
      <point x="907.1" y="196" type="line"/>
      <point x="1248.2" y="196" type="line"/>
    </contour>
    <contour>
      <point x="398.6" y="0" type="line"/>
      <point x="497.6" y="0" type="line"/>
      <point x="1299.2" y="1507" type="line"/>
      <point x="1205.9" y="1507" type="line"/>
    </contour>
    <contour>
      <point x="1018.7" y="281" type="line"/>
      <point x="1248.2" y="681" type="line"/>
      <point x="1248.2" y="281" type="line"/>
    </contour>
  </outline>
</glyph>
<glyph name="AE" format="1">
  <advance width="1633"/>
  <unicode hex="00C6"/>
  <outline>
    <contour>
      <point x="0.900391" y="0" type="line"/>
      <point x="123.9" y="0" type="line"/>
      <point x="431.376" y="525" type="line"/>
      <point x="355.776" y="492" type="line"/>
      <point x="900.276" y="492" type="line"/>
      <point x="843.576" y="529" type="line"/>
      <point x="856.176" y="0" type="line"/>
      <point x="1517.95" y="0" type="line"/>
      <point x="1516.95" y="94" type="line"/>
      <point x="919.176" y="94" type="line"/>
      <point x="959.676" y="49" type="line"/>
      <point x="937.176" y="733" type="line"/>
      <point x="900.276" y="698" type="line"/>
      <point x="1453.95" y="698" type="line"/>
      <point x="1453.95" y="792" type="line"/>
      <point x="895.776" y="792" type="line"/>
      <point x="937.176" y="751" type="line"/>
      <point x="918.276" y="1393" type="line"/>
      <point x="882.276" y="1355" type="line"/>
      <point x="1466.95" y="1355" type="line"/>
      <point x="1464.95" y="1449" type="line"/>
      <point x="814.776" y="1449" type="line"/>
    </contour>
    <contour>
      <point x="440.376" y="548" type="line"/>
      <point x="403.476" y="582" type="line"/>
      <point x="886.776" y="583" type="line"/>
      <point x="845.376" y="551" type="line"/>
      <point x="826.476" y="1376" type="line"/>
      <point x="866.976" y="1376" type="line"/>
    </contour>
  </outline>
</glyph>
<glyph name="Eth" format="1">
  <advance width="1461"/>
  <unicode hex="00D0"/>
  <outline>
    <component base="D"/>
    <contour>
      <point x="647.8" y="791" type="line"/>
      <point x="73.7998" y="791" type="line"/>
      <point x="73.7998" y="705" type="line"/>
      <point x="647.8" y="705" type="line"/>
    </contour>
  </outline>
</glyph>
<glyph name="multiply" format="1">
  <advance width="731"/>
  <unicode hex="00D7"/>
  <outline>
    <contour>
      <point x="632.5" y="231" type="line"/>
      <point x="686.5" y="289" type="line"/>
      <point x="424.5" y="576" type="line"/>
      <point x="682.5" y="849" type="line"/>
      <point x="619.5" y="910" type="line"/>
      <point x="367.5" y="638" type="line"/>
      <point x="113.5" y="916" type="line"/>
      <point x="53.5" y="854" type="line"/>
      <point x="311.5" y="577" type="line"/>
      <point x="40.5" y="286" type="line"/>
      <point x="99.5" y="230" type="line"/>
      <point x="367.5" y="515" type="line"/>
    </contour>
  </outline>
</glyph>
<glyph name="Oslash" format="1">
  <advance width="1519"/>
  <unicode hex="00D8"/>
  <outline>
    <component base="O"/>
    <contour>
      <point x="451.8" y="-223" type="line"/>
      <point x="1107" y="1639" type="line"/>
      <point x="1029.6" y="1671" type="line"/>
      <point x="378.9" y="-196" type="line"/>
    </contour>
  </outline>
</glyph>
<glyph name="Thorn" format="1">
  <advance width="1179"/>
  <unicode hex="00DE"/>
  <outline>
    <contour>
      <point x="206.1" y="0" type="line"/>
      <point x="328.1" y="0" type="line"/>
      <point x="328.1" y="500" type="line"/>
      <point x="271.1" y="458" type="line"/>
      <point x="650.976" y="458" type="line" smooth="yes"/>
      <point x="939.352" y="458"/>
      <point x="1073.35" y="590"/>
      <point x="1073.35" y="844" type="curve" smooth="yes"/>
      <point x="1073.35" y="1092"/>
      <point x="889.352" y="1192"/>
      <point x="655.476" y="1192" type="curve" smooth="yes"/>
      <point x="328.1" y="1192" type="line"/>
      <point x="328.1" y="1449" type="line"/>
      <point x="206.1" y="1449" type="line"/>
    </contour>
    <contour>
      <point x="328.1" y="515" type="line"/>
      <point x="328.1" y="1152" type="line"/>
      <point x="270.1" y="1098" type="line"/>
      <point x="648.276" y="1098" type="line" smooth="yes"/>
      <point x="814.776" y="1098"/>
      <point x="951.352" y="1039"/>
      <point x="951.352" y="845" type="curve" smooth="yes"/>
      <point x="951.352" y="620"/>
      <point x="842.352" y="552"/>
      <point x="652.776" y="552" type="curve" smooth="yes"/>
      <point x="270.1" y="552" type="line"/>
    </contour>
  </outline>
</glyph>
<glyph name="germandbls" format="1">
  <advance width="1107"/>
  <unicode hex="00DF"/>
  <outline>
    <contour>
      <point x="295.7" y="0" type="line"/>
      <point x="173.7" y="0" type="line"/>
      <point x="173.7" y="1019" type="line" smooth="yes"/>
      <point x="173.7" y="1308"/>
      <point x="278.7" y="1485"/>
      <point x="550.4" y="1485" type="curve" smooth="yes"/>
      <point x="772.5" y="1485"/>
      <point x="890.5" y="1351"/>
      <point x="890.5" y="1183" type="curve" smooth="yes"/>
      <point x="890.5" y="987"/>
      <point x="665.5" y="848"/>
      <point x="665.5" y="748" type="curve" smooth="yes"/>
      <point x="665.5" y="624"/>
      <point x="1056.5" y="564"/>
      <point x="1018.2" y="278" type="curve" smooth="yes"/>
      <point x="1018.2" y="101"/>
      <point x="906.2" y="-19"/>
      <point x="732.2" y="-19" type="curve" smooth="yes"/>
      <point x="606.2" y="-19"/>
      <point x="487.4" y="24"/>
      <point x="432.5" y="60" type="curve"/>
      <point x="465.8" y="156" type="line"/>
      <point x="521.6" y="123"/>
      <point x="616.1" y="81"/>
      <point x="728.6" y="81" type="curve" smooth="yes"/>
      <point x="861.8" y="81"/>
      <point x="903.2" y="186"/>
      <point x="903.2" y="269" type="curve" smooth="yes"/>
      <point x="941.5" y="493"/>
      <point x="558.5" y="542"/>
      <point x="558.5" y="739" type="curve" smooth="yes"/>
      <point x="558.5" y="902"/>
      <point x="766.5" y="966"/>
      <point x="767.5" y="1184" type="curve" smooth="yes"/>
      <point x="768.5" y="1302"/>
      <point x="701.5" y="1392"/>
      <point x="550.4" y="1392" type="curve" smooth="yes"/>
      <point x="371.3" y="1392"/>
      <point x="295.7" y="1299"/>
      <point x="295.7" y="1028" type="curve" smooth="yes"/>
    </contour>
  </outline>
</glyph>
<glyph name="ae" format="1">
  <advance width="1652"/>
  <unicode hex="00E6"/>
  <outline>
    <contour>
      <point x="427.776" y="-14" type="curve" smooth="yes"/>
      <point x="581.676" y="-14"/>
      <point x="766.176" y="70"/>
      <point x="844.476" y="178" type="curve"/>
      <point x="914.676" y="52"/>
      <point x="1031.68" y="-19"/>
      <point x="1184.68" y="-19" type="curve" smooth="yes"/>
      <point x="1323.28" y="-19"/>
      <point x="1415.08" y="18"/>
      <point x="1514.98" y="74" type="curve"/>
      <point x="1477.98" y="153" type="line"/>
      <point x="1361.08" y="92"/>
      <point x="1292.68" y="75"/>
      <point x="1199.08" y="75" type="curve" smooth="yes"/>
      <point x="1009.18" y="75"/>
      <point x="870.576" y="198"/>
      <point x="861.576" y="515" type="curve"/>
      <point x="1369.18" y="515"/>
      <point x="1522.98" y="565"/>
      <point x="1522.98" y="791" type="curve" smooth="yes"/>
      <point x="1522.98" y="937"/>
      <point x="1401.58" y="1074"/>
      <point x="1180.18" y="1074" type="curve" smooth="yes"/>
      <point x="1030.78" y="1074"/>
      <point x="866.076" y="978"/>
      <point x="834.576" y="794" type="curve"/>
      <point x="825.576" y="998"/>
      <point x="690.576" y="1075"/>
      <point x="515.076" y="1075" type="curve" smooth="yes"/>
      <point x="406.176" y="1075"/>
      <point x="257.4" y="1036"/>
      <point x="171.4" y="988" type="curve"/>
      <point x="211.4" y="901" type="line"/>
      <point x="306.4" y="953"/>
      <point x="436.776" y="983"/>
      <point x="533.976" y="983" type="curve" smooth="yes"/>
      <point x="698.676" y="983"/>
      <point x="759.876" y="886"/>
      <point x="759.876" y="723" type="curve" smooth="yes"/>
      <point x="759.876" y="600" type="line"/>
      <point x="588.876" y="600" type="line" smooth="yes"/>
      <point x="262.4" y="600"/>
      <point x="113.4" y="506"/>
      <point x="113.4" y="296" type="curve" smooth="yes"/>
      <point x="113.4" y="71"/>
      <point x="263.4" y="-14"/>
    </contour>
    <contour>
      <point x="442.176" y="85" type="curve" smooth="yes"/>
      <point x="324.4" y="85"/>
      <point x="232.4" y="151"/>
      <point x="232.4" y="308" type="curve" smooth="yes"/>
      <point x="232.4" y="454"/>
      <point x="314.4" y="518"/>
      <point x="608.676" y="518" type="curve" smooth="yes"/>
      <point x="759.876" y="518" type="line"/>
      <point x="759.876" y="436"/>
      <point x="772.476" y="339"/>
      <point x="801.276" y="262" type="curve"/>
      <point x="720.276" y="159"/>
      <point x="563.676" y="85"/>
    </contour>
    <contour>
      <point x="865.176" y="595" type="curve"/>
      <point x="884.976" y="821"/>
      <point x="995.676" y="982"/>
      <point x="1184.68" y="982" type="curve" smooth="yes"/>
      <point x="1345.78" y="982"/>
      <point x="1424.98" y="884"/>
      <point x="1424.98" y="781" type="curve" smooth="yes"/>
      <point x="1424.98" y="626"/>
      <point x="1252.18" y="595"/>
    </contour>
  </outline>
</glyph>
<glyph name="eth" format="1">
  <advance width="1224"/>
  <unicode hex="00F0"/>
  <outline>
    <contour>
      <point x="592.7" y="-29" type="curve" smooth="yes"/>
      <point x="900.5" y="-29"/>
      <point x="1043.9" y="209"/>
      <point x="1043.9" y="487" type="curve" smooth="yes"/>
      <point x="1043.9" y="619"/>
      <point x="1012.9" y="763"/>
      <point x="965.9" y="860" type="curve" smooth="yes"/>
      <point x="906.8" y="987"/>
      <point x="818.6" y="1122"/>
      <point x="612.5" y="1360" type="curve"/>
      <point x="862.7" y="1461" type="line"/>
      <point x="824.9" y="1537" type="line"/>
      <point x="554" y="1423" type="line"/>
      <point x="395.6" y="1594" type="line"/>
      <point x="274.1" y="1594" type="line"/>
      <point x="476.6" y="1391" type="line"/>
      <point x="252.2" y="1297" type="line"/>
      <point x="289.4" y="1220" type="line"/>
      <point x="527" y="1320" type="line"/>
      <point x="748.4" y="1085"/>
      <point x="837.5" y="941"/>
      <point x="890.6" y="822" type="curve"/>
      <point x="826.7" y="882"/>
      <point x="764.6" y="963"/>
      <point x="590" y="963" type="curve" smooth="yes"/>
      <point x="338.9" y="963"/>
      <point x="142.2" y="768"/>
      <point x="142.2" y="479" type="curve" smooth="yes"/>
      <point x="142.2" y="224"/>
      <point x="293" y="-29"/>
    </contour>
    <contour>
      <point x="598.1" y="59" type="curve" smooth="yes"/>
      <point x="367.7" y="59"/>
      <point x="264.2" y="273"/>
      <point x="264.2" y="477" type="curve" smooth="yes"/>
      <point x="264.2" y="697"/>
      <point x="385.7" y="871"/>
      <point x="591.8" y="871" type="curve" smooth="yes"/>
      <point x="813.2" y="871"/>
      <point x="932.9" y="678"/>
      <point x="932.9" y="492" type="curve" smooth="yes"/>
      <point x="932.9" y="232"/>
      <point x="822.2" y="59"/>
    </contour>
  </outline>
</glyph>
<glyph name="divide" format="1">
  <advance width="1014"/>
  <unicode hex="00F7"/>
  <outline>
    <contour>
      <point x="425.076" y="37" type="line"/>
      <point x="564.576" y="37" type="line"/>
      <point x="564.576" y="207" type="line"/>
      <point x="425.076" y="207" type="line"/>
    </contour>
    <contour>
      <point x="58.5" y="507" type="line"/>
      <point x="929.352" y="507" type="line"/>
      <point x="929.352" y="617" type="line"/>
      <point x="58.5" y="617" type="line"/>
    </contour>
    <contour>
      <point x="425.076" y="886" type="line"/>
      <point x="564.576" y="886" type="line"/>
      <point x="564.576" y="1055" type="line"/>
      <point x="425.076" y="1055" type="line"/>
    </contour>
  </outline>
</glyph>
<glyph name="oslash" format="1">
  <advance width="1140"/>
  <unicode hex="00F8"/>
  <outline>
    <component base="o"/>
    <contour>
      <point x="264.6" y="-151" type="line"/>
      <point x="931.535" y="1186" type="line"/>
      <point x="864.535" y="1218" type="line"/>
      <point x="209.7" y="-118" type="line"/>
    </contour>
  </outline>
</glyph>
<glyph name="thorn" format="1">
  <advance width="1189"/>
  <unicode hex="00FE"/>
  <outline>
    <contour>
      <point x="173.7" y="-480" type="line"/>
      <point x="173.7" y="1478" type="line"/>
      <point x="295.7" y="1489" type="line"/>
      <point x="295.7" y="1111" type="line"/>
      <point x="285.7" y="774" type="line"/>
      <point x="264.7" y="779" type="line"/>
      <point x="320.7" y="948"/>
      <point x="450.276" y="1074"/>
      <point x="630.276" y="1074" type="curve" smooth="yes"/>
      <point x="906.576" y="1074"/>
      <point x="1054.68" y="856"/>
      <point x="1054.68" y="520" type="curve" smooth="yes"/>
      <point x="1054.68" y="201"/>
      <point x="896.676" y="-19"/>
      <point x="638.376" y="-19" type="curve" smooth="yes"/>
      <point x="430.476" y="-19"/>
      <point x="300.7" y="149"/>
      <point x="246.7" y="315" type="curve"/>
      <point x="282.7" y="347" type="line"/>
      <point x="295.7" y="-87" type="line"/>
      <point x="295.7" y="-472" type="line"/>
    </contour>
    <contour>
      <point x="624.876" y="73" type="curve" smooth="yes"/>
      <point x="844.476" y="73"/>
      <point x="932.676" y="257"/>
      <point x="932.676" y="522" type="curve" smooth="yes"/>
      <point x="932.676" y="775"/>
      <point x="858.876" y="982"/>
      <point x="635.676" y="982" type="curve" smooth="yes"/>
      <point x="396.7" y="982"/>
      <point x="291.7" y="787"/>
      <point x="291.7" y="540" type="curve" smooth="yes"/>
      <point x="291.7" y="259"/>
      <point x="424.176" y="73"/>
    </contour>
  </outline>
</glyph>
<glyph name="Dcroat" format="1">
  <advance width="1454"/>
  <unicode hex="0110"/>
  <outline>
    <component base="D"/>
    <contour>
      <point x="54.9004" y="698" type="line"/>
      <point x="54.9004" y="789" type="line"/>
      <point x="575.9" y="789" type="line"/>
      <point x="575.9" y="698" type="line"/>
    </contour>
  </outline>
</glyph>
<glyph name="dcroat" format="1">
  <advance width="1171"/>
  <unicode hex="0111"/>
  <outline>
    <component base="d"/>
    <contour>
      <point x="123.3" y="1196" type="line"/>
      <point x="123.3" y="1305" type="line"/>
      <point x="578.19" y="1305" type="line"/>
      <point x="578.19" y="1196" type="line"/>
    </contour>
  </outline>
</glyph>
<glyph name="Hbar" format="1">
  <advance width="1566"/>
  <unicode hex="0126"/>
  <outline>
    <contour>
      <point x="260.5" y="0" type="line"/>
      <point x="260.5" y="1099" type="line"/>
      <point x="166.5" y="1099" type="line"/>
      <point x="166.5" y="1171" type="line"/>
      <point x="260.5" y="1171" type="line"/>
      <point x="260.5" y="1474" type="line"/>
      <point x="354.5" y="1474" type="line"/>
      <point x="354.5" y="1171" type="line"/>
      <point x="1178" y="1171" type="line"/>
      <point x="1178" y="1474" type="line"/>
      <point x="1272" y="1474" type="line"/>
      <point x="1272" y="1171" type="line"/>
      <point x="1366" y="1171" type="line"/>
      <point x="1366" y="1099" type="line"/>
      <point x="1272" y="1099" type="line"/>
      <point x="1272" y="0" type="line"/>
      <point x="1178" y="0" type="line"/>
      <point x="1178" y="704" type="line"/>
      <point x="354.5" y="704" type="line"/>
      <point x="354.5" y="0" type="line"/>
    </contour>
    <contour>
      <point x="354.5" y="814" type="line"/>
      <point x="1178" y="814" type="line"/>
      <point x="1178" y="1099" type="line"/>
      <point x="354.5" y="1099" type="line"/>
    </contour>
  </outline>
</glyph>
<glyph name="hbar" format="1">
  <advance width="1198"/>
  <unicode hex="0127"/>
  <outline>
    <contour>
      <point x="273.2" y="0" type="line"/>
      <point x="362.2" y="0" type="line"/>
      <point x="362.2" y="725" type="line"/>
      <point x="373.9" y="833"/>
      <point x="515.2" y="989"/>
      <point x="696.1" y="989" type="curve" smooth="yes"/>
      <point x="895" y="989"/>
      <point x="926.5" y="853"/>
      <point x="926.5" y="569" type="curve" smooth="yes"/>
      <point x="926.5" y="0" type="line"/>
      <point x="1015.5" y="0" type="line"/>
      <point x="1015.5" y="639" type="line" smooth="yes"/>
      <point x="1015.5" y="887"/>
      <point x="956.5" y="1087"/>
      <point x="741.1" y="1087" type="curve" smooth="yes"/>
      <point x="574.6" y="1087"/>
      <point x="448.6" y="1014"/>
      <point x="362.2" y="886" type="curve"/>
      <point x="362.2" y="1271" type="line"/>
      <point x="597.1" y="1271" type="line"/>
      <point x="597.1" y="1358" type="line"/>
      <point x="362.2" y="1358" type="line"/>
      <point x="362.2" y="1461" type="line"/>
      <point x="273.2" y="1441" type="line"/>
      <point x="273.2" y="1358" type="line"/>
      <point x="187.2" y="1358" type="line"/>
      <point x="187.2" y="1271" type="line"/>
      <point x="273.2" y="1271" type="line"/>
    </contour>
  </outline>
</glyph>
<glyph name="dotlessi" format="1">
  <advance width="373"/>
  <unicode hex="0131"/>
  <outline>
    <contour>
      <point x="140.4" y="0" type="line"/>
      <point x="230.4" y="0" type="line"/>
      <point x="230.4" y="1055" type="line"/>
      <point x="140.4" y="1055" type="line"/>
    </contour>
  </outline>
</glyph>
<glyph name="kgreenlandic" format="1">
  <advance width="1029"/>
  <unicode hex="0138"/>
  <outline>
    <contour>
      <point x="173.7" y="0" type="line"/>
      <point x="173.7" y="1055" type="line"/>
      <point x="295.7" y="1055" type="line"/>
      <point x="295.7" y="703" type="line"/>
      <point x="288.7" y="465" type="line"/>
      <point x="249.7" y="465" type="line"/>
      <point x="822.6" y="1055" type="line"/>
      <point x="967.6" y="1055" type="line"/>
      <point x="460.4" y="537" type="line"/>
      <point x="475.7" y="598" type="line"/>
      <point x="974.6" y="0" type="line"/>
      <point x="818.6" y="0" type="line"/>
      <point x="387.5" y="537" type="line"/>
      <point x="440.6" y="537" type="line"/>
      <point x="260.7" y="367" type="line"/>
      <point x="295.7" y="426" type="line"/>
      <point x="295.7" y="0" type="line"/>
    </contour>
  </outline>
</glyph>
<glyph name="Lslash" format="1">
  <advance width="1068"/>
  <unicode hex="0141"/>
  <outline>
    <component base="L"/>
    <contour>
      <point x="42.2998" y="541" type="line"/>
      <point x="42.2998" y="640" type="line"/>
      <point x="650.3" y="950" type="line"/>
      <point x="650.3" y="852" type="line"/>
    </contour>
  </outline>
</glyph>
<glyph name="lslash" format="1">
  <advance width="950"/>
  <unicode hex="0142"/>
  <outline>
    <component base="l"/>
    <contour>
      <point x="42.2998" y="606" type="line"/>
      <point x="42.2998" y="704" type="line"/>
      <point x="547.3" y="965" type="line"/>
      <point x="547.3" y="866" type="line"/>
    </contour>
  </outline>
</glyph>
<glyph name="Eng" format="1">
  <advance width="1308"/>
  <unicode hex="014A"/>
  <outline>
    <contour>
      <point x="769.4" y="-314" type="curve" smooth="yes"/>
      <point x="731.6" y="-314"/>
      <point x="683.9" y="-312"/>
      <point x="521" y="-295" type="curve"/>
      <point x="501.2" y="-215" type="line"/>
      <point x="681.2" y="-226"/>
      <point x="669.5" y="-227"/>
      <point x="697.4" y="-227" type="curve" smooth="yes"/>
      <point x="1007.9" y="-227"/>
      <point x="1024.1" y="-144"/>
      <point x="1024.1" y="179" type="curve" smooth="yes"/>
      <point x="1024.1" y="1011" type="line" smooth="yes"/>
      <point x="1024.1" y="1290"/>
      <point x="953" y="1379"/>
      <point x="727.1" y="1379" type="curve" smooth="yes"/>
      <point x="469.7" y="1379"/>
      <point x="319.4" y="1215"/>
      <point x="231.2" y="1080" type="curve"/>
      <point x="231.2" y="0" type="line"/>
      <point x="164.2" y="0" type="line"/>
      <point x="160.2" y="1470" type="line"/>
      <point x="227.2" y="1470" type="line"/>
      <point x="239.3" y="1230" type="line"/>
      <point x="449.9" y="1474"/>
      <point x="601.1" y="1494"/>
      <point x="764.9" y="1494" type="curve" smooth="yes"/>
      <point x="972.8" y="1494"/>
      <point x="1090.1" y="1335"/>
      <point x="1090.1" y="1013" type="curve" smooth="yes"/>
      <point x="1090.1" y="166" type="line" smooth="yes"/>
      <point x="1090.1" y="-126"/>
      <point x="1081.1" y="-314"/>
    </contour>
  </outline>
</glyph>
<glyph name="eng" format="1">
  <advance width="1136"/>
  <unicode hex="014B"/>
  <outline>
    <contour>
      <point x="584.6" y="-254" type="line"/>
      <point x="645.8" y="-254" type="line" smooth="yes"/>
      <point x="880.9" y="-254"/>
      <point x="910.9" y="-107"/>
      <point x="910.9" y="184" type="curve" smooth="yes"/>
      <point x="910.9" y="636" type="line" smooth="yes"/>
      <point x="910.9" y="935"/>
      <point x="813.9" y="1075"/>
      <point x="593.6" y="1075" type="curve" smooth="yes"/>
      <point x="455" y="1075"/>
      <point x="353.3" y="1019"/>
      <point x="289.4" y="882" type="curve"/>
      <point x="273.9" y="1055" type="line"/>
      <point x="162.9" y="1055" type="line"/>
      <point x="162.9" y="0" type="line"/>
      <point x="284.9" y="0" type="line"/>
      <point x="284.9" y="620" type="line" smooth="yes"/>
      <point x="284.9" y="650"/>
      <point x="287.6" y="679"/>
      <point x="287.6" y="715" type="curve"/>
      <point x="312.8" y="866"/>
      <point x="381.2" y="983"/>
      <point x="583.7" y="983" type="curve" smooth="yes"/>
      <point x="751.1" y="983"/>
      <point x="788.9" y="862"/>
      <point x="788.9" y="674" type="curve" smooth="yes"/>
      <point x="788.9" y="131" type="line" smooth="yes"/>
      <point x="788.9" y="-100"/>
      <point x="772.7" y="-127"/>
      <point x="606.2" y="-127" type="curve" smooth="yes"/>
      <point x="584.6" y="-127" type="line"/>
    </contour>
  </outline>
</glyph>
<glyph name="OE" format="1">
  <advance width="1841"/>
  <unicode hex="0152"/>
  <outline>
    <contour>
      <point x="784.3" y="-26" type="curve" smooth="yes"/>
      <point x="337.9" y="-26"/>
      <point x="143.1" y="290"/>
      <point x="143.1" y="769" type="curve"/>
      <point x="158.1" y="1194"/>
      <point x="406.3" y="1501"/>
      <point x="752.8" y="1501" type="curve" smooth="yes"/>
      <point x="892.3" y="1501"/>
      <point x="1012" y="1448"/>
      <point x="1065.1" y="1381" type="curve"/>
      <point x="1065.1" y="1470" type="line"/>
      <point x="1619.1" y="1470" type="line"/>
      <point x="1605.1" y="1366" type="line"/>
      <point x="1167.1" y="1366" type="line"/>
      <point x="1167.1" y="802" type="line"/>
      <point x="1564.1" y="802" type="line"/>
      <point x="1564.1" y="698" type="line"/>
      <point x="1167.1" y="698" type="line"/>
      <point x="1167.1" y="106" type="line"/>
      <point x="1639.1" y="106" type="line"/>
      <point x="1627.1" y="-3" type="line"/>
      <point x="1065.1" y="-3" type="line"/>
      <point x="1065.1" y="86" type="line"/>
      <point x="1054.3" y="45"/>
      <point x="880.6" y="-26"/>
    </contour>
    <contour>
      <point x="787.9" y="76" type="curve"/>
      <point x="885.1" y="76"/>
      <point x="1035.4" y="146"/>
      <point x="1065.1" y="155" type="curve"/>
      <point x="1065.1" y="1296" type="line"/>
      <point x="994" y="1353"/>
      <point x="888.7" y="1400"/>
      <point x="777.1" y="1400" type="curve" smooth="yes"/>
      <point x="468.4" y="1400"/>
      <point x="274.9" y="1157"/>
      <point x="264.1" y="774" type="curve"/>
      <point x="264.1" y="382"/>
      <point x="385.6" y="82"/>
    </contour>
  </outline>
</glyph>
<glyph name="oe" format="1">
  <advance width="1897"/>
  <unicode hex="0153"/>
  <outline>
    <contour>
      <point x="1394.7" y="-19" type="curve" smooth="yes"/>
      <point x="1194.7" y="-19"/>
      <point x="1034.7" y="72"/>
      <point x="955.7" y="282" type="curve"/>
      <point x="877.8" y="87"/>
      <point x="739.2" y="-19"/>
      <point x="566.4" y="-19" type="curve" smooth="yes"/>
      <point x="291.9" y="-19"/>
      <point x="116.1" y="214"/>
      <point x="116.1" y="524" type="curve" smooth="yes"/>
      <point x="116.1" y="840"/>
      <point x="291.9" y="1074"/>
      <point x="566.4" y="1074" type="curve" smooth="yes"/>
      <point x="756.3" y="1074"/>
      <point x="889.5" y="970"/>
      <point x="962.7" y="761" type="curve"/>
      <point x="1044.7" y="977"/>
      <point x="1192.3" y="1074"/>
      <point x="1352.5" y="1074" type="curve" smooth="yes"/>
      <point x="1583.8" y="1074"/>
      <point x="1724.3" y="884"/>
      <point x="1724.3" y="588" type="curve" smooth="yes"/>
      <point x="1724.3" y="557"/>
      <point x="1718.3" y="521"/>
      <point x="1718.3" y="521" type="curve"/>
      <point x="1017.7" y="521" type="line"/>
      <point x="1025.7" y="201"/>
      <point x="1192.7" y="75"/>
      <point x="1404.7" y="75" type="curve" smooth="yes"/>
      <point x="1508.7" y="75"/>
      <point x="1607.7" y="92"/>
      <point x="1731.7" y="153" type="curve"/>
      <point x="1767.7" y="74" type="line"/>
      <point x="1666.7" y="18"/>
      <point x="1548.7" y="-19"/>
    </contour>
    <contour>
      <point x="566.4" y="73" type="curve" smooth="yes"/>
      <point x="797.7" y="73"/>
      <point x="896.7" y="277"/>
      <point x="896.7" y="521" type="curve" smooth="yes"/>
      <point x="896.7" y="776"/>
      <point x="795" y="982"/>
      <point x="566.4" y="982" type="curve" smooth="yes"/>
      <point x="344.1" y="982"/>
      <point x="236.1" y="777"/>
      <point x="236.1" y="522" type="curve" smooth="yes"/>
      <point x="236.1" y="277"/>
      <point x="344.1" y="73"/>
    </contour>
    <contour>
      <point x="1624.3" y="597" type="line"/>
      <point x="1616.2" y="848"/>
      <point x="1534.3" y="982"/>
      <point x="1357" y="982" type="curve" smooth="yes"/>
      <point x="1168" y="982"/>
      <point x="1042.9" y="823"/>
      <point x="1022.2" y="597" type="curve"/>
    </contour>
  </outline>
</glyph>
<glyph name="tbar" format="1">
  <advance width="859"/>
  <unicode hex="0167"/>
  <outline>
    <contour>
      <point x="552.8" y="-19" type="curve" smooth="yes"/>
      <point x="292.8" y="-19"/>
      <point x="272.8" y="108"/>
      <point x="272.8" y="433" type="curve" smooth="yes"/>
      <point x="272.8" y="622" type="line"/>
      <point x="121.8" y="622" type="line"/>
      <point x="121.8" y="744" type="line"/>
      <point x="272.8" y="744" type="line"/>
      <point x="272.8" y="954" type="line"/>
      <point x="109.8" y="954" type="line"/>
      <point x="122.8" y="1069" type="line"/>
      <point x="272.8" y="1069" type="line"/>
      <point x="314.8" y="1311" type="line"/>
      <point x="435.8" y="1319" type="line"/>
      <point x="435.8" y="1069" type="line"/>
      <point x="718.8" y="1069" type="line"/>
      <point x="718.8" y="954" type="line"/>
      <point x="435.8" y="954" type="line"/>
      <point x="435.8" y="744" type="line"/>
      <point x="639.8" y="744" type="line"/>
      <point x="639.8" y="622" type="line"/>
      <point x="435.8" y="622" type="line"/>
      <point x="435.8" y="357" type="line" smooth="yes"/>
      <point x="435.8" y="157"/>
      <point x="458.8" y="114"/>
      <point x="589.8" y="114" type="curve" smooth="yes"/>
      <point x="607.8" y="114"/>
      <point x="647.8" y="120"/>
      <point x="722.8" y="125" type="curve"/>
      <point x="737.8" y="-6" type="line"/>
      <point x="615.8" y="-17"/>
      <point x="585.8" y="-19"/>
    </contour>
  </outline>
</glyph>
<glyph name="florin" format="1">
  <advance width="711"/>
  <unicode hex="0192"/>
  <outline>
    <contour>
      <point x="154" y="-417" type="curve" smooth="yes"/>
      <point x="105" y="-417"/>
      <point x="77" y="-410"/>
      <point x="37" y="-398" type="curve"/>
      <point x="36" y="-263" type="line"/>
      <point x="58" y="-274"/>
      <point x="93" y="-276"/>
      <point x="127" y="-276" type="curve" smooth="yes"/>
      <point x="244" y="-276"/>
      <point x="267" y="-197"/>
      <point x="267" y="-49" type="curve" smooth="yes"/>
      <point x="267" y="1315" type="line" smooth="yes"/>
      <point x="267" y="1541"/>
      <point x="328" y="1710"/>
      <point x="522" y="1710" type="curve" smooth="yes"/>
      <point x="571" y="1710"/>
      <point x="600" y="1699"/>
      <point x="640" y="1687" type="curve"/>
      <point x="641" y="1553" type="line"/>
      <point x="619" y="1564"/>
      <point x="582" y="1568"/>
      <point x="548" y="1568" type="curve" smooth="yes"/>
      <point x="431" y="1568"/>
      <point x="407" y="1491"/>
      <point x="407" y="1343" type="curve" smooth="yes"/>
      <point x="407" y="-25" type="line" smooth="yes"/>
      <point x="407" y="-251"/>
      <point x="348" y="-417"/>
    </contour>
  </outline>
</glyph>
<glyph name="uni0237" format="1">
  <advance width="394"/>
  <unicode hex="0237"/>
  <outline>
    <contour>
      <point x="-57.7998" y="-479" type="line"/>
      <point x="-3.7998" y="-479" type="line" smooth="yes"/>
      <point x="216.2" y="-479"/>
      <point x="264.2" y="-424"/>
      <point x="264.2" y="-190" type="curve" smooth="yes"/>
      <point x="264.2" y="1075" type="line"/>
      <point x="121.2" y="1075" type="line"/>
      <point x="121.2" y="-135" type="line" smooth="yes"/>
      <point x="121.2" y="-303"/>
      <point x="162.2" y="-367"/>
      <point x="-34.7998" y="-367" type="curve" smooth="yes"/>
      <point x="-91.7998" y="-367" type="line"/>
    </contour>
  </outline>
</glyph>
<glyph name="uni02BC" format="1">
  <advance width="572"/>
  <unicode hex="02BC"/>
  <outline>
    <contour>
      <point x="138.6" y="1162" type="line"/>
      <point x="219.6" y="1162" type="line"/>
      <point x="408.6" y="1585" type="line"/>
      <point x="302.6" y="1585" type="line"/>
    </contour>
  </outline>
</glyph>
<glyph name="circumflex" format="1">
  <advance width="797"/>
  <unicode hex="02C6"/>
  <outline>
    <contour>
      <point x="142.2" y="1283" type="line"/>
      <point x="220.2" y="1283" type="line"/>
      <point x="382.2" y="1587" type="line"/>
      <point x="530.2" y="1283" type="line"/>
      <point x="607.2" y="1283" type="line"/>
      <point x="473.2" y="1650" type="line"/>
      <point x="294.2" y="1650" type="line"/>
    </contour>
  </outline>
</glyph>
<glyph name="caron" format="1">
  <advance width="797"/>
  <unicode hex="02C7"/>
  <outline>
    <contour>
      <point x="276.2" y="1283" type="line"/>
      <point x="455.2" y="1283" type="line"/>
      <point x="607.2" y="1650" type="line"/>
      <point x="529.2" y="1650" type="line"/>
      <point x="367.2" y="1346" type="line"/>
      <point x="219.2" y="1650" type="line"/>
      <point x="142.2" y="1650" type="line"/>
    </contour>
  </outline>
</glyph>
<glyph name="breve" format="1">
  <advance width="766"/>
  <unicode hex="02D8"/>
  <outline>
    <contour>
      <point x="370.1" y="1321" type="curve" smooth="yes"/>
      <point x="480.1" y="1321"/>
      <point x="584.1" y="1382"/>
      <point x="584.1" y="1544" type="curve"/>
      <point x="515.1" y="1544" type="line"/>
      <point x="515.1" y="1433"/>
      <point x="434.1" y="1390"/>
      <point x="370.1" y="1390" type="curve" smooth="yes"/>
      <point x="306.1" y="1390"/>
      <point x="232.1" y="1433"/>
      <point x="232.1" y="1544" type="curve"/>
      <point x="161.1" y="1544" type="line"/>
      <point x="161.1" y="1381"/>
      <point x="261.1" y="1321"/>
    </contour>
  </outline>
</glyph>
<glyph name="dotaccent" format="1">
  <advance width="309"/>
  <unicode hex="02D9"/>
  <outline>
    <contour>
      <point x="90" y="1300" type="line"/>
      <point x="217" y="1300" type="line"/>
      <point x="217" y="1449" type="line"/>
      <point x="90" y="1449" type="line"/>
    </contour>
  </outline>
</glyph>
<glyph name="ring" format="1">
  <advance width="598"/>
  <unicode hex="02DA"/>
  <outline>
    <contour>
      <point x="292.4" y="1349" type="curve" smooth="yes"/>
      <point x="237.4" y="1349"/>
      <point x="193.4" y="1394"/>
      <point x="193.4" y="1449" type="curve" smooth="yes"/>
      <point x="193.4" y="1504"/>
      <point x="237.4" y="1548"/>
      <point x="292.4" y="1548" type="curve" smooth="yes"/>
      <point x="347.4" y="1548"/>
      <point x="392.4" y="1504"/>
      <point x="392.4" y="1449" type="curve" smooth="yes"/>
      <point x="392.4" y="1394"/>
      <point x="347.4" y="1349"/>
    </contour>
    <contour>
      <point x="292.4" y="1286" type="curve" smooth="yes"/>
      <point x="386.4" y="1286"/>
      <point x="462.4" y="1356"/>
      <point x="462.4" y="1450" type="curve" smooth="yes"/>
      <point x="462.4" y="1544"/>
      <point x="386.4" y="1614"/>
      <point x="292.4" y="1614" type="curve" smooth="yes"/>
      <point x="198.4" y="1614"/>
      <point x="122.4" y="1544"/>
      <point x="122.4" y="1450" type="curve" smooth="yes"/>
      <point x="122.4" y="1356"/>
      <point x="198.4" y="1286"/>
    </contour>
  </outline>
</glyph>
<glyph name="ogonek" format="1">
  <advance width="582"/>
  <unicode hex="02DB"/>
  <outline>
    <contour>
      <point x="418.8" y="-383" type="curve"/>
      <point x="418.8" y="-383"/>
      <point x="417.8" y="-302"/>
      <point x="418.8" y="-302" type="curve"/>
      <point x="396.8" y="-312"/>
      <point x="357.8" y="-322"/>
      <point x="320.8" y="-322" type="curve" smooth="yes"/>
      <point x="273.8" y="-322"/>
      <point x="230.8" y="-304"/>
      <point x="230.8" y="-240" type="curve" smooth="yes"/>
      <point x="230.8" y="-157"/>
      <point x="340.8" y="-35"/>
      <point x="391.8" y="0" type="curve"/>
      <point x="325.8" y="0" type="line"/>
      <point x="209.8" y="-40"/>
      <point x="109.8" y="-172"/>
      <point x="109.8" y="-276" type="curve" smooth="yes"/>
      <point x="109.8" y="-350"/>
      <point x="159.8" y="-409"/>
      <point x="291.8" y="-409" type="curve" smooth="yes"/>
      <point x="335.8" y="-409"/>
      <point x="397.8" y="-395"/>
    </contour>
  </outline>
</glyph>
<glyph name="tilde" format="1">
  <advance width="931"/>
  <unicode hex="02DC"/>
  <outline>
    <contour>
      <point x="215.1" y="1301" type="line"/>
      <point x="219.1" y="1370"/>
      <point x="244.1" y="1400"/>
      <point x="280.1" y="1400" type="curve" smooth="yes"/>
      <point x="356.1" y="1400"/>
      <point x="485.1" y="1301"/>
      <point x="586.1" y="1301" type="curve" smooth="yes"/>
      <point x="641.1" y="1301"/>
      <point x="707.1" y="1328"/>
      <point x="707.1" y="1478" type="curve"/>
      <point x="640.1" y="1478" type="line"/>
      <point x="635.1" y="1411"/>
      <point x="613.1" y="1389"/>
      <point x="580.1" y="1389" type="curve" smooth="yes"/>
      <point x="514.1" y="1389"/>
      <point x="402.1" y="1479"/>
      <point x="291.1" y="1479" type="curve" smooth="yes"/>
      <point x="223.1" y="1479"/>
      <point x="152.1" y="1448"/>
      <point x="152.1" y="1301" type="curve"/>
    </contour>
  </outline>
</glyph>
<glyph name="hungarumlaut" format="1">
  <advance width="686"/>
  <unicode hex="02DD"/>
  <outline>
    <contour>
      <point x="97.2002" y="1297" type="line"/>
      <point x="153.2" y="1297" type="line"/>
      <point x="328.2" y="1599" type="line"/>
      <point x="206.2" y="1599" type="line"/>
    </contour>
    <contour>
      <point x="310.2" y="1297" type="line"/>
      <point x="369.2" y="1297" type="line"/>
      <point x="595.2" y="1599" type="line"/>
      <point x="462.2" y="1599" type="line"/>
    </contour>
  </outline>
</glyph>
<glyph name="uni0307" format="1">
  <advance width="281"/>
  <unicode hex="0307"/>
  <outline>
    <contour>
      <point x="65.7002" y="1325" type="line"/>
      <point x="192.7" y="1325" type="line"/>
      <point x="192.7" y="1495" type="line"/>
      <point x="65.7002" y="1495" type="line"/>
    </contour>
  </outline>
</glyph>
<glyph name="uni030F" format="1">
  <advance width="683"/>
  <unicode hex="030F"/>
  <outline>
    <contour>
      <point x="571.2" y="1297" type="line"/>
      <point x="515.2" y="1297" type="line"/>
      <point x="340.2" y="1599" type="line"/>
      <point x="462.2" y="1599" type="line"/>
    </contour>
    <contour>
      <point x="382.2" y="1297" type="line"/>
      <point x="323.2" y="1297" type="line"/>
      <point x="97.2002" y="1599" type="line"/>
      <point x="230.2" y="1599" type="line"/>
    </contour>
  </outline>
</glyph>
<glyph name="uni0311" format="1">
  <advance width="696"/>
  <unicode hex="0311"/>
  <outline>
    <contour>
      <point x="125.1" y="1308" type="curve"/>
      <point x="193.1" y="1308" type="line"/>
      <point x="193.1" y="1421"/>
      <point x="251.1" y="1474"/>
      <point x="334.1" y="1474" type="curve" smooth="yes"/>
      <point x="415.1" y="1474"/>
      <point x="477.1" y="1420"/>
      <point x="477.1" y="1308" type="curve"/>
      <point x="547.1" y="1308" type="line"/>
      <point x="547.1" y="1479"/>
      <point x="436.1" y="1546"/>
      <point x="331.1" y="1546" type="curve" smooth="yes"/>
      <point x="228.1" y="1546"/>
      <point x="125.1" y="1480"/>
    </contour>
  </outline>
</glyph>
<glyph name="uni031B" format="1">
  <advance width="452"/>
  <unicode hex="031B"/>
  <outline>
    <contour>
      <point x="222" y="488" type="line"/>
      <point x="226" y="477"/>
      <point x="230" y="452"/>
      <point x="230" y="422" type="curve" smooth="yes"/>
      <point x="230" y="344"/>
      <point x="203" y="230"/>
      <point x="82" y="230" type="curve" smooth="yes"/>
      <point x="73" y="230"/>
      <point x="64" y="231"/>
      <point x="54" y="232" type="curve"/>
      <point x="54" y="162" type="line"/>
      <point x="76" y="159"/>
      <point x="98" y="156"/>
      <point x="117" y="156" type="curve" smooth="yes"/>
      <point x="283" y="156"/>
      <point x="320" y="281"/>
      <point x="320" y="379" type="curve" smooth="yes"/>
      <point x="320" y="428"/>
      <point x="310" y="472"/>
      <point x="303" y="488" type="curve"/>
    </contour>
  </outline>
</glyph>
<glyph name="uni0326" format="1">
  <advance width="290"/>
  <unicode hex="0326"/>
  <outline>
    <contour>
      <point x="45.9004" y="-664" type="line"/>
      <point x="126.9" y="-196" type="line"/>
      <point x="229.9" y="-196" type="line"/>
      <point x="111.9" y="-664" type="line"/>
    </contour>
  </outline>
</glyph>
<glyph name="Gamma" format="1">
  <advance width="1147"/>
  <unicode hex="0393"/>
  <outline>
    <contour>
      <point x="206.1" y="0" type="line"/>
      <point x="206.1" y="1449" type="line"/>
      <point x="1009.68" y="1448" type="line"/>
      <point x="1004.68" y="1354" type="line"/>
      <point x="286.1" y="1355" type="line"/>
      <point x="328.1" y="1393" type="line"/>
      <point x="328.1" y="0" type="line"/>
    </contour>
  </outline>
</glyph>
<glyph name="Delta" format="1">
  <advance width="1535"/>
  <unicode hex="0394"/>
  <outline>
    <contour>
      <point x="163.8" y="0" type="line"/>
      <point x="690.576" y="1447" type="line"/>
      <point x="814.776" y="1447" type="line"/>
      <point x="1343.35" y="0" type="line"/>
    </contour>
    <contour>
      <point x="347.8" y="119" type="line"/>
      <point x="1161.35" y="119" type="line"/>
      <point x="751.776" y="1312" type="line"/>
    </contour>
  </outline>
</glyph>
<glyph name="Lambda" format="1">
  <advance width="1519"/>
  <unicode hex="039B"/>
  <outline>
    <contour>
      <point x="164.7" y="0" type="line"/>
      <point x="667.5" y="1450" type="line"/>
      <point x="824.1" y="1450" type="line"/>
      <point x="1327.3" y="0" type="line"/>
      <point x="1164.3" y="0" type="line"/>
      <point x="744.9" y="1295" type="line"/>
      <point x="332.7" y="0" type="line"/>
    </contour>
  </outline>
</glyph>
<glyph name="Pi" format="1">
  <advance width="1370"/>
  <unicode hex="03A0"/>
  <outline>
    <contour>
      <point x="138.6" y="0" type="line"/>
      <point x="138.6" y="1450" type="line"/>
      <point x="1206.6" y="1450" type="line"/>
      <point x="1206.6" y="0" type="line"/>
      <point x="1047.6" y="0" type="line"/>
      <point x="1047.6" y="1314" type="line"/>
      <point x="300.6" y="1314" type="line"/>
      <point x="300.6" y="0" type="line"/>
    </contour>
  </outline>
</glyph>
<glyph name="Sigma" format="1">
  <advance width="1130"/>
  <unicode hex="03A3"/>
  <outline>
    <contour>
      <point x="136.8" y="0" type="line"/>
      <point x="136.8" y="1443" type="line"/>
      <point x="945.876" y="1443" type="line"/>
      <point x="941.876" y="1351" type="line"/>
      <point x="232.8" y="1351" type="line"/>
      <point x="232.8" y="792" type="line"/>
      <point x="867.876" y="792" type="line"/>
      <point x="867.876" y="697" type="line"/>
      <point x="232.8" y="697" type="line"/>
      <point x="232.8" y="92" type="line"/>
      <point x="938.876" y="92" type="line"/>
      <point x="930.876" y="0" type="line"/>
    </contour>
  </outline>
</glyph>
<glyph name="Phi" format="1">
  <advance width="1614"/>
  <unicode hex="03A6"/>
  <outline>
    <contour>
      <point x="711.1" y="0" type="line"/>
      <point x="711.1" y="167" type="line"/>
      <point x="332.2" y="194"/>
      <point x="121.5" y="438"/>
      <point x="121.5" y="750" type="curve" smooth="yes"/>
      <point x="121.5" y="1069"/>
      <point x="347.5" y="1291"/>
      <point x="711.1" y="1317" type="curve"/>
      <point x="711.1" y="1450" type="line"/>
      <point x="872.1" y="1450" type="line"/>
      <point x="872.1" y="1317" type="line"/>
      <point x="1242.9" y="1292"/>
      <point x="1464.3" y="1069"/>
      <point x="1464.3" y="750" type="curve" smooth="yes"/>
      <point x="1464.3" y="435"/>
      <point x="1251.9" y="191"/>
      <point x="872.1" y="167" type="curve"/>
      <point x="872.1" y="0" type="line"/>
    </contour>
    <contour>
      <point x="711.1" y="299" type="curve"/>
      <point x="711.1" y="1186" type="line"/>
      <point x="433.9" y="1160"/>
      <point x="293.5" y="991"/>
      <point x="293.5" y="750" type="curve" smooth="yes"/>
      <point x="293.5" y="517"/>
      <point x="423.1" y="326"/>
    </contour>
    <contour>
      <point x="872.1" y="299" type="line"/>
      <point x="1165.5" y="325"/>
      <point x="1293.3" y="517"/>
      <point x="1293.3" y="750" type="curve" smooth="yes"/>
      <point x="1293.3" y="992"/>
      <point x="1152.9" y="1161"/>
      <point x="872.1" y="1186" type="curve"/>
    </contour>
  </outline>
</glyph>
<glyph name="Omega" format="1">
  <advance width="1504"/>
  <unicode hex="03A9"/>
  <outline>
    <contour>
      <point x="744.9" y="126" type="curve" smooth="yes"/>
      <point x="1050.9" y="126"/>
      <point x="1193.1" y="374"/>
      <point x="1193.1" y="714" type="curve" smooth="yes"/>
      <point x="1193.1" y="1067"/>
      <point x="1045.5" y="1314"/>
      <point x="745.8" y="1314" type="curve" smooth="yes"/>
      <point x="446.1" y="1314"/>
      <point x="295.8" y="1068"/>
      <point x="295.8" y="714" type="curve" smooth="yes"/>
      <point x="295.8" y="374"/>
      <point x="438.9" y="126"/>
    </contour>
    <contour>
      <point x="744.9" y="-21" type="curve" smooth="yes"/>
      <point x="345.3" y="-21"/>
      <point x="109.8" y="269"/>
      <point x="109.8" y="715" type="curve" smooth="yes"/>
      <point x="109.8" y="1172"/>
      <point x="352.5" y="1462"/>
      <point x="745.8" y="1462" type="curve" smooth="yes"/>
      <point x="1131.9" y="1462"/>
      <point x="1381.1" y="1169"/>
      <point x="1381.1" y="714" type="curve" smooth="yes"/>
      <point x="1381.1" y="275"/>
      <point x="1140" y="-21"/>
    </contour>
  </outline>
</glyph>
<glyph name="rho" format="1">
  <advance width="1222"/>
  <unicode hex="03C1"/>
  <outline>
    <contour>
      <point x="125.1" y="-480" type="line"/>
      <point x="249.1" y="-472" type="line"/>
      <point x="249.1" y="-87" type="line" smooth="yes"/>
      <point x="249.1" y="3"/>
      <point x="248.1" y="86"/>
      <point x="244.1" y="171" type="curve"/>
      <point x="307.6" y="57"/>
      <point x="451.6" y="-25"/>
      <point x="591.1" y="-25" type="curve" smooth="yes"/>
      <point x="841.3" y="-25"/>
      <point x="1041.8" y="203"/>
      <point x="1041.8" y="515" type="curve" smooth="yes"/>
      <point x="1041.8" y="852"/>
      <point x="864.7" y="1075"/>
      <point x="574" y="1075" type="curve" smooth="yes"/>
      <point x="435.4" y="1075"/>
      <point x="308.5" y="1003"/>
      <point x="258.1" y="843" type="curve"/>
      <point x="245.1" y="1054" type="line"/>
      <point x="125.1" y="1054" type="line"/>
    </contour>
    <contour>
      <point x="578.5" y="64" type="curve" smooth="yes"/>
      <point x="319.3" y="64"/>
      <point x="250" y="261"/>
      <point x="250" y="542" type="curve"/>
      <point x="249.1" y="791"/>
      <point x="333.7" y="984"/>
      <point x="582.1" y="984" type="curve" smooth="yes"/>
      <point x="817.9" y="984"/>
      <point x="917.8" y="777"/>
      <point x="917.8" y="524" type="curve" smooth="yes"/>
      <point x="917.8" y="258"/>
      <point x="809.8" y="64"/>
    </contour>
  </outline>
</glyph>
<glyph name="chi" format="1">
  <advance width="1240"/>
  <unicode hex="03C7"/>
  <outline>
    <contour>
      <point x="162" y="0" type="line"/>
      <point x="276" y="0" type="line"/>
      <point x="587.4" y="453" type="line"/>
      <point x="902.4" y="0" type="line"/>
      <point x="1017.4" y="0" type="line"/>
      <point x="635.1" y="531" type="line"/>
      <point x="1010.4" y="1054" type="line"/>
      <point x="880.8" y="1054" type="line"/>
      <point x="585.6" y="621" type="line"/>
      <point x="286.8" y="1054" type="line"/>
      <point x="175" y="1054" type="line"/>
      <point x="535.2" y="535" type="line"/>
    </contour>
  </outline>
</glyph>
<glyph name="uni0409" format="1">
  <advance width="2052"/>
  <unicode hex="0409"/>
  <outline>
    <contour>
      <point x="1168.1" y="30" type="line"/>
      <point x="1117.1" y="86" type="line"/>
      <point x="1459.5" y="86" type="line" smooth="yes"/>
      <point x="1694.4" y="86"/>
      <point x="1784.4" y="179"/>
      <point x="1784.4" y="402" type="curve" smooth="yes"/>
      <point x="1784.4" y="629"/>
      <point x="1698.9" y="707"/>
      <point x="1446.1" y="707" type="curve" smooth="yes"/>
      <point x="1129.1" y="707" type="line"/>
      <point x="1168.1" y="747" type="line"/>
    </contour>
    <contour>
      <point x="353.7" y="372" type="curve" smooth="yes"/>
      <point x="353.7" y="1449" type="line"/>
      <point x="1170.1" y="1449" type="line"/>
      <point x="1168.1" y="765" type="line"/>
      <point x="1129.1" y="794" type="line"/>
      <point x="1447.1" y="794" type="line" smooth="yes"/>
      <point x="1804.4" y="794"/>
      <point x="1898.4" y="617"/>
      <point x="1898.4" y="404" type="curve" smooth="yes"/>
      <point x="1898.4" y="181"/>
      <point x="1813.4" y="0"/>
      <point x="1454.1" y="0" type="curve" smooth="yes"/>
      <point x="1048.1" y="0" type="line"/>
      <point x="1048.1" y="1397" type="line"/>
      <point x="1108.1" y="1362" type="line"/>
      <point x="421.7" y="1362" type="line"/>
      <point x="475.7" y="1397" type="line"/>
      <point x="475.7" y="404" type="line" smooth="yes"/>
      <point x="475.7" y="117"/>
      <point x="427.7" y="-22"/>
      <point x="99.7002" y="-22" type="curve" smooth="yes"/>
      <point x="38.7002" y="-22" type="line"/>
      <point x="38.7002" y="78" type="line"/>
      <point x="99.7002" y="78" type="line" smooth="yes"/>
      <point x="315.7" y="78"/>
      <point x="353.7" y="143"/>
    </contour>
  </outline>
</glyph>
<glyph name="uni040A" format="1">
  <advance width="2041"/>
  <unicode hex="040A"/>
  <outline>
    <contour>
      <point x="989.6" y="0" type="line"/>
      <point x="1425.6" y="0" type="line" smooth="yes"/>
      <point x="1784.9" y="0"/>
      <point x="1869.9" y="181"/>
      <point x="1869.9" y="404" type="curve" smooth="yes"/>
      <point x="1869.9" y="617"/>
      <point x="1775.9" y="794"/>
      <point x="1418.6" y="794" type="curve" smooth="yes"/>
      <point x="1070.6" y="794" type="line"/>
      <point x="1109.6" y="765" type="line"/>
      <point x="1111.6" y="1449" type="line"/>
      <point x="989.6" y="1449" type="line"/>
      <point x="989.6" y="759" type="line"/>
      <point x="1047.6" y="794" type="line"/>
      <point x="269.5" y="794" type="line"/>
      <point x="324.5" y="759" type="line"/>
      <point x="324.5" y="1449" type="line"/>
      <point x="202.5" y="1449" type="line"/>
      <point x="202.5" y="0" type="line"/>
      <point x="324.5" y="0" type="line"/>
      <point x="324.5" y="743" type="line"/>
      <point x="269.5" y="707" type="line"/>
      <point x="1049.6" y="707" type="line"/>
      <point x="989.6" y="743" type="line"/>
    </contour>
    <contour>
      <point x="1109.6" y="31" type="line"/>
      <point x="1109.6" y="748" type="line"/>
      <point x="1069.6" y="707" type="line"/>
      <point x="1417.6" y="707" type="line" smooth="yes"/>
      <point x="1670.4" y="707"/>
      <point x="1755.9" y="629"/>
      <point x="1755.9" y="402" type="curve" smooth="yes"/>
      <point x="1755.9" y="179"/>
      <point x="1665.9" y="86"/>
      <point x="1431" y="86" type="curve" smooth="yes"/>
      <point x="1059.6" y="86" type="line"/>
    </contour>
  </outline>
</glyph>
<glyph name="uni040B" format="1">
  <advance width="1464"/>
  <unicode hex="040B"/>
  <outline>
    <contour>
      <point x="1186.5" y="0" type="line"/>
      <point x="1186.5" y="403" type="line" smooth="yes"/>
      <point x="1186.5" y="628"/>
      <point x="1087.5" y="697"/>
      <point x="899.4" y="697" type="curve" smooth="yes"/>
      <point x="622.2" y="697" type="line"/>
      <point x="622.2" y="0" type="line"/>
      <point x="500.2" y="0" type="line"/>
      <point x="500.2" y="1361" type="line"/>
      <point x="52.2002" y="1361" type="line"/>
      <point x="52.2002" y="1449" type="line"/>
      <point x="1030.8" y="1449" type="line"/>
      <point x="1030.8" y="1361" type="line"/>
      <point x="622.2" y="1361" type="line"/>
      <point x="622.2" y="791" type="line"/>
      <point x="897.6" y="791" type="line" smooth="yes"/>
      <point x="1174.8" y="791"/>
      <point x="1308.5" y="658"/>
      <point x="1308.5" y="404" type="curve" smooth="yes"/>
      <point x="1308.5" y="0" type="line"/>
    </contour>
  </outline>
</glyph>
<glyph name="uni040F" format="1">
  <advance width="1417"/>
  <unicode hex="040F"/>
  <outline>
    <contour>
      <point x="1193.5" y="1449" type="line"/>
      <point x="1193.5" y="0" type="line"/>
      <point x="202.5" y="0" type="line"/>
      <point x="202.5" y="1449" type="line"/>
      <point x="324.5" y="1449" type="line"/>
      <point x="324.5" y="51" type="line"/>
      <point x="264.5" y="87" type="line"/>
      <point x="1126.5" y="87" type="line"/>
      <point x="1071.5" y="51" type="line"/>
      <point x="1071.5" y="1449" type="line"/>
    </contour>
    <contour>
      <point x="659.3" y="-294" type="line"/>
      <point x="659.3" y="32" type="line"/>
      <point x="769.1" y="32" type="line"/>
      <point x="769.1" y="-294" type="line"/>
    </contour>
  </outline>
</glyph>
<glyph name="uni0413" format="1">
  <advance width="1057"/>
  <unicode hex="0413"/>
  <outline>
    <contour>
      <point x="202.5" y="0" type="line"/>
      <point x="202.5" y="1448" type="line"/>
      <point x="1029.48" y="1448" type="line"/>
      <point x="1029.48" y="1354" type="line"/>
      <point x="324.5" y="1354" type="line"/>
      <point x="324.5" y="0" type="line"/>
    </contour>
  </outline>
</glyph>
<glyph name="uni0414" format="1">
  <advance width="1369"/>
  <unicode hex="0414"/>
  <outline>
    <contour>
      <point x="24.2998" y="-294" type="line"/>
      <point x="24.2998" y="88" type="line"/>
      <point x="184.3" y="88" type="line"/>
      <point x="275.676" y="153"/>
      <point x="313.476" y="376"/>
      <point x="363.876" y="1090" type="curve"/>
      <point x="388.176" y="1448" type="line"/>
      <point x="1146.38" y="1448" type="line"/>
      <point x="1146.38" y="88" type="line"/>
      <point x="1279.38" y="88" type="line"/>
      <point x="1279.38" y="-294" type="line"/>
      <point x="1170.38" y="-294" type="line"/>
      <point x="1170.38" y="0" type="line"/>
      <point x="135.3" y="0" type="line"/>
      <point x="135.3" y="-294" type="line"/>
    </contour>
    <contour>
      <point x="290.976" y="33" type="curve"/>
      <point x="258.3" y="88" type="line"/>
      <point x="1064.38" y="88" type="line"/>
      <point x="1025.38" y="88" type="line"/>
      <point x="1024.48" y="1419" type="line"/>
      <point x="1085.38" y="1361" type="line"/>
      <point x="434.976" y="1360" type="line"/>
      <point x="492.576" y="1404" type="line"/>
      <point x="466.476" y="1079" type="line"/>
      <point x="430.476" y="578"/>
      <point x="404.376" y="158"/>
    </contour>
  </outline>
</glyph>
<glyph name="uni0416" format="1">
  <advance width="1864"/>
  <unicode hex="0416"/>
  <outline>
    <contour>
      <point x="1268.64" y="823" type="line"/>
      <point x="1732.6" y="0" type="line"/>
      <point x="1585.6" y="0" type="line"/>
      <point x="1216.86" y="752" type="line"/>
      <point x="1120.3" y="614" type="line"/>
      <point x="1120.3" y="0" type="line"/>
      <point x="998.3" y="0" type="line"/>
      <point x="998.3" y="614" type="line"/>
      <point x="846.5" y="752" type="line"/>
      <point x="265.7" y="0" type="line"/>
      <point x="119.7" y="0" type="line"/>
      <point x="765.1" y="823" type="line"/>
      <point x="127.7" y="1449" type="line"/>
      <point x="273.4" y="1449" type="line"/>
      <point x="998.3" y="743" type="line"/>
      <point x="998.3" y="1449" type="line"/>
      <point x="1120.3" y="1449" type="line"/>
      <point x="1120.3" y="743" type="line"/>
      <point x="1581.4" y="1449" type="line"/>
      <point x="1723.6" y="1449" type="line"/>
    </contour>
  </outline>
</glyph>
<glyph name="uni041B" format="1">
  <advance width="1501"/>
  <unicode hex="041B"/>
  <outline>
    <contour>
      <point x="38.7002" y="-22" type="line"/>
      <point x="99.7002" y="-22" type="line" smooth="yes"/>
      <point x="420.776" y="-22"/>
      <point x="468.776" y="117"/>
      <point x="468.776" y="404" type="curve" smooth="yes"/>
      <point x="456.576" y="1397" type="line"/>
      <point x="407.976" y="1362" type="line"/>
      <point x="1223.75" y="1361" type="line"/>
      <point x="1163.75" y="1396" type="line"/>
      <point x="1175.95" y="-1" type="line"/>
      <point x="1295.95" y="-2" type="line"/>
      <point x="1285.75" y="1448" type="line"/>
      <point x="346.776" y="1449" type="line"/>
      <point x="346.776" y="372" type="line" smooth="yes"/>
      <point x="346.776" y="143"/>
      <point x="312.576" y="78"/>
      <point x="99.7002" y="78" type="curve" smooth="yes"/>
      <point x="38.7002" y="78" type="line"/>
    </contour>
  </outline>
</glyph>
<glyph name="uni041F" format="1">
  <advance width="1417"/>
  <unicode hex="041F"/>
  <outline>
    <contour>
      <point x="202.5" y="0" type="line"/>
      <point x="324.5" y="0" type="line"/>
      <point x="324.5" y="1397" type="line"/>
      <point x="269.5" y="1362" type="line"/>
      <point x="1131.5" y="1362" type="line"/>
      <point x="1071.5" y="1397" type="line"/>
      <point x="1071.5" y="0" type="line"/>
      <point x="1193.5" y="0" type="line"/>
      <point x="1193.5" y="1449" type="line"/>
      <point x="202.5" y="1449" type="line"/>
    </contour>
  </outline>
</glyph>
<glyph name="uni0423" format="1">
  <advance width="1266"/>
  <unicode hex="0423"/>
  <outline>
    <contour>
      <point x="399.876" y="0" type="line"/>
      <point x="648.076" y="535" type="line"/>
      <point x="663.376" y="454" type="line"/>
      <point x="142.2" y="1440" type="line"/>
      <point x="257.2" y="1440" type="line"/>
      <point x="710.176" y="552" type="line"/>
      <point x="671.476" y="583" type="line"/>
      <point x="1028.45" y="1440" type="line"/>
      <point x="1144.45" y="1440" type="line"/>
      <point x="514.876" y="0" type="line"/>
    </contour>
  </outline>
</glyph>
<glyph name="uni0424" format="1">
  <advance width="1521"/>
  <unicode hex="0424"/>
  <outline>
    <contour>
      <point x="700.3" y="0" type="line"/>
      <point x="779.3" y="0" type="line"/>
      <point x="779.3" y="102" type="line"/>
      <point x="1175.3" y="141"/>
      <point x="1399.5" y="335"/>
      <point x="1391.6" y="717" type="curve" smooth="yes"/>
      <point x="1391.6" y="1104"/>
      <point x="1170.1" y="1304"/>
      <point x="771.4" y="1343" type="curve"/>
      <point x="771.4" y="1474" type="line"/>
      <point x="700.3" y="1474" type="line"/>
      <point x="701.2" y="1340" type="line"/>
      <point x="298.9" y="1289"/>
      <point x="102.6" y="1074"/>
      <point x="102.6" y="717" type="curve" smooth="yes"/>
      <point x="102.6" y="366"/>
      <point x="296.2" y="155"/>
      <point x="701.3" y="104" type="curve"/>
    </contour>
    <contour>
      <point x="701.3" y="208" type="line"/>
      <point x="370" y="256"/>
      <point x="220.6" y="426"/>
      <point x="220.6" y="719" type="curve" smooth="yes"/>
      <point x="220.6" y="1015"/>
      <point x="368.2" y="1190"/>
      <point x="701.2" y="1238" type="curve"/>
    </contour>
    <contour>
      <point x="779.3" y="205" type="curve"/>
      <point x="771.4" y="1240" type="line"/>
      <point x="1123.3" y="1196"/>
      <point x="1273.6" y="1018"/>
      <point x="1273.6" y="719" type="curve" smooth="yes"/>
      <point x="1281.5" y="426"/>
      <point x="1133.9" y="249"/>
    </contour>
  </outline>
</glyph>
<glyph name="uni0426" format="1">
  <advance width="1427"/>
  <unicode hex="0426"/>
  <outline>
    <contour>
      <point x="1211.45" y="1449" type="line"/>
      <point x="1089.45" y="1449" type="line"/>
      <point x="1089.45" y="51" type="line"/>
      <point x="1144.45" y="87" type="line"/>
      <point x="264.5" y="87" type="line"/>
      <point x="324.5" y="51" type="line"/>
      <point x="324.5" y="1449" type="line"/>
      <point x="202.5" y="1449" type="line"/>
      <point x="202.5" y="0" type="line"/>
      <point x="1211.45" y="0" type="line"/>
    </contour>
    <contour>
      <point x="1164.45" y="-275" type="line"/>
      <point x="1279.45" y="-275" type="line"/>
      <point x="1279.45" y="139" type="line"/>
      <point x="1164.45" y="139" type="line"/>
    </contour>
  </outline>
</glyph>
<glyph name="uni0427" format="1">
  <advance width="810"/>
  <unicode hex="0427"/>
  <outline>
    <contour>
      <point x="765.576" y="-12" type="line"/>
      <point x="902.576" y="-12" type="line"/>
      <point x="902.576" y="1454" type="line"/>
      <point x="765.576" y="1454" type="line"/>
      <point x="765.576" y="560" type="line"/>
      <point x="793.576" y="570"/>
      <point x="407.3" y="585"/>
      <point x="426.2" y="585" type="curve"/>
      <point x="293.9" y="585"/>
      <point x="222.8" y="627"/>
      <point x="222.8" y="889" type="curve" smooth="yes"/>
      <point x="222.8" y="1454" type="line"/>
      <point x="73.7998" y="1454" type="line"/>
      <point x="73.7998" y="846" type="line" smooth="yes"/>
      <point x="73.7998" y="656"/>
      <point x="141.8" y="461"/>
      <point x="350.6" y="461" type="curve"/>
      <point x="330.8" y="461"/>
      <point x="807.576" y="454"/>
      <point x="765.576" y="440" type="curve"/>
    </contour>
  </outline>
</glyph>
<glyph name="uni0428" format="1">
  <advance width="1467"/>
  <unicode hex="0428"/>
  <outline>
    <contour>
      <point x="150.3" y="0" type="line"/>
      <point x="1286.65" y="0" type="line"/>
      <point x="1286.65" y="1448" type="line"/>
      <point x="1191.65" y="1448" type="line"/>
      <point x="1191.65" y="113" type="line"/>
      <point x="749.076" y="113" type="line"/>
      <point x="749.076" y="1448" type="line"/>
      <point x="662.676" y="1448" type="line"/>
      <point x="662.676" y="113" type="line"/>
      <point x="245.3" y="113" type="line"/>
      <point x="245.3" y="1448" type="line"/>
      <point x="150.3" y="1448" type="line"/>
    </contour>
  </outline>
</glyph>
<glyph name="uni0429" format="1">
  <advance width="1545"/>
  <unicode hex="0429"/>
  <outline>
    <contour>
      <point x="1290.65" y="-275" type="line"/>
      <point x="1403.65" y="-275" type="line"/>
      <point x="1403.65" y="171" type="line"/>
      <point x="1318.65" y="171" type="line"/>
      <point x="1318.65" y="1448" type="line"/>
      <point x="1222.65" y="1448" type="line"/>
      <point x="1222.65" y="113" type="line"/>
      <point x="789.576" y="113" type="line"/>
      <point x="789.576" y="1448" type="line"/>
      <point x="703.176" y="1448" type="line"/>
      <point x="703.176" y="113" type="line"/>
      <point x="285.8" y="113" type="line"/>
      <point x="285.8" y="1448" type="line"/>
      <point x="190.8" y="1448" type="line"/>
      <point x="190.8" y="0" type="line"/>
      <point x="1291.65" y="0" type="line"/>
    </contour>
  </outline>
</glyph>
<glyph name="uni042A" format="1">
  <advance width="1235"/>
  <unicode hex="042A"/>
  <outline>
    <contour>
      <point x="255" y="0" type="line"/>
      <point x="703" y="0" type="line" smooth="yes"/>
      <point x="1064.1" y="0"/>
      <point x="1139.1" y="193"/>
      <point x="1139.1" y="416" type="curve" smooth="yes"/>
      <point x="1139.1" y="629"/>
      <point x="1056.1" y="820"/>
      <point x="697" y="820" type="curve" smooth="yes"/>
      <point x="332" y="820" type="line"/>
      <point x="377" y="777" type="line"/>
      <point x="377" y="1449" type="line"/>
      <point x="0" y="1449" type="line"/>
      <point x="0" y="1354" type="line"/>
      <point x="309" y="1356" type="line"/>
      <point x="255" y="1407" type="line"/>
    </contour>
    <contour>
      <point x="377" y="41" type="line"/>
      <point x="377" y="758" type="line"/>
      <point x="330" y="725" type="line"/>
      <point x="696" y="725" type="line" smooth="yes"/>
      <point x="941.5" y="725"/>
      <point x="1017.1" y="639"/>
      <point x="1017.1" y="412" type="curve" smooth="yes"/>
      <point x="1017.1" y="189"/>
      <point x="933.4" y="94"/>
      <point x="708.4" y="94" type="curve" smooth="yes"/>
      <point x="330" y="94" type="line"/>
    </contour>
  </outline>
</glyph>
<glyph name="uni042B" format="1">
  <advance width="1651"/>
  <unicode hex="042B"/>
  <outline>
    <contour>
      <point x="1305.1" y="0" type="line"/>
      <point x="1292.9" y="1449" type="line"/>
      <point x="1414.9" y="1449" type="line"/>
      <point x="1427.1" y="0" type="line"/>
    </contour>
    <contour>
      <point x="202.5" y="0" type="line"/>
      <point x="202.5" y="1448" type="line"/>
      <point x="324.5" y="1448" type="line"/>
      <point x="324.5" y="777" type="line"/>
      <point x="279.5" y="820" type="line"/>
      <point x="635" y="820" type="line" smooth="yes"/>
      <point x="989.6" y="820"/>
      <point x="1077.4" y="629"/>
      <point x="1077.4" y="416" type="curve" smooth="yes"/>
      <point x="1077.4" y="193"/>
      <point x="1002.4" y="0"/>
      <point x="641.3" y="0" type="curve" smooth="yes"/>
    </contour>
    <contour>
      <point x="324.5" y="41" type="line"/>
      <point x="277.5" y="94" type="line"/>
      <point x="646.7" y="94" type="line" smooth="yes"/>
      <point x="871.7" y="94"/>
      <point x="955.4" y="189"/>
      <point x="955.4" y="412" type="curve" smooth="yes"/>
      <point x="955.4" y="639"/>
      <point x="878.9" y="725"/>
      <point x="634.1" y="725" type="curve" smooth="yes"/>
      <point x="277.5" y="725" type="line"/>
      <point x="324.5" y="758" type="line"/>
    </contour>
  </outline>
</glyph>
<glyph name="uni042C" format="1">
  <advance width="1233"/>
  <unicode hex="042C"/>
  <outline>
    <contour>
      <point x="190.8" y="0" type="line"/>
      <point x="664.8" y="0" type="line" smooth="yes"/>
      <point x="1025.9" y="0"/>
      <point x="1100.9" y="193"/>
      <point x="1100.9" y="416" type="curve" smooth="yes"/>
      <point x="1100.9" y="629"/>
      <point x="1016.9" y="820"/>
      <point x="657.8" y="820" type="curve" smooth="yes"/>
      <point x="267.8" y="820" type="line"/>
      <point x="312.8" y="777" type="line"/>
      <point x="312.8" y="1448" type="line"/>
      <point x="190.8" y="1448" type="line"/>
    </contour>
    <contour>
      <point x="312.8" y="41" type="line"/>
      <point x="312.8" y="758" type="line"/>
      <point x="265.8" y="725" type="line"/>
      <point x="656.8" y="725" type="line" smooth="yes"/>
      <point x="902.4" y="725"/>
      <point x="978.9" y="639"/>
      <point x="978.9" y="412" type="curve" smooth="yes"/>
      <point x="978.9" y="189"/>
      <point x="895.2" y="94"/>
      <point x="670.2" y="94" type="curve" smooth="yes"/>
      <point x="265.8" y="94" type="line"/>
    </contour>
  </outline>
</glyph>
